<svg width="24" height="24" viewBox="0 0 24 24" fill="none" xmlns="http://www.w3.org/2000/svg">
<path d="M23.5861 19.8621H0.413812C0.185297 19.8621 0 19.6768 0 19.4483V4.55175C0 4.32324 0.185297 4.13794 0.413812 4.13794H23.5862C23.8147 4.13794 24 4.32324 24 4.55175V19.4483C24 19.6768 23.8147 19.8621 23.5861 19.8621Z" fill="#F5F5F5"/>
<path d="M24 5.34755H0V4.55175C0 4.32324 0.185297 4.13794 0.413812 4.13794H23.5862C23.8147 4.13794 24 4.32324 24 4.55175L24 5.34755Z" fill="#FF4B55"/>
<path d="M24 8.97607H0V10.1856H24V8.97607Z" fill="#FF4B55"/>
<path d="M24 6.55688H0V7.76644H24V6.55688Z" fill="#FF4B55"/>
<path d="M24 12.6049H0.413812C0.185297 12.6049 0 12.4196 0 12.1911V11.3953H24V12.6049Z" fill="#FF4B55"/>
<path d="M24 16.2338H0V17.4433H24V16.2338Z" fill="#FF4B55"/>
<path d="M23.5861 19.862H0.413812C0.185297 19.862 0 19.6767 0 19.4482V18.6525H24V19.4483C24 19.6768 23.8147 19.862 23.5861 19.862Z" fill="#FF4B55"/>
<path d="M24 13.8146H0V15.0241H24V13.8146Z" fill="#FF4B55"/>
<path d="M10.7586 4.13794H0.413812C0.185297 4.13794 0 4.32319 0 4.5517V12.1909C0 12.4194 0.185297 12.6047 0.413812 12.6047H10.7586C10.9872 12.6047 11.1724 12.4194 11.1724 12.1909V4.5517C11.1724 4.32319 10.9871 4.13794 10.7586 4.13794Z" fill="#41479B"/>
<path d="M1.1621 5.08771L1.2537 5.3624L1.54324 5.3646C1.58074 5.36493 1.59626 5.41274 1.56612 5.43501L1.3332 5.60704L1.42057 5.88308C1.43192 5.9188 1.39118 5.94843 1.36067 5.92658L1.12512 5.75826L0.889573 5.92663C0.859057 5.94843 0.818417 5.91885 0.829667 5.88313L0.917042 5.60709L0.68412 5.43506C0.65398 5.41274 0.669495 5.36498 0.706995 5.36465L0.996542 5.36245L1.08814 5.08776C1.09995 5.05213 1.1502 5.05213 1.1621 5.08771Z" fill="#F5F5F5"/>
<path d="M1.1621 6.52457L1.2537 6.79925L1.54324 6.80146C1.58074 6.80178 1.59626 6.8496 1.56612 6.87186L1.3332 7.04389L1.42057 7.31994C1.43192 7.35566 1.39118 7.38528 1.36067 7.36344L1.12512 7.19511L0.889573 7.36349C0.859057 7.38528 0.818417 7.3557 0.829667 7.31998L0.917042 7.04394L0.68412 6.87191C0.65398 6.8496 0.669495 6.80183 0.706995 6.8015L0.996542 6.7993L1.08814 6.52461C1.09995 6.48904 1.1502 6.48904 1.1621 6.52457Z" fill="#F5F5F5"/>
<path d="M1.1621 7.96158L1.2537 8.23627L1.54324 8.23847C1.58074 8.2388 1.59626 8.28661 1.56612 8.30888L1.3332 8.48091L1.42057 8.75696C1.43192 8.79268 1.39118 8.8223 1.36067 8.80046L1.12512 8.63213L0.889573 8.80051C0.859057 8.8223 0.818417 8.79273 0.829667 8.75701L0.917042 8.48096L0.68412 8.30893C0.65398 8.28661 0.669495 8.23885 0.706995 8.23852L0.996542 8.23632L1.08814 7.96163C1.09995 7.92605 1.1502 7.92605 1.1621 7.96158Z" fill="#F5F5F5"/>
<path d="M1.1621 9.3985L1.2537 9.67319L1.54324 9.67539C1.58074 9.67572 1.59626 9.72354 1.56612 9.7458L1.3332 9.91783L1.42057 10.1939C1.43192 10.2296 1.39118 10.2592 1.36067 10.2374L1.12512 10.0691L0.889573 10.2374C0.859057 10.2592 0.818417 10.2296 0.829667 10.1939L0.917042 9.91788L0.68412 9.74585C0.65398 9.72353 0.669495 9.67577 0.706995 9.67544L0.996542 9.67324L1.08814 9.39855C1.09995 9.36293 1.1502 9.36293 1.1621 9.3985Z" fill="#F5F5F5"/>
<path d="M1.1621 10.8354L1.2537 11.1101L1.54324 11.1123C1.58074 11.1126 1.59626 11.1605 1.56612 11.1827L1.3332 11.3548L1.42057 11.6308C1.43192 11.6665 1.39118 11.6962 1.36067 11.6743L1.12512 11.506L0.889573 11.6744C0.859057 11.6962 0.818417 11.6666 0.829667 11.6309L0.917042 11.3548L0.68412 11.1828C0.65398 11.1605 0.669495 11.1127 0.706995 11.1124L0.996542 11.1102L1.08814 10.8355C1.09995 10.7998 1.1502 10.7998 1.1621 10.8354Z" fill="#F5F5F5"/>
<path d="M2.27734 5.79215L2.36893 6.06684L2.65848 6.06904C2.69598 6.06937 2.71149 6.11718 2.68135 6.13945L2.44843 6.31148L2.5358 6.58752C2.54715 6.62324 2.50641 6.65287 2.4759 6.63102L2.24035 6.46265L2.00481 6.63102C1.97429 6.65282 1.93365 6.62324 1.9449 6.58752L2.03228 6.31148L1.79935 6.13945C1.76921 6.11713 1.78473 6.06937 1.82223 6.06904L2.11178 6.06684L2.20337 5.79215C2.21513 5.75662 2.26548 5.75662 2.27734 5.79215Z" fill="#F5F5F5"/>
<path d="M2.27734 7.2292L2.36893 7.50388L2.65848 7.50608C2.69598 7.50641 2.71149 7.55422 2.68135 7.57649L2.44843 7.74852L2.5358 8.02456C2.54715 8.06028 2.50641 8.0899 2.4759 8.06806L2.24035 7.89969L2.00481 8.06806C1.97429 8.08986 1.93365 8.06033 1.9449 8.02456L2.03228 7.74852L1.79935 7.57649C1.76921 7.55418 1.78473 7.50641 1.82223 7.50608L2.11178 7.50388L2.20337 7.2292C2.21513 7.19362 2.26548 7.19362 2.27734 7.2292Z" fill="#F5F5F5"/>
<path d="M2.27734 8.66609L2.36893 8.94077L2.65848 8.94298C2.69598 8.94331 2.71149 8.99112 2.68135 9.01338L2.44843 9.18542L2.5358 9.46146C2.54715 9.49718 2.50641 9.52681 2.4759 9.50496L2.24035 9.33659L2.00481 9.50496C1.97429 9.52676 1.93365 9.49718 1.9449 9.46146L2.03228 9.18542L1.79935 9.01338C1.76921 8.99107 1.78473 8.94331 1.82223 8.94298L2.11178 8.94077L2.20337 8.66609C2.21513 8.63051 2.26548 8.63051 2.27734 8.66609Z" fill="#F5F5F5"/>
<path d="M2.27734 10.1029L2.36893 10.3776L2.65848 10.3798C2.69598 10.3802 2.71149 10.428 2.68135 10.4502L2.44843 10.6223L2.5358 10.8983C2.54715 10.934 2.50641 10.9637 2.4759 10.9418L2.24035 10.7734L2.00481 10.9418C1.97429 10.9636 1.93365 10.934 1.9449 10.8983L2.03228 10.6223L1.79935 10.4502C1.76921 10.4279 1.78473 10.3802 1.82223 10.3798L2.11178 10.3776L2.20337 10.1029C2.21513 10.0674 2.26548 10.0674 2.27734 10.1029Z" fill="#F5F5F5"/>
<path d="M3.39257 5.08772L3.48417 5.3624L3.77371 5.36461C3.81121 5.36493 3.82673 5.41275 3.79659 5.43501L3.56367 5.60704L3.65104 5.88309C3.66239 5.9188 3.62165 5.94843 3.59114 5.92659L3.35559 5.75821L3.12004 5.92659C3.08953 5.94838 3.04889 5.9188 3.06014 5.88309L3.14751 5.60704L2.91459 5.43501C2.88445 5.4127 2.89996 5.36493 2.93746 5.36461L3.22701 5.3624L3.3186 5.08772C3.33042 5.05214 3.38071 5.05214 3.39257 5.08772Z" fill="#F5F5F5"/>
<path d="M3.39257 6.52457L3.48417 6.79926L3.77371 6.80146C3.81121 6.80179 3.82673 6.8496 3.79659 6.87187L3.56367 7.0439L3.65104 7.31995C3.66239 7.35566 3.62165 7.38529 3.59114 7.36345L3.35559 7.19507L3.12004 7.36345C3.08953 7.38524 3.04889 7.35566 3.06014 7.31995L3.14751 7.0439L2.91459 6.87187C2.88445 6.84956 2.89996 6.80179 2.93746 6.80146L3.22701 6.79926L3.3186 6.52457C3.33042 6.48904 3.38071 6.48904 3.39257 6.52457Z" fill="#F5F5F5"/>
<path d="M3.39257 7.96159L3.48417 8.23628L3.77371 8.23848C3.81121 8.23881 3.82673 8.28662 3.79659 8.30889L3.56367 8.48092L3.65104 8.75697C3.66239 8.79269 3.62165 8.82232 3.59114 8.80047L3.35559 8.63209L3.12004 8.80047C3.08953 8.82227 3.04889 8.79269 3.06014 8.75697L3.14751 8.48092L2.91459 8.30889C2.88445 8.28657 2.89996 8.23881 2.93746 8.23848L3.22701 8.23628L3.3186 7.96159C3.33042 7.92605 3.38071 7.92605 3.39257 7.96159Z" fill="#F5F5F5"/>
<path d="M3.39257 9.39851L3.48417 9.6732L3.77371 9.6754C3.81121 9.67573 3.82673 9.72354 3.79659 9.74581L3.56367 9.91784L3.65104 10.1939C3.66239 10.2296 3.62165 10.2592 3.59114 10.2374L3.35559 10.069L3.12004 10.2374C3.08953 10.2592 3.04889 10.2296 3.06014 10.1939L3.14751 9.91784L2.91459 9.74581C2.88445 9.72349 2.89996 9.67573 2.93746 9.6754L3.22701 9.6732L3.3186 9.39851C3.33042 9.36293 3.38071 9.36293 3.39257 9.39851Z" fill="#F5F5F5"/>
<path d="M3.39257 10.8354L3.48417 11.1101L3.77371 11.1123C3.81121 11.1127 3.82673 11.1605 3.79659 11.1827L3.56367 11.3548L3.65104 11.6308C3.66239 11.6665 3.62165 11.6962 3.59114 11.6743L3.35559 11.5059L3.12004 11.6743C3.08953 11.6961 3.04889 11.6665 3.06014 11.6308L3.14751 11.3548L2.91459 11.1827C2.88445 11.1604 2.89996 11.1127 2.93746 11.1123L3.22701 11.1101L3.3186 10.8354C3.33042 10.7998 3.38071 10.7998 3.39257 10.8354Z" fill="#F5F5F5"/>
<path d="M4.50805 5.79215L4.59964 6.06684L4.88919 6.06904C4.92669 6.06937 4.94221 6.11718 4.91207 6.13945L4.67914 6.31148L4.76652 6.58752C4.77786 6.62324 4.73713 6.65287 4.70661 6.63102L4.47107 6.46265L4.23552 6.63102C4.205 6.65282 4.16436 6.62324 4.17561 6.58752L4.26299 6.31148L4.03007 6.13945C3.99993 6.11713 4.01544 6.06937 4.05294 6.06904L4.34249 6.06684L4.43408 5.79215C4.44585 5.75662 4.49619 5.75662 4.50805 5.79215Z" fill="#F5F5F5"/>
<path d="M4.50805 7.2292L4.59964 7.50388L4.88919 7.50608C4.92669 7.50641 4.94221 7.55422 4.91207 7.57649L4.67914 7.74852L4.76652 8.02456C4.77786 8.06028 4.73713 8.0899 4.70661 8.06806L4.47107 7.89969L4.23552 8.06806C4.205 8.08986 4.16436 8.06033 4.17561 8.02456L4.26299 7.74852L4.03007 7.57649C3.99993 7.55418 4.01544 7.50641 4.05294 7.50608L4.34249 7.50388L4.43408 7.2292C4.44585 7.19362 4.49619 7.19362 4.50805 7.2292Z" fill="#F5F5F5"/>
<path d="M4.50805 8.66609L4.59964 8.94077L4.88919 8.94298C4.92669 8.94331 4.94221 8.99112 4.91207 9.01338L4.67914 9.18542L4.76652 9.46146C4.77786 9.49718 4.73713 9.52681 4.70661 9.50496L4.47107 9.33659L4.23552 9.50496C4.205 9.52676 4.16436 9.49718 4.17561 9.46146L4.26299 9.18542L4.03007 9.01338C3.99993 8.99107 4.01544 8.94331 4.05294 8.94298L4.34249 8.94077L4.43408 8.66609C4.44585 8.63051 4.49619 8.63051 4.50805 8.66609Z" fill="#F5F5F5"/>
<path d="M4.50805 10.1029L4.59964 10.3776L4.88919 10.3798C4.92669 10.3802 4.94221 10.428 4.91207 10.4502L4.67914 10.6223L4.76652 10.8983C4.77786 10.934 4.73713 10.9637 4.70661 10.9418L4.47107 10.7734L4.23552 10.9418C4.205 10.9636 4.16436 10.934 4.17561 10.8983L4.26299 10.6223L4.03007 10.4502C3.99993 10.4279 4.01544 10.3802 4.05294 10.3798L4.34249 10.3776L4.43408 10.1029C4.44585 10.0674 4.49619 10.0674 4.50805 10.1029Z" fill="#F5F5F5"/>
<path d="M5.62333 5.08772L5.71492 5.3624L6.00447 5.36461C6.04197 5.36493 6.05748 5.41275 6.02734 5.43501L5.79442 5.60704L5.8818 5.88309C5.89314 5.9188 5.85241 5.94843 5.82189 5.92659L5.5863 5.75821L5.35075 5.92659C5.32024 5.94838 5.2796 5.9188 5.29085 5.88309L5.37822 5.60704L5.1453 5.43501C5.11516 5.4127 5.13068 5.36493 5.16818 5.36461L5.45772 5.3624L5.54931 5.08772C5.56117 5.05214 5.61147 5.05214 5.62333 5.08772Z" fill="#F5F5F5"/>
<path d="M5.62333 6.52457L5.71492 6.79926L6.00447 6.80146C6.04197 6.80179 6.05748 6.8496 6.02734 6.87187L5.79442 7.0439L5.8818 7.31995C5.89314 7.35566 5.85241 7.38529 5.82189 7.36345L5.5863 7.19507L5.35075 7.36345C5.32024 7.38524 5.2796 7.35566 5.29085 7.31995L5.37822 7.0439L5.1453 6.87187C5.11516 6.84956 5.13068 6.80179 5.16818 6.80146L5.45772 6.79926L5.54931 6.52457C5.56117 6.48904 5.61147 6.48904 5.62333 6.52457Z" fill="#F5F5F5"/>
<path d="M5.62333 7.96159L5.71492 8.23628L6.00447 8.23848C6.04197 8.23881 6.05748 8.28662 6.02734 8.30889L5.79442 8.48092L5.8818 8.75697C5.89314 8.79269 5.85241 8.82232 5.82189 8.80047L5.5863 8.63209L5.35075 8.80047C5.32024 8.82227 5.2796 8.79269 5.29085 8.75697L5.37822 8.48092L5.1453 8.30889C5.11516 8.28657 5.13068 8.23881 5.16818 8.23848L5.45772 8.23628L5.54931 7.96159C5.56117 7.92605 5.61147 7.92605 5.62333 7.96159Z" fill="#F5F5F5"/>
<path d="M5.62333 9.39851L5.71492 9.6732L6.00447 9.6754C6.04197 9.67573 6.05748 9.72354 6.02734 9.74581L5.79442 9.91784L5.8818 10.1939C5.89314 10.2296 5.85241 10.2592 5.82189 10.2374L5.5863 10.069L5.35075 10.2374C5.32024 10.2592 5.2796 10.2296 5.29085 10.1939L5.37822 9.91784L5.1453 9.74581C5.11516 9.72349 5.13068 9.67573 5.16818 9.6754L5.45772 9.6732L5.54931 9.39851C5.56117 9.36293 5.61147 9.36293 5.62333 9.39851Z" fill="#F5F5F5"/>
<path d="M5.62333 10.8354L5.71492 11.1101L6.00447 11.1123C6.04197 11.1127 6.05748 11.1605 6.02734 11.1827L5.79442 11.3548L5.8818 11.6308C5.89314 11.6665 5.85241 11.6962 5.82189 11.6743L5.5863 11.5059L5.35075 11.6743C5.32024 11.6961 5.2796 11.6665 5.29085 11.6308L5.37822 11.3548L5.1453 11.1827C5.11516 11.1604 5.13068 11.1127 5.16818 11.1123L5.45772 11.1101L5.54931 10.8354C5.56117 10.7998 5.61147 10.7998 5.62333 10.8354Z" fill="#F5F5F5"/>
<path d="M6.73852 5.79215L6.83011 6.06684L7.11965 6.06904C7.15715 6.06937 7.17267 6.11718 7.14253 6.13945L6.90961 6.31148L6.99698 6.58752C7.00833 6.62324 6.96759 6.65287 6.93708 6.63102L6.70153 6.46265L6.46599 6.63102C6.43547 6.65282 6.39483 6.62324 6.40608 6.58752L6.49346 6.31148L6.26054 6.13945C6.2304 6.11713 6.24591 6.06937 6.28341 6.06904L6.57296 6.06684L6.66455 5.79215C6.67641 5.75662 6.72666 5.75662 6.73852 5.79215Z" fill="#F5F5F5"/>
<path d="M6.73852 7.2292L6.83011 7.50388L7.11965 7.50608C7.15715 7.50641 7.17267 7.55422 7.14253 7.57649L6.90961 7.74852L6.99698 8.02456C7.00833 8.06028 6.96759 8.0899 6.93708 8.06806L6.70153 7.89969L6.46599 8.06806C6.43547 8.08986 6.39483 8.06033 6.40608 8.02456L6.49346 7.74852L6.26054 7.57649C6.2304 7.55418 6.24591 7.50641 6.28341 7.50608L6.57296 7.50388L6.66455 7.2292C6.67641 7.19362 6.72666 7.19362 6.73852 7.2292Z" fill="#F5F5F5"/>
<path d="M6.73852 8.66609L6.83011 8.94077L7.11965 8.94298C7.15715 8.94331 7.17267 8.99112 7.14253 9.01338L6.90961 9.18542L6.99698 9.46146C7.00833 9.49718 6.96759 9.52681 6.93708 9.50496L6.70153 9.33659L6.46599 9.50496C6.43547 9.52676 6.39483 9.49718 6.40608 9.46146L6.49346 9.18542L6.26054 9.01338C6.2304 8.99107 6.24591 8.94331 6.28341 8.94298L6.57296 8.94077L6.66455 8.66609C6.67641 8.63051 6.72666 8.63051 6.73852 8.66609Z" fill="#F5F5F5"/>
<path d="M6.73852 10.1029L6.83011 10.3776L7.11965 10.3798C7.15715 10.3802 7.17267 10.428 7.14253 10.4502L6.90961 10.6223L6.99698 10.8983C7.00833 10.934 6.96759 10.9637 6.93708 10.9418L6.70153 10.7734L6.46599 10.9418C6.43547 10.9636 6.39483 10.934 6.40608 10.8983L6.49346 10.6223L6.26054 10.4502C6.2304 10.4279 6.24591 10.3802 6.28341 10.3798L6.57296 10.3776L6.66455 10.1029C6.67641 10.0674 6.72666 10.0674 6.73852 10.1029Z" fill="#F5F5F5"/>
<path d="M7.85399 5.08772L7.94559 5.3624L8.23513 5.36461C8.27263 5.36493 8.28815 5.41275 8.25801 5.43501L8.02509 5.60704L8.11246 5.88309C8.1238 5.9188 8.08307 5.94843 8.05256 5.92659L7.81701 5.75821L7.58147 5.92659C7.55095 5.94838 7.51031 5.9188 7.52156 5.88309L7.60893 5.60704L7.37601 5.43501C7.34587 5.4127 7.36139 5.36493 7.39889 5.36461L7.68843 5.3624L7.78003 5.08772C7.79179 5.05214 7.84213 5.05214 7.85399 5.08772Z" fill="#F5F5F5"/>
<path d="M7.85399 6.52457L7.94559 6.79926L8.23513 6.80146C8.27263 6.80179 8.28815 6.8496 8.25801 6.87187L8.02509 7.0439L8.11246 7.31995C8.1238 7.35566 8.08307 7.38529 8.05256 7.36345L7.81701 7.19507L7.58147 7.36345C7.55095 7.38524 7.51031 7.35566 7.52156 7.31995L7.60893 7.0439L7.37601 6.87187C7.34587 6.84956 7.36139 6.80179 7.39889 6.80146L7.68843 6.79926L7.78003 6.52457C7.79179 6.48904 7.84213 6.48904 7.85399 6.52457Z" fill="#F5F5F5"/>
<path d="M7.85399 7.96159L7.94559 8.23628L8.23513 8.23848C8.27263 8.23881 8.28815 8.28662 8.25801 8.30889L8.02509 8.48092L8.11246 8.75697C8.1238 8.79269 8.08307 8.82232 8.05256 8.80047L7.81701 8.63209L7.58147 8.80047C7.55095 8.82227 7.51031 8.79269 7.52156 8.75697L7.60893 8.48092L7.37601 8.30889C7.34587 8.28657 7.36139 8.23881 7.39889 8.23848L7.68843 8.23628L7.78003 7.96159C7.79179 7.92605 7.84213 7.92605 7.85399 7.96159Z" fill="#F5F5F5"/>
<path d="M7.85399 9.39851L7.94559 9.6732L8.23513 9.6754C8.27263 9.67573 8.28815 9.72354 8.25801 9.74581L8.02509 9.91784L8.11246 10.1939C8.1238 10.2296 8.08307 10.2592 8.05256 10.2374L7.81701 10.069L7.58147 10.2374C7.55095 10.2592 7.51031 10.2296 7.52156 10.1939L7.60893 9.91784L7.37601 9.74581C7.34587 9.72349 7.36139 9.67573 7.39889 9.6754L7.68843 9.6732L7.78003 9.39851C7.79179 9.36293 7.84213 9.36293 7.85399 9.39851Z" fill="#F5F5F5"/>
<path d="M7.85399 10.8354L7.94559 11.1101L8.23513 11.1123C8.27263 11.1127 8.28815 11.1605 8.25801 11.1827L8.02509 11.3548L8.11246 11.6308C8.1238 11.6665 8.08307 11.6962 8.05256 11.6743L7.81701 11.5059L7.58147 11.6743C7.55095 11.6961 7.51031 11.6665 7.52156 11.6308L7.60893 11.3548L7.37601 11.1827C7.34587 11.1604 7.36139 11.1127 7.39889 11.1123L7.68843 11.1101L7.78003 10.8354C7.79179 10.7998 7.84213 10.7998 7.85399 10.8354Z" fill="#F5F5F5"/>
<path d="M8.96924 5.79215L9.06083 6.06684L9.35038 6.06904C9.38788 6.06937 9.4034 6.11718 9.37326 6.13945L9.14033 6.31148L9.22771 6.58752C9.23905 6.62324 9.19832 6.65287 9.1678 6.63102L8.93225 6.46265L8.6967 6.63102C8.66619 6.65282 8.62555 6.62324 8.6368 6.58752L8.72417 6.31148L8.49125 6.13945C8.46111 6.11713 8.47662 6.06937 8.51412 6.06904L8.80367 6.06684L8.89527 5.79215C8.90708 5.75662 8.95743 5.75662 8.96924 5.79215Z" fill="#F5F5F5"/>
<path d="M8.96924 7.2292L9.06083 7.50388L9.35038 7.50608C9.38788 7.50641 9.4034 7.55422 9.37326 7.57649L9.14033 7.74852L9.22771 8.02456C9.23905 8.06028 9.19832 8.0899 9.1678 8.06806L8.93225 7.89969L8.6967 8.06806C8.66619 8.08986 8.62555 8.06033 8.6368 8.02456L8.72417 7.74852L8.49125 7.57649C8.46111 7.55418 8.47662 7.50641 8.51412 7.50608L8.80367 7.50388L8.89527 7.2292C8.90708 7.19362 8.95743 7.19362 8.96924 7.2292Z" fill="#F5F5F5"/>
<path d="M8.96924 8.66609L9.06083 8.94077L9.35038 8.94298C9.38788 8.94331 9.4034 8.99112 9.37326 9.01338L9.14033 9.18542L9.22771 9.46146C9.23905 9.49718 9.19832 9.52681 9.1678 9.50496L8.93225 9.33659L8.6967 9.50496C8.66619 9.52676 8.62555 9.49718 8.6368 9.46146L8.72417 9.18542L8.49125 9.01338C8.46111 8.99107 8.47662 8.94331 8.51412 8.94298L8.80367 8.94077L8.89527 8.66609C8.90708 8.63051 8.95743 8.63051 8.96924 8.66609Z" fill="#F5F5F5"/>
<path d="M8.96924 10.1029L9.06083 10.3776L9.35038 10.3798C9.38788 10.3802 9.4034 10.428 9.37326 10.4502L9.14033 10.6223L9.22771 10.8983C9.23905 10.934 9.19832 10.9637 9.1678 10.9418L8.93225 10.7734L8.6967 10.9418C8.66619 10.9636 8.62555 10.934 8.6368 10.8983L8.72417 10.6223L8.49125 10.4502C8.46111 10.4279 8.47662 10.3802 8.51412 10.3798L8.80367 10.3776L8.89527 10.1029C8.90708 10.0674 8.95743 10.0674 8.96924 10.1029Z" fill="#F5F5F5"/>
<path d="M10.0847 5.08772L10.1763 5.3624L10.4659 5.36461C10.5034 5.36493 10.5189 5.41275 10.4887 5.43501L10.2558 5.60704L10.3432 5.88309C10.3545 5.9188 10.3138 5.94843 10.2833 5.92659L10.0477 5.75821L9.81218 5.92659C9.78167 5.94838 9.74103 5.9188 9.75228 5.88309L9.83965 5.60704L9.60673 5.43501C9.57659 5.4127 9.5921 5.36493 9.6296 5.36461L9.91916 5.3624L10.0108 5.08772C10.0226 5.05214 10.0728 5.05214 10.0847 5.08772Z" fill="#F5F5F5"/>
<path d="M10.0847 6.52457L10.1763 6.79926L10.4659 6.80146C10.5034 6.80179 10.5189 6.8496 10.4887 6.87187L10.2558 7.0439L10.3432 7.31995C10.3545 7.35566 10.3138 7.38529 10.2833 7.36345L10.0477 7.19507L9.81218 7.36345C9.78167 7.38524 9.74103 7.35566 9.75228 7.31995L9.83965 7.0439L9.60673 6.87187C9.57659 6.84956 9.5921 6.80179 9.6296 6.80146L9.91916 6.79926L10.0108 6.52457C10.0226 6.48904 10.0728 6.48904 10.0847 6.52457Z" fill="#F5F5F5"/>
<path d="M10.0847 7.96159L10.1763 8.23628L10.4659 8.23848C10.5034 8.23881 10.5189 8.28662 10.4887 8.30889L10.2558 8.48092L10.3432 8.75697C10.3545 8.79269 10.3138 8.82232 10.2833 8.80047L10.0477 8.63209L9.81218 8.80047C9.78167 8.82227 9.74103 8.79269 9.75228 8.75697L9.83965 8.48092L9.60673 8.30889C9.57659 8.28657 9.5921 8.23881 9.6296 8.23848L9.91916 8.23628L10.0108 7.96159C10.0226 7.92605 10.0728 7.92605 10.0847 7.96159Z" fill="#F5F5F5"/>
<path d="M10.0847 9.39851L10.1763 9.6732L10.4659 9.6754C10.5034 9.67573 10.5189 9.72354 10.4887 9.74581L10.2558 9.91784L10.3432 10.1939C10.3545 10.2296 10.3138 10.2592 10.2833 10.2374L10.0477 10.069L9.81218 10.2374C9.78167 10.2592 9.74103 10.2296 9.75228 10.1939L9.83965 9.91784L9.60673 9.74581C9.57659 9.72349 9.5921 9.67573 9.6296 9.6754L9.91916 9.6732L10.0108 9.39851C10.0226 9.36293 10.0728 9.36293 10.0847 9.39851Z" fill="#F5F5F5"/>
<path d="M10.0847 10.8354L10.1763 11.1101L10.4659 11.1123C10.5034 11.1127 10.5189 11.1605 10.4887 11.1827L10.2558 11.3548L10.3432 11.6308C10.3545 11.6665 10.3138 11.6962 10.2833 11.6743L10.0477 11.5059L9.81218 11.6743C9.78167 11.6961 9.74103 11.6665 9.75228 11.6308L9.83965 11.3548L9.60673 11.1827C9.57659 11.1604 9.5921 11.1127 9.6296 11.1123L9.91916 11.1101L10.0108 10.8354C10.0226 10.7998 10.0728 10.7998 10.0847 10.8354Z" fill="#F5F5F5"/>
</svg>
