<svg id="Layer_1" data-name="Layer 1" xmlns="http://www.w3.org/2000/svg" viewBox="0 0 396.02 350"><defs><style>.cls-1{fill:#a500fa;}.cls-2{fill:#fa7823;}.cls-3{fill:#000f41;}</style></defs><polygon class="cls-1" points="132.43 192.34 79.94 192.34 79.94 139.12 56.3 139.07 56.3 216 108.79 216 108.79 298.51 185.72 298.51 185.72 274.86 132.43 274.86 132.43 192.34"/><polygon class="cls-2" points="156.05 251.35 156.05 168.84 103.57 168.84 103.57 115.41 79.94 115.41 79.94 192.34 132.43 192.34 132.43 274.86 209.36 274.86 209.36 251.35 156.05 251.35"/><polygon class="cls-3" points="103.57 91.9 103.57 168.84 156.05 168.84 156.05 251.35 232.98 251.35 232.98 168.84 285.46 168.84 285.46 91.9 103.57 91.9"/></svg>