<?xml version="1.0" standalone="no"?>
<!DOCTYPE svg PUBLIC "-//W3C//DTD SVG 1.1//EN" "http://www.w3.org/Graphics/SVG/1.1/DTD/svg11.dtd" >
<svg xmlns="http://www.w3.org/2000/svg" xmlns:xlink="http://www.w3.org/1999/xlink" version="1.1">
<metadata></metadata>
<defs>
<font id="pp_formula_condensedultraLt" horiz-adv-x="811" >
<font-face units-per-em="2048" ascent="1638" descent="-410" />
<missing-glyph horiz-adv-x="409" />
<glyph horiz-adv-x="0" />
<glyph horiz-adv-x="682" />
<glyph unicode=" "  horiz-adv-x="409" />
<glyph unicode="&#x09;" horiz-adv-x="409" />
<glyph unicode="&#xa0;" horiz-adv-x="409" />
<glyph unicode="!" horiz-adv-x="307" d="M82 51q0 32 21 52t51 20t50.5 -20t20.5 -52t-20.5 -51.5t-50.5 -19.5t-51 20t-21 51zM100 512l2 1126h103l-2 -1126h-103z" />
<glyph unicode="&#x22;" horiz-adv-x="430" d="M82 1147v512h102v-512h-102zM246 1147v512h102v-512h-102z" />
<glyph unicode="#" horiz-adv-x="1599" d="M82 502v102h358l158 430h-358v103h395l188 522h109l-189 -522h342l189 522h108l-188 -522h324v-103h-361l-158 -430h361v-102h-397l-189 -522h-108l188 522h-342l-188 -522h-109l188 522h-321zM549 604h342l158 430h-342z" />
<glyph unicode="$" horiz-adv-x="913" d="M82 621h102q0 -183 53 -268t169 -103v551q-147 54 -225.5 140t-78.5 230q0 136 77.5 223t226.5 99v166h102v-166q84 -10 145 -46.5t94.5 -93.5t48.5 -121.5t15 -141.5h-102q0 267 -201 299v-521q60 -25 99 -44.5t86 -53.5t74 -71.5t45.5 -94.5t18.5 -127 q0 -152 -79.5 -238.5t-243.5 -95.5v-163h-102v167q-159 18 -241.5 131.5t-82.5 342.5zM205 1171q0 -100 54 -160t147 -102v482q-201 -19 -201 -220zM508 246q123 7 172 65.5t49 165.5q0 58 -17.5 104.5t-51.5 79.5t-69 54.5t-83 42.5v-512z" />
<glyph unicode="%" horiz-adv-x="1126" d="M82 1352q0 -61 13.5 -114t41.5 -98t78 -70.5t117 -25.5t117 25.5t78 70.5t41.5 98t13.5 114t-13.5 114t-41.5 97.5t-78 70t-117 25.5t-117 -25.5t-78 -70t-41.5 -97.5t-13.5 -114zM184 1352q0 204 148 204q147 0 147 -204q0 -205 -147 -205q-148 0 -148 205zM205 -20 l608 1679h109l-609 -1679h-108zM545 287q0 -61 13.5 -114t41.5 -97.5t78 -70t117 -25.5t117 25.5t78 70t41 97t13 114.5t-13 114.5t-41 97t-78 70t-117 25.5t-117 -25.5t-78 -70t-41.5 -97.5t-13.5 -114zM647 287q0 205 148 205q147 0 147 -205t-147 -205q-148 0 -148 205z " />
<glyph unicode="&#x26;" horiz-adv-x="927" d="M82 385q0 342 172 446q-172 101 -172 422q0 59 9 114t33 109t60 94t95 64.5t133 24.5q185 0 261.5 -121.5t76.5 -366.5h-103q0 119 -15 196.5t-47 118t-72 55.5t-101 15q-115 0 -171.5 -82.5t-56.5 -261.5q0 -64 9.5 -115.5t24.5 -85t39.5 -58.5t47.5 -38t55 -20.5 t56 -9.5t57 -2h174v137h103v-137h96v-103h-96v-293q0 -259 -76 -383t-262 -124q-74 0 -133 24.5t-95 64t-60 94t-33 109t-9 113.5zM184 426q0 -179 56.5 -261.5t171.5 -82.5q48 0 82.5 9t65 34.5t48.5 70t28.5 117t10.5 174.5v293h-174q-33 0 -57 -2t-56 -10t-55 -22 t-47.5 -40.5t-39.5 -63t-24.5 -92t-9.5 -124.5z" />
<glyph unicode="'" horiz-adv-x="266" d="M82 1147v512h102v-512h-102z" />
<glyph unicode="(" horiz-adv-x="430" d="M82 819q0 227 39 428.5t125 411.5h102q-86 -210 -125 -411.5t-39 -428.5t39 -428t125 -411h-102q-86 210 -125 411t-39 428z" />
<glyph unicode=")" horiz-adv-x="430" d="M82 -20q86 210 125 411t39 428t-39 428.5t-125 411.5h102q86 -210 125 -411.5t39 -428.5t-39 -428t-125 -411h-102z" />
<glyph unicode="*" horiz-adv-x="667" d="M82 1253l170 99l-170 98l41 70l170 -99v238h82v-238l170 99l41 -70l-170 -98l170 -99l-41 -69l-170 98v-238h-82v238l-170 -98z" />
<glyph unicode="+" horiz-adv-x="1003" d="M82 563v103h369v368h102v-368h369v-103h-369v-368h-102v368h-369z" />
<glyph unicode="," horiz-adv-x="307" d="M82 53q0 35 20.5 52.5t51.5 17.5q32 0 51.5 -24.5t19.5 -75.5q0 -131 -123 -197v61q36 22 48 48t12 65q-33 -15 -56.5 1.5t-23.5 51.5z" />
<glyph unicode="-" horiz-adv-x="1003" d="M82 625v102h840v-102h-840z" />
<glyph unicode="." horiz-adv-x="307" d="M82 51q0 32 21 52t51 20t50.5 -20t20.5 -52t-20.5 -51.5t-50.5 -19.5t-51 20t-21 51z" />
<glyph unicode="/" horiz-adv-x="880" d="M82 -20l608 1679h109l-609 -1679h-108z" />
<glyph unicode="0" d="M82 426v786q0 244 75.5 345.5t248.5 101.5t248 -101.5t75 -345.5v-786q0 -244 -75 -345t-248 -101t-248.5 101t-75.5 345zM184 389q2 -172 50 -239.5t172 -67.5q127 0 174 70.5t47 253.5v663zM184 569l443 680q-2 173 -49.5 240t-171.5 67q-127 0 -174.5 -70t-47.5 -253 v-664z" />
<glyph unicode="1" horiz-adv-x="770" d="M82 0v102h252v1373q-37 -77 -94.5 -110.5t-157.5 -33.5v103q93 0 153 52.5t99 151.5h102v-1536h252v-102h-606z" />
<glyph unicode="2" horiz-adv-x="831" d="M82 0v102q0 88 8 162.5t19.5 130t35.5 109.5t43 88.5t56.5 79.5t61.5 70.5t71 72.5q108 108 152 165q118 154 118 302q0 141 -46.5 207.5t-149.5 66.5q-51 0 -87.5 -9.5t-68 -34.5t-50.5 -68.5t-29.5 -111t-10.5 -161.5h-103q0 251 82.5 369.5t266.5 118.5 q66 0 118 -20.5t85.5 -55t55.5 -83.5t31 -102.5t9 -115.5q0 -61 -15.5 -120.5t-36 -102.5t-59 -95t-64 -81t-72.5 -79t-65 -71q-18 -20 -50 -54t-48 -52t-42 -51.5t-39 -61t-30 -71t-25 -90.5t-14 -111t-6 -140h566v-102h-668z" />
<glyph unicode="3" horiz-adv-x="831" d="M82 487h102q0 -102 10.5 -174.5t29 -117t49 -70t65 -34.5t82.5 -9q114 0 170.5 82.5t56.5 261.5q0 69 -9.5 124.5t-24.5 92t-39.5 63t-47.5 40.5t-55 22t-56 10t-57 2h-61v103h61q33 0 57 2t56 9.5t55 20.5t47.5 38t39.5 58.5t24.5 85t9.5 115.5q0 179 -56.5 261.5 t-170.5 82.5q-61 0 -101 -15t-72.5 -55.5t-47.5 -118t-15 -196.5h-102q0 245 76.5 366.5t261.5 121.5q74 0 133 -24.5t95 -64.5t60 -94t33 -109t9 -114q0 -321 -172 -422q172 -104 172 -446q0 -59 -9 -113.5t-33 -109t-60 -94t-95 -64t-133 -24.5q-186 0 -262 124t-76 383z " />
<glyph unicode="4" horiz-adv-x="831" d="M82 393v103l385 1142h102v-1142h181v-103h-181v-393h-102v393h-385zM188 496h279v835z" />
<glyph unicode="5" horiz-adv-x="831" d="M82 487h102q0 -78 5 -135.5t19.5 -111t39.5 -86.5t65.5 -52.5t96.5 -19.5q59 0 101.5 22.5t68.5 61.5t41 102.5t20.5 133.5t5.5 167q0 234 -45.5 330t-150.5 96q-73 0 -128.5 -45.5t-82.5 -106.5t-35 -130h-103l41 925h541v-102h-442l-27 -588q103 150 254 150 q281 0 281 -529q0 -63 -1.5 -108t-8.5 -111t-20 -112.5t-38.5 -98.5t-60.5 -84.5t-89 -53.5t-122 -21q-170 0 -249 122t-79 385z" />
<glyph unicode="6" horiz-adv-x="831" d="M82 580v534q1 140 17.5 238t55 169t103.5 104.5t160 33.5q62 0 110.5 -18t79 -51.5t51.5 -73t31.5 -91t14.5 -96t4 -96.5h-103q0 107 -15 174.5t-57.5 108t-115.5 40.5q-79 0 -128 -31.5t-77.5 -115.5t-28.5 -227v-262q92 178 273 178q80 0 137.5 -38.5t91 -113.5 t49 -174t15.5 -229q0 -96 -8.5 -174t-31 -152.5t-59.5 -125t-97 -81t-140 -30.5q-59 0 -107 18t-81.5 48.5t-59.5 76t-41.5 95.5t-25 113t-13.5 121.5t-4 127.5zM184 580q0 -185 26 -295.5t75.5 -156.5t128.5 -46q80 0 129.5 41t76.5 143.5t27 276.5q0 175 -24 275 t-68 138.5t-119 38.5q-127 0 -189.5 -109.5t-62.5 -305.5z" />
<glyph unicode="7" horiz-adv-x="892" d="M82 1536v102h729v-102q-154 -217 -244.5 -431.5t-134 -481.5t-43.5 -623h-102q0 529 93.5 872t321.5 664h-620z" />
<glyph unicode="8" d="M82 406v77q0 280 160 379q-140 108 -140 350v41q0 117 32 206.5t102 144.5t170 55t169.5 -55t101.5 -144.5t32 -206.5v-41q0 -242 -140 -350q160 -99 160 -379v-77q0 -204 -81.5 -315t-241.5 -111t-242 111t-82 315zM184 426q0 -83 11 -144.5t29.5 -99t47.5 -60.5 t61 -31.5t73 -8.5q52 0 89.5 14.5t68.5 51t47 106t16 172.5v37q0 186 -58 265t-163 79t-163.5 -79t-58.5 -265v-37zM205 1233q0 -324 201 -324q200 0 200 324q0 323 -200 323q-201 0 -201 -323z" />
<glyph unicode="9" horiz-adv-x="831" d="M82 1096q0 96 8.5 174t31 152.5t59.5 125t97 81t140 30.5q59 0 107 -18t81.5 -48.5t59.5 -76t41.5 -95.5t25 -113t13.5 -121.5t4 -127.5v-535q-1 -140 -17.5 -237.5t-55 -168.5t-103.5 -104.5t-160 -33.5q-62 0 -110.5 18t-79 51.5t-51.5 73t-31.5 91t-14.5 96t-4 96.5 h102q0 -162 41 -243t148 -81q79 0 128 32t77 116t28 227v262q-92 -178 -272 -178q-80 0 -137.5 38.5t-91 113.5t-49 174t-15.5 229zM184 1096q0 -175 23.5 -275t68 -139t119.5 -39q127 0 189.5 110t62.5 306q0 185 -26 295.5t-74.5 156t-128.5 45.5t-130 -40.5t-77 -143 t-27 -276.5z" />
<glyph unicode=":" horiz-adv-x="307" d="M82 51q0 32 21 52t51 20t50.5 -20t20.5 -52t-20.5 -51.5t-50.5 -19.5t-51 20t-21 51zM82 686q0 32 21 52t51 20t50.5 -20t20.5 -52t-20.5 -52t-50.5 -20t-51 20t-21 52z" />
<glyph unicode=";" horiz-adv-x="307" d="M82 53q0 35 20.5 52.5t51.5 17.5q32 0 51.5 -24.5t19.5 -75.5q0 -131 -123 -197v61q36 22 48 48t12 65q-33 -15 -56.5 1.5t-23.5 51.5zM82 686q0 32 21 52t51 20t50.5 -20t20.5 -52t-20.5 -52t-50.5 -20t-51 20t-21 52z" />
<glyph unicode="&#x3c;" horiz-adv-x="1003" d="M82 635v82l840 325v-102l-697 -264l697 -264v-103z" />
<glyph unicode="=" horiz-adv-x="1003" d="M82 522v103h840v-103h-840zM82 727v102h840v-102h-840z" />
<glyph unicode="&#x3e;" horiz-adv-x="1003" d="M82 309v103l696 264l-696 264v102l840 -325v-82z" />
<glyph unicode="?" d="M82 1171q0 239 81 363.5t267 124.5q79 0 138 -27t93.5 -74t51 -105t16.5 -126q0 -73 -18 -136t-47.5 -110t-64.5 -92.5t-70 -93t-64.5 -100t-47.5 -125t-18 -158.5h-102q0 92 18 172t47.5 137.5t64.5 108.5t70 96t64.5 89t47.5 98.5t18 113.5q0 229 -197 229 q-84 0 -136 -32.5t-81 -118.5t-29 -234h-102zM276 51q0 32 21 52t51 20t51 -20t21 -52q0 -31 -21 -51t-51 -20t-51 20t-21 51z" />
<glyph unicode="@" horiz-adv-x="1226" d="M82 696q0 185 33 332.5t100 258t177 170t257 59.5q98 0 176 -29.5t131.5 -86.5t91 -130.5t58.5 -171.5t30 -199.5t9 -222.5q0 -103 -4.5 -179.5t-16 -145.5t-31.5 -112.5t-52.5 -68.5t-77.5 -25q-82 0 -120.5 56.5t-47.5 179.5q-73 -152 -205 -152q-130 0 -196 121.5 t-66 349.5t66 349.5t196 121.5q128 0 201 -145v125h102v-653q0 -100 8 -155.5t22.5 -75t39.5 -19.5q27 0 43.5 35t26 131t9.5 262q0 106 -6.5 193t-22.5 174t-45 151.5t-71 115t-105 77t-143 26.5q-120 0 -210.5 -52.5t-145.5 -149t-82 -225.5t-27 -290q0 -131 15 -236.5 t50.5 -196.5t92 -152.5t142 -96t196.5 -34.5q196 0 348 61v-102q-154 -62 -348 -62q-133 0 -236 39.5t-170.5 109.5t-111 174t-62 225t-18.5 271zM430 700q0 -368 191 -368q90 0 130 86t40 282q0 195 -41 282t-129 87q-191 0 -191 -369z" />
<glyph unicode="A" horiz-adv-x="862" d="M82 0l272 1638h154l272 -1638h-102l-64 381h-366l-64 -381h-102zM264 483h334l-166 1002z" />
<glyph unicode="B" horiz-adv-x="815" d="M82 0v1638h225q218 0 301.5 -78t83.5 -286v-76q0 -235 -188 -311q229 -83 229 -387v-84q0 -121 -20 -198.5t-70 -127.5t-130 -70t-206 -20h-225zM184 102h123q73 0 122.5 5.5t87 20.5t59 36t34.5 59t17 82t4 111v84q0 176 -74.5 255t-249.5 79h-123v-732zM184 936h123 q53 0 91.5 5t77 21t62 44t38 76.5t14.5 115.5v76q0 61 -3.5 100t-16.5 70.5t-30.5 47.5t-52 27t-75 14t-105.5 3h-123v-600z" />
<glyph unicode="C" d="M82 426v786q0 244 75.5 345.5t248.5 101.5t248 -101.5t75 -345.5v-239h-102v260q0 183 -47 253t-174 70t-174.5 -70t-47.5 -253v-827q0 -183 47.5 -253.5t174.5 -70.5t174 70.5t47 253.5v260h102v-240q0 -244 -75 -345t-248 -101t-248.5 101t-75.5 345z" />
<glyph unicode="D" horiz-adv-x="815" d="M82 0v1638h184q73 0 124 -3.5t103.5 -13.5t86.5 -29t65.5 -50.5t49.5 -76.5t28 -108t10 -145v-786q0 -82 -10 -145t-28 -108t-49.5 -76.5t-65.5 -50.5t-86.5 -29t-103.5 -13.5t-124 -3.5h-184zM184 102h82q76 0 126 4t94 17t69 34.5t43.5 58.5t25.5 87.5t7 122.5v786 q0 72 -7 122.5t-25.5 87.5t-43.5 58.5t-69 34.5t-94 17t-126 4h-82v-1434z" />
<glyph unicode="E" horiz-adv-x="624" d="M82 0v1638h461v-102h-359v-666h359v-102h-359v-666h359v-102h-461z" />
<glyph unicode="F" horiz-adv-x="624" d="M82 0v1638h461v-102h-359v-748h359v-102h-359v-686h-102z" />
<glyph unicode="G" d="M82 426v786q0 233 77 340t247 107t246.5 -107t76.5 -340v-147h-102v168q0 183 -47 253t-174 70t-174.5 -70t-47.5 -253v-827q0 -183 47.5 -253.5t174.5 -70.5t174 70.5t47 253.5v311h-221v102h323v-819h-80l-6 133q-77 -153 -258 -153q-156 0 -229.5 107.5t-73.5 338.5z " />
<glyph unicode="H" horiz-adv-x="847" d="M82 0v1638h102v-768h480v768h102v-1638h-102v768h-480v-768h-102z" />
<glyph unicode="I" horiz-adv-x="266" d="M82 0v1638h102v-1638h-102z" />
<glyph unicode="J" d="M82 426v143h102v-163q2 -183 49 -253.5t173 -70.5q127 0 174 70.5t47 253.5v1232h102v-1212q0 -244 -75 -345t-248 -101t-248.5 101t-75.5 345z" />
<glyph unicode="K" horiz-adv-x="856" d="M82 0v1638h102v-1638h-102zM184 819l478 819h112l-473 -819l473 -819h-112z" />
<glyph unicode="L" horiz-adv-x="624" d="M82 0v1638h102v-1536h359v-102h-461z" />
<glyph unicode="M" horiz-adv-x="1052" d="M82 0v1638h102l342 -1456l342 1456h103v-1638h-103v1214l-280 -1214h-123l-281 1214v-1214h-102z" />
<glyph unicode="N" horiz-adv-x="919" d="M82 0v1638h102l551 -1372v1372h103v-1638h-103l-551 1372v-1372h-102z" />
<glyph unicode="O" d="M82 426v786q0 244 75.5 345.5t248.5 101.5t248 -101.5t75 -345.5v-786q0 -244 -75 -345t-248 -101t-248.5 101t-75.5 345zM184 406q0 -183 47.5 -253.5t174.5 -70.5t174 70.5t47 253.5v827q0 183 -47 253t-174 70t-174.5 -70t-47.5 -253v-827z" />
<glyph unicode="P" horiz-adv-x="815" d="M82 0v1638h205q88 0 154.5 -10.5t114 -28t80 -50t52 -67.5t29.5 -91t13 -108.5t3 -131.5v-43q0 -68 -2.5 -115t-9.5 -98t-20.5 -84.5t-36 -67.5t-55.5 -54.5t-78.5 -37t-106 -23.5t-137.5 -7h-103v-621h-102zM184 723h103q55 0 97.5 4t76.5 10.5t59 20.5t43.5 28.5 t30.5 40.5t19.5 50.5t11.5 64t5 75.5t1 91v43q0 55 -1 91t-5 75.5t-11.5 64t-19.5 50.5t-30.5 40.5t-43.5 28.5t-59 20.5t-76.5 10.5t-97.5 4h-103v-813z" />
<glyph unicode="Q" d="M82 426v786q0 244 75.5 345.5t248.5 101.5t248 -101.5t75 -345.5v-786q0 -222 -62 -324.5t-200 -117.5q126 -32 201 -107v-127q-144 148 -365 148v92q-116 26 -168.5 128.5t-52.5 307.5zM184 406q0 -183 47.5 -253.5t174.5 -70.5t174 70.5t47 253.5v827q0 183 -47 253 t-174 70t-174.5 -70t-47.5 -253v-827z" />
<glyph unicode="R" horiz-adv-x="815" d="M82 0v1638h205q97 0 169 -12.5t121 -39.5t80.5 -62t48.5 -88.5t23 -109.5t6 -134v-2q0 -81 -8.5 -139.5t-30.5 -114t-65 -95t-109 -63.5q104 -29 156.5 -112t52.5 -246v-275q0 -116 23 -145h-103q-22 28 -22 145v275q0 63 -12.5 112t-30.5 80.5t-49.5 54t-56.5 33 t-66.5 16.5t-63.5 6.5t-63 0.5h-103v-723h-102zM184 825h103q89 0 152 16.5t100.5 44.5t58.5 76.5t28 100t7 127.5v2q0 82 -7 133.5t-27.5 95.5t-59 67t-100 35.5t-152.5 12.5h-103v-711z" />
<glyph unicode="S" d="M82 549h102q0 -146 11.5 -235.5t42 -142t75 -71t117.5 -18.5q71 0 111.5 23.5t63 90t22.5 187.5q0 71 -12 128t-31 98t-55.5 82t-71 70.5t-92.5 72.5q-60 44 -102.5 86t-81.5 97.5t-59 125t-20 151.5q0 168 76 266.5t232 98.5q163 0 241 -118.5t78 -369.5h-102 q0 97 -10.5 166.5t-28.5 111.5t-46.5 66.5t-59 32.5t-72.5 8q-104 0 -154.5 -57t-50.5 -205q0 -86 29 -156t72.5 -116.5t115.5 -101.5q62 -47 100.5 -80t82.5 -83t68 -100t40 -120t16 -154q0 -403 -299 -403q-196 0 -272 128t-76 441z" />
<glyph unicode="T" horiz-adv-x="770" d="M82 1536v102h606v-102h-252v-1536h-102v1536h-252z" />
<glyph unicode="U" d="M82 426v1212h102v-1232q0 -183 47.5 -253.5t174.5 -70.5t174 70.5t47 253.5v1232h102v-1212q0 -244 -75 -345t-248 -101t-248.5 101t-75.5 345z" />
<glyph unicode="V" horiz-adv-x="862" d="M82 1638h102l248 -1484l246 1484h102l-272 -1638h-154z" />
<glyph unicode="W" horiz-adv-x="1542" d="M82 0v1638h102v-1374l531 1374h106v-1374l533 1374h106l-635 -1638h-106v1374l-531 -1374h-106z" />
<glyph unicode="X" horiz-adv-x="937" d="M82 0l321 819l-321 819h108l279 -716l279 716h108l-321 -819l321 -819h-108l-279 717l-279 -717h-108z" />
<glyph unicode="Y" horiz-adv-x="937" d="M82 1638h106l281 -905l281 905h106l-336 -1065v-573h-102v573z" />
<glyph unicode="Z" horiz-adv-x="747" d="M82 0v102l479 1434h-479v102h584v-102l-480 -1434h480v-102h-584z" />
<glyph unicode="[" horiz-adv-x="430" d="M82 -20v1679h266v-82h-164v-1516h164v-81h-266z" />
<glyph unicode="\" horiz-adv-x="880" d="M82 1659h108l609 -1679h-109z" />
<glyph unicode="]" horiz-adv-x="430" d="M82 -20v81h164v1516h-164v82h266v-1679h-266z" />
<glyph unicode="^" d="M82 1024l250 614h147l250 -614h-111l-212 524l-213 -524h-111z" />
<glyph unicode="_" horiz-adv-x="1351" d="M82 -10h1188v-103h-1188v103z" />
<glyph unicode="`" horiz-adv-x="624" d="M20 1604l21 79l563 -151l-20 -78z" />
<glyph unicode="a" horiz-adv-x="851" d="M82 305q0 92 31 166.5t81 123.5t110 90.5t120.5 76.5t110.5 71t81 85t31 108q0 118 -52 181t-146 63q-220 0 -220 -283v-61h-102v20q0 68 7 122.5t28 109.5t55.5 91.5t93.5 59.5t138 23q301 0 301 -365v-797q0 -98 20 -190h-102q-21 89 -21 150q-80 -170 -282 -170 q-131 0 -207 83.5t-76 241.5zM184 305q0 -107 49 -175.5t160 -68.5q61 0 113 31t81 73.5t44.5 81t15.5 60.5v527q-10 -31 -49 -64.5t-90 -61.5t-108.5 -68.5t-105 -83.5t-79 -109t-31.5 -142z" />
<glyph unicode="b" horiz-adv-x="831" d="M82 0q10 32 14.5 64t5 56t0.5 77v1441h103v-456q76 170 260 170q144 0 214.5 -96.5t70.5 -309.5v-561q0 -213 -70.5 -309t-214.5 -96q-184 0 -260 170q0 -28 -7 -77.5t-14 -72.5h-102zM205 365q0 -55 13.5 -106.5t41 -97t76 -73t110.5 -27.5q201 0 201 283v643 q0 283 -201 283q-62 0 -110.5 -27.5t-76 -72.5t-41 -96.5t-13.5 -106.5v-602z" />
<glyph unicode="c" d="M82 467v397q0 255 74.5 371.5t255.5 116.5q180 0 248.5 -115t68.5 -373v-55h-102v117q0 83 -10.5 144t-28 99.5t-45.5 61t-59 31t-72 8.5q-52 0 -90.5 -14.5t-71 -51t-49.5 -106t-17 -172.5v-520q0 -103 17 -173t49.5 -106.5t71 -51t90.5 -14.5t88.5 14.5t66.5 51.5 t45 106.5t15 172.5v116h102v-55q0 -258 -68.5 -372.5t-248.5 -114.5q-181 0 -255.5 116t-74.5 371z" />
<glyph unicode="d" horiz-adv-x="831" d="M82 385v561q0 213 70.5 309.5t214.5 96.5q184 0 260 -170v456h102v-1441q0 -73 3.5 -112t17.5 -85h-103q-7 22 -13.5 71.5t-6.5 78.5q-76 -170 -260 -170q-144 0 -214.5 96t-70.5 309zM184 344q0 -283 201 -283q62 0 110.5 27.5t76 73t41.5 97t14 106.5v602 q0 55 -14 106.5t-41.5 96.5t-76 72.5t-110.5 27.5q-201 0 -201 -283v-643z" />
<glyph unicode="e" d="M82 467v397q0 255 74.5 371.5t255.5 116.5q180 0 248.5 -115t68.5 -373v-200h-545v-258q0 -103 17 -173t49.5 -106.5t71 -51t90.5 -14.5t88.5 14.5t66.5 51.5t45 106.5t15 172.5v116h102v-55q0 -258 -68.5 -372.5t-248.5 -114.5q-181 0 -255.5 116t-74.5 371zM184 745 h443v181q0 83 -10.5 144t-28 99.5t-45.5 61t-59 31t-72 8.5q-52 0 -90.5 -14.5t-71 -51t-49.5 -106t-17 -172.5v-181z" />
<glyph unicode="f" horiz-adv-x="675" d="M82 1249v82h164v68q0 41 3.5 73t15 69t32 61.5t57.5 40.5t88 16q70 0 152 -21v-82q-79 21 -127 21q-41 0 -65.5 -11t-36 -37t-14.5 -53.5t-3 -76.5v-88q51 20 246 20v-82h-246v-1249h-102v1249h-164z" />
<glyph unicode="g" d="M82 385v561q0 213 70.5 309.5t214.5 96.5q184 0 260 -170v149h102v-1294q0 -87 -8 -150t-32.5 -122t-66.5 -95.5t-111.5 -58t-166.5 -21.5h-221v82h242q81 0 134 25t80.5 76t37.5 112.5t10 151.5v113q-76 -170 -260 -170q-144 0 -214.5 96t-70.5 309zM184 344 q0 -283 201 -283q62 0 110.5 27.5t76 73t41.5 97t14 106.5v602q0 55 -14 106.5t-41.5 96.5t-76 72.5t-110.5 27.5q-201 0 -201 -283v-643z" />
<glyph unicode="h" d="M82 0v1638h102v-456q76 170 260 170q144 0 214.5 -96.5t70.5 -309.5v-946h-102v987q0 283 -201 283q-62 0 -110.5 -27.5t-76 -72.5t-41.5 -96.5t-14 -106.5v-967h-102z" />
<glyph unicode="i" horiz-adv-x="266" d="M61 1587q0 29 21.5 50.5t50.5 21.5t50.5 -21.5t21.5 -50.5t-21.5 -50t-50.5 -21t-50.5 21t-21.5 50zM82 0v1331h102v-1331h-102z" />
<glyph unicode="j" horiz-adv-x="552" d="M61 -328h127q30 0 54 6t41.5 15t31.5 27t23 33.5t15 44.5t9 49t4.5 58.5t2 62t0.5 69.5v1294h102v-1294q0 -76 -3 -127t-12 -107t-28 -91t-50 -65t-78.5 -43.5t-111.5 -13.5h-127v82zM348 1585q0 31 21.5 52.5t50.5 21.5t50.5 -21.5t21.5 -52.5q0 -28 -21.5 -48.5 t-50.5 -20.5t-50.5 20.5t-21.5 48.5z" />
<glyph unicode="k" horiz-adv-x="856" d="M82 0v1638h102v-1638h-102zM184 666l467 665h123l-469 -665l469 -666h-123z" />
<glyph unicode="l" horiz-adv-x="266" d="M82 0v1638h102v-1638h-102z" />
<glyph unicode="m" horiz-adv-x="1232" d="M82 0v1331h102v-149q60 170 240 170q98 0 150.5 -44t74.5 -143q43 92 103.5 139.5t154.5 47.5q138 0 191 -92t53 -314v-946h-102v987q0 65 -6.5 112.5t-23.5 88t-49.5 61.5t-80.5 21q-73 0 -125 -48t-74 -114.5t-22 -140.5v-967h-103v987q0 65 -6.5 112.5t-23 88 t-49 61.5t-80.5 21q-73 0 -125 -48t-74.5 -114.5t-22.5 -140.5v-967h-102z" />
<glyph unicode="n" d="M82 0v1331h102v-149q76 170 260 170q144 0 214.5 -96.5t70.5 -309.5v-946h-102v987q0 283 -201 283q-62 0 -110.5 -27.5t-76 -72.5t-41.5 -96.5t-14 -106.5v-967h-102z" />
<glyph unicode="o" d="M82 467v397q0 256 71.5 372t252.5 116q180 0 251.5 -115.5t71.5 -372.5v-397q0 -256 -71.5 -371.5t-251.5 -115.5q-181 0 -252.5 115.5t-71.5 371.5zM184 406q0 -103 16 -173t47.5 -106.5t69 -51t89.5 -14.5t89.5 14.5t68.5 51t47 106.5t16 173v520q0 103 -16 172.5 t-47.5 106t-69 51t-88.5 14.5q-41 0 -73 -8.5t-61 -31.5t-47.5 -60.5t-29.5 -99t-11 -144.5v-520z" />
<glyph unicode="p" d="M82 -410v1741h102v-149q76 170 260 170q144 0 214.5 -96.5t70.5 -309.5v-561q0 -213 -70.5 -309t-214.5 -96q-184 0 -260 170v-560h-102zM184 365q0 -55 14 -106.5t41.5 -97t76 -73t110.5 -27.5q201 0 201 283v643q0 283 -201 283q-62 0 -110.5 -27.5t-76 -72.5 t-41.5 -96.5t-14 -106.5v-602z" />
<glyph unicode="q" d="M82 385v561q0 213 70.5 309.5t214.5 96.5q184 0 260 -170v149h102v-1741h-102v560q-76 -170 -260 -170q-144 0 -214.5 96t-70.5 309zM184 344q0 -283 201 -283q62 0 110.5 27.5t76 73t41.5 97t14 106.5v602q0 55 -14 106.5t-41.5 96.5t-76 72.5t-110.5 27.5 q-201 0 -201 -283v-643z" />
<glyph unicode="r" horiz-adv-x="770" d="M82 0v1331h102v-180q92 201 279 201q55 0 94.5 -17t65 -47t40 -79t20 -106t5.5 -136v-41h-102v82q0 50 -1.5 81.5t-9.5 70t-23 59.5t-42.5 36t-67.5 15q-73 0 -134.5 -65t-92.5 -150t-31 -160v-895h-102z" />
<glyph unicode="s" d="M82 426h102q0 -143 23 -221.5t74 -111t143 -32.5q203 0 203 232q0 30 -3 56.5t-13.5 52t-17.5 43.5t-28.5 43.5t-32 38.5t-43 41.5t-46.5 40.5t-55 46q-20 17 -30 25q-12 10 -54.5 43.5t-60.5 49.5t-51 52.5t-48.5 67t-28.5 77.5t-13 99q0 35 6.5 69.5t26.5 74.5t52 69.5 t88.5 49.5t130.5 20q94 0 158.5 -29.5t100 -88t50 -132.5t14.5 -176h-102q0 89 -10.5 152t-28 100t-47 58t-60 27.5t-75.5 6.5q-87 0 -144 -51t-57 -150q0 -42 9.5 -77t23 -59.5t40.5 -52t48 -44.5t61.5 -48.5t65.5 -52.5q118 -100 157 -143q107 -117 118 -262q1 -18 1 -37 q0 -44 -3.5 -77.5t-21 -81t-48 -78.5t-90 -53.5t-142.5 -22.5q-86 0 -146.5 19.5t-98.5 53.5t-59.5 92t-29.5 123t-8 158z" />
<glyph unicode="t" horiz-adv-x="675" d="M82 1249v82q91 26 148.5 111.5t56.5 195.5h102q0 -111 -52.5 -197.5t-111.5 -109.5h369v-82h-246v-803v-53v-77.5t2.5 -67.5t8 -57t16.5 -46.5t27.5 -34.5t40.5 -21t57 -7h94v-82h-86q-48 0 -86 7t-65.5 26t-46.5 36.5t-31 54.5t-19 62.5t-10 78t-3.5 84t-0.5 97.5v803 h-164z" />
<glyph unicode="u" d="M82 385v946h102v-987q0 -283 201 -283q62 0 110.5 27.5t76 73t41.5 97t14 106.5v966h102v-1134q0 -73 3.5 -112t17.5 -85h-103q-7 22 -13.5 71.5t-6.5 78.5q-76 -170 -260 -170q-144 0 -214.5 96t-70.5 309z" />
<glyph unicode="v" horiz-adv-x="821" d="M82 1331h102l228 -1159l225 1159h102l-266 -1331h-125z" />
<glyph unicode="w" horiz-adv-x="1542" d="M82 0v1331h102v-1116l531 1116h106v-1116l533 1116h106l-635 -1331h-106v1116l-531 -1116h-106z" />
<glyph unicode="x" horiz-adv-x="937" d="M82 0l330 666l-330 665h113l274 -565l274 565h113l-330 -665l330 -666h-113l-274 565l-274 -565h-113z" />
<glyph unicode="y" d="M82 385v946h102v-987q0 -283 201 -283q62 0 110.5 27.5t76 73t41.5 97t14 106.5v966h102v-1294q0 -87 -8 -150t-32.5 -122t-66.5 -95.5t-111.5 -58t-166.5 -21.5h-221v82h242q81 0 134 25t80.5 76t37.5 112.5t10 151.5v113q-76 -170 -260 -170q-144 0 -214.5 96 t-70.5 309z" />
<glyph unicode="z" horiz-adv-x="747" d="M82 0v82l481 1167h-481v82h584v-82l-482 -1167h482v-82h-584z" />
<glyph unicode="{" horiz-adv-x="430" d="M82 731v176q44 0 62.5 41.5t17.5 108t-8 146.5t-7 160t13.5 146.5t60.5 108t127 41.5v-82q-54 0 -78.5 -48.5t-23.5 -122.5t5.5 -164l8.5 -170t-14 -143.5t-62 -82.5v-53q44 -19 62 -82.5t14 -144t-8.5 -170.5t-5.5 -164t23.5 -122.5t78.5 -48.5v-81q-80 0 -127 41.5 t-60.5 107.5t-13.5 146t7 160.5t8 146.5t-17.5 107.5t-62.5 41.5z" />
<glyph unicode="|" horiz-adv-x="266" d="M82 -20v1679h102v-1679h-102z" />
<glyph unicode="}" horiz-adv-x="430" d="M82 -20v81q54 0 78.5 48.5t23.5 122.5t-5.5 164t-8.5 170.5t14 144t62 82.5v53q-44 19 -62 82.5t-14 143.5l8.5 170t5.5 164t-23.5 122.5t-78.5 48.5v82q80 0 127 -41.5t60.5 -108t13.5 -146.5t-7 -160t-8 -146.5t17.5 -108t62.5 -41.5v-176q-44 0 -62.5 -41.5 t-17.5 -107.5t8 -146t7 -160.5t-13.5 -146.5t-60.5 -107.5t-127 -41.5z" />
<glyph unicode="~" horiz-adv-x="1003" d="M82 594q0 69 19.5 116.5t53 69.5t65 30.5t67.5 8.5q55 0 107 -19t92 -46t77 -54t77 -46t77 -19q47 0 74.5 31.5t27.5 91.5h103q0 -56 -14 -98t-34.5 -66t-49.5 -38.5t-54 -19t-53 -4.5q-67 0 -131.5 29t-107 63.5t-94.5 63.5t-97 29q-47 0 -75 -31.5t-28 -91.5h-102z" />
<glyph unicode="&#xa1;" horiz-adv-x="307" d="M82 1280q0 32 21 52t51 20t50.5 -20t20.5 -52t-20.5 -52t-50.5 -20t-51 20t-21 52zM100 819h103l2 -1126h-103z" />
<glyph unicode="&#xa2;" horiz-adv-x="933" d="M82 819q0 218 91.5 351t242.5 157v332h102v-330q153 -15 243.5 -131.5t90.5 -292.5h-102q0 144 -64.5 226t-167.5 96v-815q104 14 168 95.5t64 225.5h102q0 -176 -90.5 -292.5t-243.5 -131.5v-329h-102v331q-151 24 -242.5 157t-91.5 351zM184 819q0 -183 64.5 -282 t167.5 -121v807q-103 -22 -167.5 -121.5t-64.5 -282.5z" />
<glyph unicode="&#xa3;" horiz-adv-x="905" d="M82 0v102q62 42 98 97.5t47.5 125t9.5 137t-16 156.5h-139v103h121q-4 19 -15 76t-15.5 83t-13 77t-12.5 85t-7 78.5t-3 83.5q0 123 27.5 214t76 142t107 75t129.5 24t130.5 -26.5t109.5 -83.5t78 -158.5t28 -239.5h-102q0 405 -244 405q-55 0 -96 -17t-74 -56.5 t-50 -109.5t-17 -169q0 -40 3.5 -85t6.5 -76t12 -87t12.5 -75t16 -84.5t14.5 -75.5h367v-103h-348q14 -89 16 -157t-9.5 -137t-48 -124.5t-98.5 -97.5h639v-102h-741z" />
<glyph unicode="&#xa4;" horiz-adv-x="806" d="M82 385l113 154q-70 112 -70 280q0 169 70 281l-113 153l72 72l108 -151q59 47 141 47q81 0 142 -45l108 149l72 -72l-113 -155q70 -112 70 -279q0 -168 -70 -280l113 -154l-72 -72l-108 152q-59 -47 -142 -47q-82 0 -141 47l-108 -152zM227 819q0 -85 18 -150.5 t58.5 -107t99.5 -41.5q88 0 132.5 84t44.5 215t-44.5 215t-132.5 84q-59 0 -99.5 -41.5t-58.5 -107t-18 -150.5z" />
<glyph unicode="&#xa5;" horiz-adv-x="1060" d="M82 1638h113l335 -919l336 919h113l-369 -989h240v-102h-268v-82h268v-103h-268v-362h-103v362h-268v103h268v82h-268v102h240z" />
<glyph unicode="&#xa6;" horiz-adv-x="266" d="M82 -20v655h102v-655h-102zM82 1004v655h102v-655h-102z" />
<glyph unicode="&#xa7;" horiz-adv-x="872" d="M82 739q0 90 45 132.5t125 54.5q-78 44 -114 102t-36 150q0 121 79 201.5t245 80.5q344 0 344 -405h-102q0 66 -10 116t-35 94.5t-75 68.5t-122 24q-125 0 -173 -48t-48 -132q0 -98 70.5 -153t216.5 -97q167 -48 233 -95.5t66 -132.5q0 -90 -45 -132t-125 -54 q78 -44 113.5 -102t35.5 -150q0 -121 -79 -201.5t-245 -80.5q-344 0 -344 405h103q0 -66 10 -116t35 -94.5t74.5 -68.5t121.5 -24q125 0 173.5 48t48.5 132q0 98 -70.5 153t-216.5 97q-167 48 -233 95t-66 132zM184 762q0 -58 48 -89t190 -77h2q64 -21 112.5 -26.5t76.5 2 t45.5 25t23.5 37t6 44.5q0 58 -47.5 89t-189.5 77h-2q-64 21 -112.5 26.5t-76.5 -2t-46 -25t-24 -37.5t-6 -44z" />
<glyph unicode="&#xa8;" horiz-adv-x="542" d="M20 1577q0 34 21 54t51 20q29 0 50.5 -20t21.5 -54q0 -30 -21.5 -50t-50.5 -20q-30 0 -51 20t-21 50zM379 1577q0 34 21 54t51 20q29 0 50 -20t21 -54q0 -30 -21 -50t-50 -20q-30 0 -51 20t-21 50z" />
<glyph unicode="&#xa9;" horiz-adv-x="1359" d="M82 819q0 -839 598 -839t598 839q0 840 -598 840t-598 -840zM184 819q0 131 15 238.5t50.5 202t91.5 158.5t142 101t197 37t197 -37t142 -101t91.5 -158.5t50.5 -202t15 -238.5t-15 -238.5t-50.5 -202t-91.5 -158.5t-142 -101t-197 -37t-197 37t-142 101t-91.5 158.5 t-50.5 202t-15 238.5zM336 819q0 219 93 345t261 126q100 0 177.5 -53.5t117 -140.5t39.5 -191h-102q0 131 -66.5 207t-165.5 76q-118 0 -185 -90t-67 -279t67 -278.5t185 -89.5q100 0 166 75.5t66 206.5h102q0 -104 -39.5 -191t-117 -140.5t-177.5 -53.5q-168 0 -261 126 t-93 345z" />
<glyph unicode="&#xab;" horiz-adv-x="755" d="M82 635v82l305 325v-122l-227 -244l227 -244v-123zM369 635v82l305 325v-122l-228 -244l228 -244v-123z" />
<glyph unicode="&#xac;" horiz-adv-x="1003" d="M82 625v102h840v-387h-103v285h-737z" />
<glyph unicode="&#xad;" horiz-adv-x="1003" d="M82 625v102h840v-102h-840z" />
<glyph unicode="&#xae;" horiz-adv-x="950" d="M82 1147q0 -50 4.5 -97t16 -99.5t30 -96.5t49.5 -85.5t71 -70.5t96.5 -46t125.5 -17t125.5 17t96.5 46t71 70.5t49.5 85.5t30 96.5t16 99.5t4.5 97t-4.5 97t-16 99.5t-30 96.5t-49.5 85.5t-71 70.5t-96.5 46t-125.5 17t-125.5 -17t-96.5 -46t-71 -70.5t-49.5 -85.5 t-30 -96.5t-16 -99.5t-4.5 -97zM184 1147q0 54 5.5 102.5t23.5 107t48.5 100.5t85.5 70.5t128 28.5t128 -28.5t85.5 -70.5t48.5 -100.5t23.5 -107t5.5 -102.5q0 -44 -4 -84.5t-14.5 -90t-31.5 -89t-51.5 -74t-79 -53.5t-110.5 -19t-110.5 19t-79 53.5t-51.5 74t-31.5 89 t-14.5 90t-4 84.5zM326 926v454h143q99 0 141.5 -41.5t42.5 -121.5q0 -100 -63 -138l61 -153h-110l-52 127h-61v-127h-102zM428 1155h41q43 0 62.5 14.5t19.5 47.5t-19.5 47t-62.5 14h-41v-123z" />
<glyph unicode="&#xaf;" horiz-adv-x="624" d="M20 1528v82h584v-82h-584z" />
<glyph unicode="&#xb0;" horiz-adv-x="663" d="M82 1352q0 -61 13.5 -114t41.5 -98t78 -70.5t117 -25.5t117 25.5t78 70.5t41.5 98t13.5 114t-13.5 114t-41.5 97.5t-78 70t-117 25.5t-117 -25.5t-78 -70t-41.5 -97.5t-13.5 -114zM184 1352q0 204 148 204q147 0 147 -204q0 -205 -147 -205q-148 0 -148 205z" />
<glyph unicode="&#xb1;" horiz-adv-x="1003" d="M82 246v102h369v277h-369v102h369v369h102v-369h369v-102h-369v-277h369v-102h-840z" />
<glyph unicode="&#xb4;" horiz-adv-x="624" d="M20 1532l564 151l20 -79l-563 -150z" />
<glyph unicode="&#xb6;" horiz-adv-x="743" d="M82 1282q0 113 16 184t52.5 108.5t83 50.5t120.5 13h103v-1638h-103v926q-74 0 -120.5 13t-83 50.5t-52.5 108.5t-16 184zM559 0v1638h103v-1638h-103z" />
<glyph unicode="&#xb7;" horiz-adv-x="307" d="M82 664q0 31 21 51t51 20t50.5 -19.5t20.5 -51.5t-20.5 -52t-50.5 -20t-51 20t-21 52z" />
<glyph unicode="&#xb8;" horiz-adv-x="411" d="M20 -424l3 82q147 0 206.5 15.5t59.5 66.5q0 27 -13 42t-44.5 19.5t-69 2t-99.5 -10.5l31 207h103l-33 -137q227 37 227 -123q0 -34 -14 -60.5t-33.5 -43.5t-54.5 -29t-62 -18t-72 -9t-68.5 -3.5t-66.5 -0.5z" />
<glyph unicode="&#xbb;" horiz-adv-x="755" d="M82 309v123l227 244l-227 244v122l305 -325v-82zM369 309v123l227 244l-227 244v122l305 -325v-82z" />
<glyph unicode="&#xbf;" d="M82 4q0 73 18 136t47.5 110t64.5 92.5t70 93t64.5 100t47.5 125t18 158.5h102q0 -92 -18 -172t-47.5 -137.5t-64.5 -108.5t-70 -96t-64.5 -89t-47.5 -98.5t-18 -113.5q0 -229 197 -229q84 0 136 32.5t81 118.5t29 234h102q0 -239 -81 -363.5t-267 -124.5q-79 0 -138 27 t-93.5 74t-51 105t-16.5 126zM391 1280q0 32 21 52t51 20t51 -20t21 -52t-21 -52t-51 -20t-51 20t-21 52z" />
<glyph unicode="&#xc0;" horiz-adv-x="862" d="M82 0l272 1638h154l272 -1638h-102l-64 381h-366l-64 -381h-102zM139 1911l21 80l563 -152l-21 -78zM264 483h334l-166 1002z" />
<glyph unicode="&#xc1;" horiz-adv-x="862" d="M82 0l272 1638h154l272 -1638h-102l-64 381h-366l-64 -381h-102zM139 1839l563 152l21 -80l-563 -150zM264 483h334l-166 1002z" />
<glyph unicode="&#xc2;" horiz-adv-x="862" d="M82 0l272 1638h154l272 -1638h-102l-64 381h-366l-64 -381h-102zM139 1761l223 230h144l217 -230h-133l-156 168l-162 -168h-133zM264 483h334l-166 1002z" />
<glyph unicode="&#xc3;" horiz-adv-x="862" d="M82 0l272 1638h154l272 -1638h-102l-64 381h-366l-64 -381h-102zM139 1786q0 205 164 205q44 0 77.5 -15t53.5 -37t37 -44t37.5 -37t44.5 -15q68 0 68 123h102q0 -205 -164 -205q-44 0 -77.5 15t-53.5 37t-37 44t-37.5 37t-44.5 15q-67 0 -67 -123h-103zM264 483h334 l-166 1002z" />
<glyph unicode="&#xc4;" horiz-adv-x="862" d="M82 0l272 1638h154l272 -1638h-102l-64 381h-366l-64 -381h-102zM180 1884q0 34 21 54t51 20q29 0 50.5 -20t21.5 -54q0 -30 -21.5 -49.5t-50.5 -19.5q-30 0 -51 19.5t-21 49.5zM264 483h334l-166 1002zM539 1884q0 34 20.5 54t50.5 20q29 0 50.5 -20t21.5 -54 q0 -30 -21.5 -49.5t-50.5 -19.5q-30 0 -50.5 19.5t-20.5 49.5z" />
<glyph unicode="&#xc5;" horiz-adv-x="862" d="M82 0l272 1638h154l272 -1638h-102l-64 381h-366l-64 -381h-102zM264 483h334l-166 1002zM297 1896q0 58 40 97t95 39t95 -39t40 -97q0 -57 -40 -96t-95 -39t-95 39t-40 96zM379 1896q0 -24 14.5 -38.5t38.5 -14.5t38.5 14.5t14.5 38.5t-14.5 39t-38.5 15t-38.5 -15 t-14.5 -39z" />
<glyph unicode="&#xc6;" horiz-adv-x="1187" d="M82 0l283 1638h741v-102h-358v-666h358v-102h-358v-666h358v-102h-461v381h-395l-66 -381h-102zM268 483h377v1053h-196z" />
<glyph unicode="&#xc7;" d="M82 426v786q0 244 75.5 345.5t248.5 101.5t248 -101.5t75 -345.5v-239h-102v260q0 183 -47 253t-174 70t-174.5 -70t-47.5 -253v-827q0 -183 47.5 -253.5t174.5 -70.5t174 70.5t47 253.5v260h102v-240q0 -227 -65 -329.5t-211 -114.5l-29 -119q227 37 227 -123 q0 -34 -14 -60.5t-33.5 -43.5t-54 -29t-62 -18t-72 -9t-68 -3.5t-66.5 -0.5l2 82q147 0 206.5 15.5t59.5 66.5q0 52 -56.5 62t-168.5 -9l28 189q-142 14 -206 116.5t-64 327.5z" />
<glyph unicode="&#xc8;" horiz-adv-x="624" d="M20 1911l21 80l563 -152l-20 -78zM82 0v1638h461v-102h-359v-666h359v-102h-359v-666h359v-102h-461z" />
<glyph unicode="&#xc9;" horiz-adv-x="624" d="M20 1839l564 152l20 -80l-563 -150zM82 0v1638h461v-102h-359v-666h359v-102h-359v-666h359v-102h-461z" />
<glyph unicode="&#xca;" horiz-adv-x="624" d="M20 1761l224 230h143l217 -230h-133l-156 168l-161 -168h-134zM82 0v1638h461v-102h-359v-666h359v-102h-359v-666h359v-102h-461z" />
<glyph unicode="&#xcb;" horiz-adv-x="624" d="M61 1884q0 34 21 54t51 20q29 0 50.5 -20t21.5 -54q0 -30 -21.5 -49.5t-50.5 -19.5q-30 0 -51 19.5t-21 49.5zM82 0v1638h461v-102h-359v-666h359v-102h-359v-666h359v-102h-461zM420 1884q0 34 21 54t51 20q29 0 50 -20t21 -54q0 -30 -21 -49.5t-50 -19.5 q-30 0 -51 19.5t-21 49.5z" />
<glyph unicode="&#xcc;" horiz-adv-x="266" d="M-160 1911l21 80l563 -152l-21 -78zM82 0v1638h102v-1638h-102z" />
<glyph unicode="&#xcd;" horiz-adv-x="266" d="M-160 1839l563 152l21 -80l-563 -150zM82 0v1638h102v-1638h-102z" />
<glyph unicode="&#xce;" horiz-adv-x="266" d="M-160 1761l223 230h144l217 -230h-133l-156 168l-162 -168h-133zM82 0v1638h102v-1638h-102z" />
<glyph unicode="&#xcf;" horiz-adv-x="266" d="M-119 1884q0 34 21 54t51 20q29 0 50.5 -20t21.5 -54q0 -30 -21.5 -49.5t-50.5 -19.5q-30 0 -51 19.5t-21 49.5zM82 0v1638h102v-1638h-102zM240 1884q0 34 20.5 54t50.5 20q29 0 50.5 -20t21.5 -54q0 -30 -21.5 -49.5t-50.5 -19.5q-30 0 -50.5 19.5t-20.5 49.5z" />
<glyph unicode="&#xd0;" horiz-adv-x="933" d="M0 778v82h201v778h184q73 0 124 -3.5t103.5 -13.5t86.5 -29t65.5 -50.5t49.5 -76.5t28 -108t10 -145v-786q0 -82 -10 -145t-28 -108t-49.5 -76.5t-65.5 -50.5t-86.5 -29t-103.5 -13.5t-124 -3.5h-184v778h-201zM303 102h82q76 0 126 4t94 17t69 34.5t43.5 58.5t25.5 87.5 t7 122.5v786q0 72 -7 122.5t-25.5 87.5t-43.5 58.5t-69 34.5t-94 17t-126 4h-82v-676h281v-82h-281v-676z" />
<glyph unicode="&#xd1;" horiz-adv-x="919" d="M82 0v1638h102l551 -1372v1372h103v-1638h-103l-551 1372v-1372h-102zM168 1786q0 205 164 205q44 0 77.5 -15t53.5 -37t37 -44t37.5 -37t44.5 -15q67 0 67 123h103q0 -205 -164 -205q-44 0 -77.5 15t-53.5 37t-37 44t-37.5 37t-44.5 15q-68 0 -68 -123h-102z" />
<glyph unicode="&#xd2;" d="M82 426v786q0 244 75.5 345.5t248.5 101.5t248 -101.5t75 -345.5v-786q0 -244 -75 -345t-248 -101t-248.5 101t-75.5 345zM113 1911l20 80l563 -152l-20 -78zM184 406q0 -183 47.5 -253.5t174.5 -70.5t174 70.5t47 253.5v827q0 183 -47 253t-174 70t-174.5 -70 t-47.5 -253v-827z" />
<glyph unicode="&#xd3;" d="M82 426v786q0 244 75.5 345.5t248.5 101.5t248 -101.5t75 -345.5v-786q0 -244 -75 -345t-248 -101t-248.5 101t-75.5 345zM113 1839l563 152l20 -80l-563 -150zM184 406q0 -183 47.5 -253.5t174.5 -70.5t174 70.5t47 253.5v827q0 183 -47 253t-174 70t-174.5 -70 t-47.5 -253v-827z" />
<glyph unicode="&#xd4;" d="M82 426v786q0 244 75.5 345.5t248.5 101.5t248 -101.5t75 -345.5v-786q0 -244 -75 -345t-248 -101t-248.5 101t-75.5 345zM113 1761l223 230h143l217 -230h-133l-155 168l-162 -168h-133zM184 406q0 -183 47.5 -253.5t174.5 -70.5t174 70.5t47 253.5v827q0 183 -47 253 t-174 70t-174.5 -70t-47.5 -253v-827z" />
<glyph unicode="&#xd5;" d="M82 426v786q0 244 75.5 345.5t248.5 101.5t248 -101.5t75 -345.5v-786q0 -244 -75 -345t-248 -101t-248.5 101t-75.5 345zM113 1786q0 205 163 205q44 0 77.5 -15t53.5 -37t37 -44t37.5 -37t44.5 -15q68 0 68 123h102q0 -205 -164 -205q-44 0 -77.5 15t-53.5 37t-36.5 44 t-37 37t-44.5 15q-68 0 -68 -123h-102zM184 406q0 -183 47.5 -253.5t174.5 -70.5t174 70.5t47 253.5v827q0 183 -47 253t-174 70t-174.5 -70t-47.5 -253v-827z" />
<glyph unicode="&#xd6;" d="M82 426v786q0 244 75.5 345.5t248.5 101.5t248 -101.5t75 -345.5v-786q0 -244 -75 -345t-248 -101t-248.5 101t-75.5 345zM154 1884q0 34 20.5 54t50.5 20q29 0 50.5 -20t21.5 -54q0 -30 -21.5 -49.5t-50.5 -19.5q-30 0 -50.5 19.5t-20.5 49.5zM184 406 q0 -183 47.5 -253.5t174.5 -70.5t174 70.5t47 253.5v827q0 183 -47 253t-174 70t-174.5 -70t-47.5 -253v-827zM512 1884q0 34 21 54t51 20q29 0 50 -20t21 -54q0 -30 -21 -49.5t-50 -19.5q-30 0 -51 19.5t-21 49.5z" />
<glyph unicode="&#xd7;" horiz-adv-x="917" d="M125 371l262 262l-260 260l72 74l262 -260l258 258l74 -72l-261 -260l261 -260l-72 -74l-260 262l-262 -262z" />
<glyph unicode="&#xd8;" d="M47 -20l66 184q-33 95 -33 262v786q0 244 75 345.5t248 101.5q149 0 226 -74l26 74h109l-68 -189q31 -102 31 -258v-786q0 -244 -75.5 -345t-248.5 -101q-150 0 -221 71l-26 -71h-109zM182 354l406 1116q-47 86 -185 86q-127 0 -174 -70t-47 -253v-827v-52zM223 164 q46 -82 180 -82q127 0 174.5 70.5t47.5 253.5v827v41z" />
<glyph unicode="&#xd9;" d="M82 426v1212h102v-1232q0 -183 47.5 -253.5t174.5 -70.5t174 70.5t47 253.5v1232h102v-1212q0 -244 -75 -345t-248 -101t-248.5 101t-75.5 345zM113 1911l20 80l563 -152l-20 -78z" />
<glyph unicode="&#xda;" d="M82 426v1212h102v-1232q0 -183 47.5 -253.5t174.5 -70.5t174 70.5t47 253.5v1232h102v-1212q0 -244 -75 -345t-248 -101t-248.5 101t-75.5 345zM113 1839l563 152l20 -80l-563 -150z" />
<glyph unicode="&#xdb;" d="M82 426v1212h102v-1232q0 -183 47.5 -253.5t174.5 -70.5t174 70.5t47 253.5v1232h102v-1212q0 -244 -75 -345t-248 -101t-248.5 101t-75.5 345zM113 1761l223 230h143l217 -230h-133l-155 168l-162 -168h-133z" />
<glyph unicode="&#xdc;" d="M82 426v1212h102v-1232q0 -183 47.5 -253.5t174.5 -70.5t174 70.5t47 253.5v1232h102v-1212q0 -244 -75 -345t-248 -101t-248.5 101t-75.5 345zM154 1884q0 34 20.5 54t50.5 20q29 0 50.5 -20t21.5 -54q0 -30 -21.5 -49.5t-50.5 -19.5q-30 0 -50.5 19.5t-20.5 49.5z M512 1884q0 34 21 54t51 20q29 0 50 -20t21 -54q0 -30 -21 -49.5t-50 -19.5q-30 0 -51 19.5t-21 49.5z" />
<glyph unicode="&#xdd;" horiz-adv-x="937" d="M82 1638h106l281 -905l281 905h106l-336 -1065v-573h-102v573zM176 1839l563 152l21 -80l-563 -150z" />
<glyph unicode="&#xde;" horiz-adv-x="815" d="M82 0v1638h102v-307q93 0 165.5 -6t128.5 -21t96.5 -33.5t69 -49.5t46 -64t27 -81.5t13 -96.5t3.5 -115v-84q0 -66 -3.5 -113.5t-13 -95.5t-27 -80.5t-46 -63.5t-69 -50t-96.5 -34t-128.5 -22t-165.5 -8v-313h-102zM184 416q104 0 174 6t122 24t80 41.5t45 68.5 t21.5 94.5t4.5 129.5v84q0 60 -2.5 100.5t-10.5 80t-21.5 64t-37 47.5t-55.5 35t-79 21.5t-105 13t-136 3.5v-813z" />
<glyph unicode="&#xdf;" horiz-adv-x="851" d="M82 0v1151q0 100 7 172.5t28 139t57 107.5t95 65t141 24q75 0 132 -23t92 -60.5t57 -92.5t30 -112.5t8 -127.5q0 -298 -158 -389q199 -94 199 -438q0 -226 -79 -321t-271 -95h-148v82h148q48 0 86.5 12.5t64 32t44 50t28.5 61t16 71.5t7.5 73.5t1.5 74.5q0 66 -13.5 124 t-44 112t-90 86t-141.5 32h-107v82h107q66 0 114 20t73.5 49t39.5 74t17.5 81t3.5 85q0 205 -49 290t-168 85q-82 0 -130.5 -39t-72 -132t-23.5 -255v-1151h-102z" />
<glyph unicode="&#xe0;" horiz-adv-x="851" d="M82 305q0 92 31 166.5t81 123.5t110 90.5t120.5 76.5t110.5 71t81 85t31 108q0 118 -52 181t-146 63q-220 0 -220 -283v-61h-102v20q0 68 7 122.5t28 109.5t55.5 91.5t93.5 59.5t138 23q301 0 301 -365v-797q0 -98 20 -190h-102q-21 89 -21 150q-80 -170 -282 -170 q-131 0 -207 83.5t-76 241.5zM133 1604l21 79l563 -151l-21 -78zM184 305q0 -107 49 -175.5t160 -68.5q61 0 113 31t81 73.5t44.5 81t15.5 60.5v527q-10 -31 -49 -64.5t-90 -61.5t-108.5 -68.5t-105 -83.5t-79 -109t-31.5 -142z" />
<glyph unicode="&#xe1;" horiz-adv-x="851" d="M82 305q0 92 31 166.5t81 123.5t110 90.5t120.5 76.5t110.5 71t81 85t31 108q0 118 -52 181t-146 63q-220 0 -220 -283v-61h-102v20q0 68 7 122.5t28 109.5t55.5 91.5t93.5 59.5t138 23q301 0 301 -365v-797q0 -98 20 -190h-102q-21 89 -21 150q-80 -170 -282 -170 q-131 0 -207 83.5t-76 241.5zM133 1532l563 151l21 -79l-563 -150zM184 305q0 -107 49 -175.5t160 -68.5q61 0 113 31t81 73.5t44.5 81t15.5 60.5v527q-10 -31 -49 -64.5t-90 -61.5t-108.5 -68.5t-105 -83.5t-79 -109t-31.5 -142z" />
<glyph unicode="&#xe2;" horiz-adv-x="851" d="M82 305q0 92 31 166.5t81 123.5t110 90.5t120.5 76.5t110.5 71t81 85t31 108q0 118 -52 181t-146 63q-220 0 -220 -283v-61h-102v20q0 68 7 122.5t28 109.5t55.5 91.5t93.5 59.5t138 23q301 0 301 -365v-797q0 -98 20 -190h-102q-21 89 -21 150q-80 -170 -282 -170 q-131 0 -207 83.5t-76 241.5zM133 1454l223 229h144l217 -229h-133l-156 168l-162 -168h-133zM184 305q0 -107 49 -175.5t160 -68.5q61 0 113 31t81 73.5t44.5 81t15.5 60.5v527q-10 -31 -49 -64.5t-90 -61.5t-108.5 -68.5t-105 -83.5t-79 -109t-31.5 -142z" />
<glyph unicode="&#xe3;" horiz-adv-x="851" d="M82 305q0 92 31 166.5t81 123.5t110 90.5t120.5 76.5t110.5 71t81 85t31 108q0 118 -52 181t-146 63q-220 0 -220 -283v-61h-102v20q0 68 7 122.5t28 109.5t55.5 91.5t93.5 59.5t138 23q301 0 301 -365v-797q0 -98 20 -190h-102q-21 89 -21 150q-80 -170 -282 -170 q-131 0 -207 83.5t-76 241.5zM133 1479q0 204 164 204q44 0 77.5 -15t53.5 -36.5t37 -43.5t37.5 -37t44.5 -15q67 0 67 123h103q0 -205 -164 -205q-44 0 -77.5 15t-53.5 37t-37 44t-37.5 37t-44.5 15q-67 0 -67 -123h-103zM184 305q0 -107 49 -175.5t160 -68.5q61 0 113 31 t81 73.5t44.5 81t15.5 60.5v527q-10 -31 -49 -64.5t-90 -61.5t-108.5 -68.5t-105 -83.5t-79 -109t-31.5 -142z" />
<glyph unicode="&#xe4;" horiz-adv-x="851" d="M82 305q0 92 31 166.5t81 123.5t110 90.5t120.5 76.5t110.5 71t81 85t31 108q0 118 -52 181t-146 63q-220 0 -220 -283v-61h-102v20q0 68 7 122.5t28 109.5t55.5 91.5t93.5 59.5t138 23q301 0 301 -365v-797q0 -98 20 -190h-102q-21 89 -21 150q-80 -170 -282 -170 q-131 0 -207 83.5t-76 241.5zM174 1577q0 34 21 54t51 20q29 0 50 -20t21 -54q0 -30 -21 -50t-50 -20q-30 0 -51 20t-21 50zM184 305q0 -107 49 -175.5t160 -68.5q61 0 113 31t81 73.5t44.5 81t15.5 60.5v527q-10 -31 -49 -64.5t-90 -61.5t-108.5 -68.5t-105 -83.5t-79 -109 t-31.5 -142zM532 1577q0 34 21 54t51 20q29 0 50.5 -20t21.5 -54q0 -30 -21.5 -50t-50.5 -20q-30 0 -51 20t-21 50z" />
<glyph unicode="&#xe5;" horiz-adv-x="851" d="M82 305q0 92 31 166.5t81 123.5t110 90.5t120.5 76.5t110.5 71t81 85t31 108q0 118 -52 181t-146 63q-220 0 -220 -283v-61h-102v20q0 68 7 122.5t28 109.5t55.5 91.5t93.5 59.5t138 23q301 0 301 -365v-797q0 -98 20 -190h-102q-21 89 -21 150q-80 -170 -282 -170 q-131 0 -207 83.5t-76 241.5zM184 305q0 -107 49 -175.5t160 -68.5q61 0 113 31t81 73.5t44.5 81t15.5 60.5v527q-10 -31 -49 -64.5t-90 -61.5t-108.5 -68.5t-105 -83.5t-79 -109t-31.5 -142zM291 1589q0 57 40 96t95 39t95 -39t40 -96t-40 -96t-95 -39t-95 39t-40 96z M373 1589q0 -24 14.5 -38.5t38.5 -14.5t38.5 14.5t14.5 38.5t-14.5 38.5t-38.5 14.5t-38.5 -14.5t-14.5 -38.5z" />
<glyph unicode="&#xe6;" horiz-adv-x="1294" d="M82 305q0 92 26.5 166.5t69 123.5t94 90.5t103.5 76.5t94.5 71.5t69 85.5t26.5 109q0 119 -40.5 180.5t-114.5 61.5q-79 0 -130 -70t-51 -213v-61h-102v20q0 67 7 122t26 109.5t49.5 91.5t81.5 60t119 23q155 0 219 -135q73 135 266 135q180 0 248.5 -115t68.5 -373v-200 h-544v-258q0 -103 16.5 -173t49 -106.5t71 -51t90.5 -14.5t88.5 14.5t66.5 51.5t45 106.5t15 172.5v116h102v-55q0 -258 -68.5 -372.5t-248.5 -114.5q-214 0 -283 167q-72 -167 -260 -167q-121 0 -195.5 84.5t-74.5 240.5zM184 305q0 -105 45 -174.5t140 -69.5 q78 0 134.5 54.5t80.5 124.5q-19 100 -19 227v356q-9 -26 -35 -53t-59.5 -51.5t-73 -52.5t-77 -63t-68.5 -76t-49.5 -98.5t-18.5 -123.5zM668 745h442v181q0 83 -10.5 144t-28 99.5t-45.5 61t-59 31t-72 8.5q-52 0 -90.5 -14.5t-71 -51t-49 -106t-16.5 -172.5v-181z" />
<glyph unicode="&#xe7;" d="M82 467v397q0 255 74.5 371.5t255.5 116.5q180 0 248.5 -115t68.5 -373v-55h-102v117q0 83 -10.5 144t-28 99.5t-45.5 61t-59 31t-72 8.5q-52 0 -90.5 -14.5t-71 -51t-49.5 -106t-17 -172.5v-520q0 -103 17 -173t49.5 -106.5t71 -51t90.5 -14.5t88.5 14.5t66.5 51.5 t45 106.5t15 172.5v116h102v-55q0 -244 -60 -358.5t-216 -126.5l-29 -119q227 37 227 -123q0 -34 -14 -60.5t-33.5 -43.5t-54 -29t-62 -18t-72 -9t-68 -3.5t-66.5 -0.5l2 82q147 0 206.5 15.5t59.5 66.5q0 52 -56.5 62t-168.5 -9l28 191q-148 18 -209 134t-61 349z" />
<glyph unicode="&#xe8;" d="M82 467v397q0 255 74.5 371.5t255.5 116.5q180 0 248.5 -115t68.5 -373v-200h-545v-258q0 -103 17 -173t49.5 -106.5t71 -51t90.5 -14.5t88.5 14.5t66.5 51.5t45 106.5t15 172.5v116h102v-55q0 -258 -68.5 -372.5t-248.5 -114.5q-181 0 -255.5 116t-74.5 371zM113 1604 l20 79l563 -151l-20 -78zM184 745h443v181q0 83 -10.5 144t-28 99.5t-45.5 61t-59 31t-72 8.5q-52 0 -90.5 -14.5t-71 -51t-49.5 -106t-17 -172.5v-181z" />
<glyph unicode="&#xe9;" d="M82 467v397q0 255 74.5 371.5t255.5 116.5q180 0 248.5 -115t68.5 -373v-200h-545v-258q0 -103 17 -173t49.5 -106.5t71 -51t90.5 -14.5t88.5 14.5t66.5 51.5t45 106.5t15 172.5v116h102v-55q0 -258 -68.5 -372.5t-248.5 -114.5q-181 0 -255.5 116t-74.5 371zM113 1532 l563 151l20 -79l-563 -150zM184 745h443v181q0 83 -10.5 144t-28 99.5t-45.5 61t-59 31t-72 8.5q-52 0 -90.5 -14.5t-71 -51t-49.5 -106t-17 -172.5v-181z" />
<glyph unicode="&#xea;" d="M82 467v397q0 255 74.5 371.5t255.5 116.5q180 0 248.5 -115t68.5 -373v-200h-545v-258q0 -103 17 -173t49.5 -106.5t71 -51t90.5 -14.5t88.5 14.5t66.5 51.5t45 106.5t15 172.5v116h102v-55q0 -258 -68.5 -372.5t-248.5 -114.5q-181 0 -255.5 116t-74.5 371zM113 1454 l223 229h143l217 -229h-133l-155 168l-162 -168h-133zM184 745h443v181q0 83 -10.5 144t-28 99.5t-45.5 61t-59 31t-72 8.5q-52 0 -90.5 -14.5t-71 -51t-49.5 -106t-17 -172.5v-181z" />
<glyph unicode="&#xeb;" d="M82 467v397q0 255 74.5 371.5t255.5 116.5q180 0 248.5 -115t68.5 -373v-200h-545v-258q0 -103 17 -173t49.5 -106.5t71 -51t90.5 -14.5t88.5 14.5t66.5 51.5t45 106.5t15 172.5v116h102v-55q0 -258 -68.5 -372.5t-248.5 -114.5q-181 0 -255.5 116t-74.5 371zM154 1577 q0 34 20.5 54t50.5 20q29 0 50.5 -20t21.5 -54q0 -30 -21.5 -50t-50.5 -20q-30 0 -50.5 20t-20.5 50zM184 745h443v181q0 83 -10.5 144t-28 99.5t-45.5 61t-59 31t-72 8.5q-52 0 -90.5 -14.5t-71 -51t-49.5 -106t-17 -172.5v-181zM512 1577q0 34 21 54t51 20q29 0 50 -20 t21 -54q0 -30 -21 -50t-50 -20q-30 0 -51 20t-21 50z" />
<glyph unicode="&#xec;" horiz-adv-x="266" d="M-160 1604l21 79l563 -151l-21 -78zM82 0v1331h102v-1331h-102z" />
<glyph unicode="&#xed;" horiz-adv-x="266" d="M-160 1532l563 151l21 -79l-563 -150zM82 0v1331h102v-1331h-102z" />
<glyph unicode="&#xee;" horiz-adv-x="266" d="M-160 1454l223 229h144l217 -229h-133l-156 168l-162 -168h-133zM82 0v1331h102v-1331h-102z" />
<glyph unicode="&#xef;" horiz-adv-x="266" d="M-119 1577q0 34 21 54t51 20q29 0 50.5 -20t21.5 -54q0 -30 -21.5 -50t-50.5 -20q-30 0 -51 20t-21 50zM82 0v1331h102v-1331h-102zM240 1577q0 34 20.5 54t50.5 20q29 0 50.5 -20t21.5 -54q0 -30 -21.5 -50t-50.5 -20q-30 0 -50.5 20t-20.5 50z" />
<glyph unicode="&#xf0;" horiz-adv-x="950" d="M82 504q0 69 13.5 136.5t44 132.5t74.5 114.5t111.5 79.5t149.5 30q184 0 268 -151q-50 290 -208 463l-398 -246v115l326 200q-106 86 -244 146l41 94q175 -77 293 -184l291 180v-115l-221 -137q245 -285 245 -844q0 -254 -97 -396t-296 -142q-188 0 -290.5 140.5 t-102.5 383.5zM184 504q0 -202 74 -312t217 -110q83 0 141 31.5t90 92t46 136.5t14 176q-29 377 -291 377q-133 0 -212 -111.5t-79 -279.5z" />
<glyph unicode="&#xf1;" d="M82 0v1331h102v-149q76 170 260 170q144 0 214.5 -96.5t70.5 -309.5v-946h-102v987q0 283 -201 283q-62 0 -110.5 -27.5t-76 -72.5t-41.5 -96.5t-14 -106.5v-967h-102zM113 1479q0 204 163 204q44 0 77.5 -15t53.5 -36.5t37 -43.5t37.5 -37t44.5 -15q68 0 68 123h102 q0 -205 -164 -205q-44 0 -77.5 15t-53.5 37t-36.5 44t-37 37t-44.5 15q-68 0 -68 -123h-102z" />
<glyph unicode="&#xf2;" d="M82 467v397q0 256 71.5 372t252.5 116q180 0 251.5 -115.5t71.5 -372.5v-397q0 -256 -71.5 -371.5t-251.5 -115.5q-181 0 -252.5 115.5t-71.5 371.5zM113 1604l20 79l563 -151l-20 -78zM184 406q0 -103 16 -173t47.5 -106.5t69 -51t89.5 -14.5t89.5 14.5t68.5 51 t47 106.5t16 173v520q0 103 -16 172.5t-47.5 106t-69 51t-88.5 14.5q-41 0 -73 -8.5t-61 -31.5t-47.5 -60.5t-29.5 -99t-11 -144.5v-520z" />
<glyph unicode="&#xf3;" d="M82 467v397q0 256 71.5 372t252.5 116q180 0 251.5 -115.5t71.5 -372.5v-397q0 -256 -71.5 -371.5t-251.5 -115.5q-181 0 -252.5 115.5t-71.5 371.5zM113 1532l563 151l20 -79l-563 -150zM184 406q0 -103 16 -173t47.5 -106.5t69 -51t89.5 -14.5t89.5 14.5t68.5 51 t47 106.5t16 173v520q0 103 -16 172.5t-47.5 106t-69 51t-88.5 14.5q-41 0 -73 -8.5t-61 -31.5t-47.5 -60.5t-29.5 -99t-11 -144.5v-520z" />
<glyph unicode="&#xf4;" d="M82 467v397q0 256 71.5 372t252.5 116q180 0 251.5 -115.5t71.5 -372.5v-397q0 -256 -71.5 -371.5t-251.5 -115.5q-181 0 -252.5 115.5t-71.5 371.5zM113 1454l223 229h143l217 -229h-133l-155 168l-162 -168h-133zM184 406q0 -103 16 -173t47.5 -106.5t69 -51 t89.5 -14.5t89.5 14.5t68.5 51t47 106.5t16 173v520q0 103 -16 172.5t-47.5 106t-69 51t-88.5 14.5q-41 0 -73 -8.5t-61 -31.5t-47.5 -60.5t-29.5 -99t-11 -144.5v-520z" />
<glyph unicode="&#xf5;" d="M82 467v397q0 256 71.5 372t252.5 116q180 0 251.5 -115.5t71.5 -372.5v-397q0 -256 -71.5 -371.5t-251.5 -115.5q-181 0 -252.5 115.5t-71.5 371.5zM113 1479q0 204 163 204q44 0 77.5 -15t53.5 -36.5t37 -43.5t37.5 -37t44.5 -15q68 0 68 123h102q0 -205 -164 -205 q-44 0 -77.5 15t-53.5 37t-36.5 44t-37 37t-44.5 15q-68 0 -68 -123h-102zM184 406q0 -103 16 -173t47.5 -106.5t69 -51t89.5 -14.5t89.5 14.5t68.5 51t47 106.5t16 173v520q0 103 -16 172.5t-47.5 106t-69 51t-88.5 14.5q-41 0 -73 -8.5t-61 -31.5t-47.5 -60.5t-29.5 -99 t-11 -144.5v-520z" />
<glyph unicode="&#xf6;" d="M82 467v397q0 256 71.5 372t252.5 116q180 0 251.5 -115.5t71.5 -372.5v-397q0 -256 -71.5 -371.5t-251.5 -115.5q-181 0 -252.5 115.5t-71.5 371.5zM154 1577q0 34 20.5 54t50.5 20q29 0 50.5 -20t21.5 -54q0 -30 -21.5 -50t-50.5 -20q-30 0 -50.5 20t-20.5 50zM184 406 q0 -103 16 -173t47.5 -106.5t69 -51t89.5 -14.5t89.5 14.5t68.5 51t47 106.5t16 173v520q0 103 -16 172.5t-47.5 106t-69 51t-88.5 14.5q-41 0 -73 -8.5t-61 -31.5t-47.5 -60.5t-29.5 -99t-11 -144.5v-520zM512 1577q0 34 21 54t51 20q29 0 50 -20t21 -54q0 -30 -21 -50 t-50 -20q-30 0 -51 20t-21 50z" />
<glyph unicode="&#xf7;" horiz-adv-x="1003" d="M82 625v102h840v-102h-840zM440 440q0 25 18 43.5t44 18.5q25 0 43 -18.5t18 -43.5q0 -26 -18 -43.5t-43 -17.5q-26 0 -44 17.5t-18 43.5zM440 911q0 25 18 43.5t44 18.5q25 0 43 -18.5t18 -43.5q0 -26 -18 -43.5t-43 -17.5q-26 0 -44 17.5t-18 43.5z" />
<glyph unicode="&#xf8;" horiz-adv-x="808" d="M45 -174l100 278q-65 111 -65 363v397q0 257 71.5 372.5t251.5 115.5q112 0 179 -43l71 196h109l-100 -278q65 -111 65 -363v-397q0 -256 -71.5 -371.5t-252.5 -115.5q-111 0 -178 43l-71 -197h-109zM182 406q0 -98 15 -162l352 975q-48 51 -146 51q-52 0 -89.5 -14.5 t-68.5 -51t-47 -106t-16 -172.5v-520zM258 113q49 -52 145 -52q52 0 89.5 14.5t69 51t47.5 106.5t16 173v520q0 96 -15 161z" />
<glyph unicode="&#xf9;" d="M82 385v946h102v-987q0 -283 201 -283q62 0 110.5 27.5t76 73t41.5 97t14 106.5v966h102v-1134q0 -73 3.5 -112t17.5 -85h-103q-7 22 -13.5 71.5t-6.5 78.5q-76 -170 -260 -170q-144 0 -214.5 96t-70.5 309zM113 1604l20 79l563 -151l-20 -78z" />
<glyph unicode="&#xfa;" d="M82 385v946h102v-987q0 -283 201 -283q62 0 110.5 27.5t76 73t41.5 97t14 106.5v966h102v-1134q0 -73 3.5 -112t17.5 -85h-103q-7 22 -13.5 71.5t-6.5 78.5q-76 -170 -260 -170q-144 0 -214.5 96t-70.5 309zM113 1532l563 151l20 -79l-563 -150z" />
<glyph unicode="&#xfb;" d="M82 385v946h102v-987q0 -283 201 -283q62 0 110.5 27.5t76 73t41.5 97t14 106.5v966h102v-1134q0 -73 3.5 -112t17.5 -85h-103q-7 22 -13.5 71.5t-6.5 78.5q-76 -170 -260 -170q-144 0 -214.5 96t-70.5 309zM113 1454l223 229h143l217 -229h-133l-155 168l-162 -168h-133 z" />
<glyph unicode="&#xfc;" d="M82 385v946h102v-987q0 -283 201 -283q62 0 110.5 27.5t76 73t41.5 97t14 106.5v966h102v-1134q0 -73 3.5 -112t17.5 -85h-103q-7 22 -13.5 71.5t-6.5 78.5q-76 -170 -260 -170q-144 0 -214.5 96t-70.5 309zM154 1577q0 34 20.5 54t50.5 20q29 0 50.5 -20t21.5 -54 q0 -30 -21.5 -50t-50.5 -20q-30 0 -50.5 20t-20.5 50zM512 1577q0 34 21 54t51 20q29 0 50 -20t21 -54q0 -30 -21 -50t-50 -20q-30 0 -51 20t-21 50z" />
<glyph unicode="&#xfd;" d="M82 385v946h102v-987q0 -283 201 -283q62 0 110.5 27.5t76 73t41.5 97t14 106.5v966h102v-1294q0 -87 -8 -150t-32.5 -122t-66.5 -95.5t-111.5 -58t-166.5 -21.5h-221v82h242q81 0 134 25t80.5 76t37.5 112.5t10 151.5v113q-76 -170 -260 -170q-144 0 -214.5 96 t-70.5 309zM113 1532l563 151l20 -79l-563 -150z" />
<glyph unicode="&#xfe;" d="M82 -410v2048h102v-456q76 170 260 170q144 0 214.5 -96.5t70.5 -309.5v-561q0 -213 -70.5 -309t-214.5 -96q-184 0 -260 170v-560h-102zM184 365q0 -55 14 -106.5t41.5 -97t76 -73t110.5 -27.5q201 0 201 283v643q0 283 -201 283q-62 0 -110.5 -27.5t-76 -72.5 t-41.5 -96.5t-14 -106.5v-602z" />
<glyph unicode="&#xff;" d="M82 385v946h102v-987q0 -283 201 -283q62 0 110.5 27.5t76 73t41.5 97t14 106.5v966h102v-1294q0 -87 -8 -150t-32.5 -122t-66.5 -95.5t-111.5 -58t-166.5 -21.5h-221v82h242q81 0 134 25t80.5 76t37.5 112.5t10 151.5v113q-76 -170 -260 -170q-144 0 -214.5 96 t-70.5 309zM154 1577q0 34 20.5 54t50.5 20q29 0 50.5 -20t21.5 -54q0 -30 -21.5 -50t-50.5 -20q-30 0 -50.5 20t-20.5 50zM512 1577q0 34 21 54t51 20q29 0 50 -20t21 -54q0 -30 -21 -50t-50 -20q-30 0 -51 20t-21 50z" />
<glyph unicode="&#x152;" horiz-adv-x="1148" d="M82 426v786q0 243 72 345t231 102q153 0 221 -119v98h461v-102h-358v-666h358v-102h-358v-666h358v-102h-461v98q-68 -118 -221 -118q-159 0 -231 101.5t-72 344.5zM184 406q0 -182 45.5 -253t165.5 -71t165.5 71t45.5 253v827q0 182 -45.5 252.5t-165.5 70.5 t-165.5 -70.5t-45.5 -252.5v-827z" />
<glyph unicode="&#x153;" horiz-adv-x="1273" d="M82 467v397q0 253 65.5 370.5t217.5 117.5q91 0 145 -41t82 -127q37 85 105.5 126.5t176.5 41.5q180 0 249 -115t69 -373v-200h-545v-258q0 -103 16.5 -173t49 -106.5t71 -51t90.5 -14.5t89 14.5t67 51.5t45 106.5t15 172.5v116h102v-55q0 -258 -69 -372.5t-249 -114.5 q-108 0 -176.5 41t-105.5 126q-28 -86 -82 -126.5t-145 -40.5q-152 0 -217.5 117t-65.5 370zM184 406q0 -139 22.5 -215.5t62 -103t108.5 -26.5q91 0 129.5 90.5t38.5 254.5v520q0 344 -168 344q-69 0 -108.5 -26.5t-62 -102.5t-22.5 -215v-520zM647 745h443v181 q0 103 -15 172.5t-45 106t-67 51t-89 14.5t-90.5 -14.5t-71 -51t-49 -106t-16.5 -172.5v-181z" />
<glyph unicode="&#x178;" horiz-adv-x="937" d="M82 1638h106l281 -905l281 905h106l-336 -1065v-573h-102v573zM217 1884q0 34 21 54t51 20q29 0 50 -20t21 -54q0 -30 -21 -49.5t-50 -19.5q-30 0 -51 19.5t-21 49.5zM575 1884q0 34 21 54t51 20q29 0 50.5 -20t21.5 -54q0 -30 -21.5 -49.5t-50.5 -19.5q-30 0 -51 19.5 t-21 49.5z" />
<glyph unicode="&#x2c6;" horiz-adv-x="624" d="M20 1454l224 229h143l217 -229h-133l-156 168l-161 -168h-134z" />
<glyph unicode="&#x2dc;" horiz-adv-x="624" d="M20 1479q0 204 164 204q44 0 77.5 -15t53.5 -36.5t37 -43.5t37.5 -37t44.5 -15q68 0 68 123h102q0 -205 -164 -205q-44 0 -77.5 15t-53.5 37t-37 44t-37.5 37t-44.5 15q-67 0 -67 -123h-103z" />
<glyph unicode="&#x2000;" horiz-adv-x="1016" />
<glyph unicode="&#x2001;" horiz-adv-x="2032" />
<glyph unicode="&#x2002;" horiz-adv-x="1016" />
<glyph unicode="&#x2003;" horiz-adv-x="2032" />
<glyph unicode="&#x2004;" horiz-adv-x="677" />
<glyph unicode="&#x2005;" horiz-adv-x="508" />
<glyph unicode="&#x2006;" horiz-adv-x="338" />
<glyph unicode="&#x2007;" horiz-adv-x="338" />
<glyph unicode="&#x2008;" horiz-adv-x="254" />
<glyph unicode="&#x2009;" horiz-adv-x="406" />
<glyph unicode="&#x200a;" horiz-adv-x="112" />
<glyph unicode="&#x2010;" horiz-adv-x="1003" d="M82 625v102h840v-102h-840z" />
<glyph unicode="&#x2011;" horiz-adv-x="1003" d="M82 625v102h840v-102h-840z" />
<glyph unicode="&#x2012;" horiz-adv-x="1003" d="M82 625v102h840v-102h-840z" />
<glyph unicode="&#x2013;" horiz-adv-x="1351" d="M82 625v102h1188v-102h-1188z" />
<glyph unicode="&#x2014;" horiz-adv-x="2211" d="M82 625v102h2048v-102h-2048z" />
<glyph unicode="&#x2018;" horiz-adv-x="327" d="M82 1147l82 512h82l-62 -512h-102z" />
<glyph unicode="&#x2019;" horiz-adv-x="327" d="M82 1147l61 512h103l-82 -512h-82z" />
<glyph unicode="&#x201a;" horiz-adv-x="307" d="M82 -244l61 512h103l-82 -512h-82z" />
<glyph unicode="&#x201c;" horiz-adv-x="491" d="M82 1147l82 512h82l-62 -512h-102zM246 1147l82 512h82l-62 -512h-102z" />
<glyph unicode="&#x201d;" horiz-adv-x="491" d="M82 1147l61 512h103l-82 -512h-82zM246 1147l61 512h103l-82 -512h-82z" />
<glyph unicode="&#x201e;" horiz-adv-x="491" d="M82 -244l61 512h103l-82 -512h-82zM246 -244l61 512h103l-82 -512h-82z" />
<glyph unicode="&#x2022;" horiz-adv-x="409" d="M82 662q0 54 36 88t87 34q52 0 87.5 -34t35.5 -88t-35.5 -88.5t-87.5 -34.5q-51 0 -87 34.5t-36 88.5z" />
<glyph unicode="&#x2026;" horiz-adv-x="880" d="M82 51q0 32 21 52t51 20t50.5 -20t20.5 -52t-20.5 -51.5t-50.5 -19.5t-51 20t-21 51zM369 51q0 32 20.5 52t50.5 20t51 -20t21 -52q0 -31 -21 -51t-51 -20t-50.5 19.5t-20.5 51.5zM655 51q0 32 21 52t51 20t51 -20t21 -52q0 -31 -21 -51t-51 -20t-51 20t-21 51z" />
<glyph unicode="&#x202f;" horiz-adv-x="406" />
<glyph unicode="&#x2039;" horiz-adv-x="468" d="M82 635v82l305 325v-122l-227 -244l227 -244v-123z" />
<glyph unicode="&#x203a;" horiz-adv-x="468" d="M82 309v123l227 244l-227 244v122l305 -325v-82z" />
<glyph unicode="&#x205f;" horiz-adv-x="508" />
<glyph unicode="&#x20ac;" horiz-adv-x="946" d="M82 627v102h102v82h-102v102h104q9 384 101 565t282 181q119 0 200 -79.5t95 -248.5h-102q-29 225 -193 225q-145 0 -209.5 -152.5t-72.5 -490.5h434v-102h-434v-82h434v-102h-430q14 -284 78.5 -414.5t199.5 -130.5q164 0 193 225h102q-14 -168 -94.5 -247.5 t-200.5 -79.5q-176 0 -268.5 157.5t-112.5 489.5h-106z" />
<glyph unicode="&#x2122;" horiz-adv-x="1060" d="M82 1536v102h336v-102h-117v-901h-102v901h-117zM459 635v1003h102l158 -804l158 804h102v-1003h-102v510l-107 -510h-102l-107 510v-510h-102z" />
<glyph unicode="&#x25fc;" horiz-adv-x="1331" d="M0 0v1331h1331v-1331h-1331z" />
</font>
</defs>
</svg>
