<?xml version="1.0" standalone="no"?>
<!DOCTYPE svg PUBLIC "-//W3C//DTD SVG 1.1//EN" "http://www.w3.org/Graphics/SVG/1.1/DTD/svg11.dtd" >
<svg xmlns="http://www.w3.org/2000/svg" xmlns:xlink="http://www.w3.org/1999/xlink" version="1.1">
<metadata></metadata>
<defs>
<font id="pp_formula_condensedregular" horiz-adv-x="811" >
<font-face units-per-em="2048" ascent="1638" descent="-410" />
<missing-glyph horiz-adv-x="348" />
<glyph horiz-adv-x="0" />
<glyph horiz-adv-x="682" />
<glyph unicode=" "  horiz-adv-x="348" />
<glyph unicode="&#x09;" horiz-adv-x="348" />
<glyph unicode="&#xa0;" horiz-adv-x="348" />
<glyph unicode="!" horiz-adv-x="337" d="M51 96q0 54 34 86.5t85 32.5q49 0 83 -32.5t34 -86.5q0 -51 -34 -83.5t-83 -32.5q-51 0 -85 32t-34 84zM68 1638h204l-12 -1126h-184z" />
<glyph unicode="&#x22;" horiz-adv-x="368" d="M51 1147v512h103v-512h-103zM215 1147v512h102v-512h-102z" />
<glyph unicode="#" horiz-adv-x="1538" d="M51 502v102h359l157 430h-358v103h395l189 522h108l-188 -522h342l188 522h109l-189 -522h324v-103h-361l-157 -430h360v-102h-397l-189 -522h-108l188 522h-342l-188 -522h-109l189 522h-322zM518 604h342l158 430h-342z" />
<glyph unicode="$" horiz-adv-x="851" d="M51 621h103q0 -183 52.5 -268t168.5 -103v551q-147 54 -225 140t-78 230q0 136 77 223t226 99v166h102v-166q84 -10 145 -46.5t94.5 -93.5t48.5 -121.5t15 -141.5h-102q0 267 -201 299v-521q42 -18 71 -31.5t66 -34.5t61.5 -41.5t50.5 -50t41 -62.5t24.5 -76.5t9.5 -94.5 q0 -152 -80 -238.5t-244 -95.5v-163h-102v167q-159 18 -241.5 131.5t-82.5 342.5zM174 1171q0 -100 54 -160t147 -102v482q-201 -19 -201 -220zM477 246q123 7 172 65.5t49 165.5q0 58 -17.5 104.5t-51.5 79.5t-69 54.5t-83 42.5v-512z" />
<glyph unicode="%" horiz-adv-x="1064" d="M51 1352q0 -61 13.5 -114t41.5 -98t78 -70.5t117 -25.5t117 25.5t78 70.5t41.5 98t13.5 114t-13.5 114t-41.5 97.5t-78 70t-117 25.5t-117 -25.5t-78 -70t-41.5 -97.5t-13.5 -114zM154 1352q0 204 147 204q148 0 148 -204q0 -205 -148 -205q-147 0 -147 205zM174 -20 l608 1679h109l-608 -1679h-109zM514 287q0 -61 13.5 -114t41.5 -97.5t78 -70t117 -25.5t117 25.5t78 70t41.5 97.5t13.5 114t-13.5 114t-41.5 97.5t-78 70t-117 25.5t-117 -25.5t-78 -70t-41.5 -97.5t-13.5 -114zM616 287q0 205 148 205q147 0 147 -205t-147 -205 q-148 0 -148 205z" />
<glyph unicode="&#x26;" horiz-adv-x="927" d="M51 395q0 331 191 436q-191 101 -191 412q0 70 12.5 130.5t40.5 113.5t69.5 91t102.5 59.5t136 21.5q191 0 279.5 -123.5t88.5 -374.5h-205q0 88 -11 147.5t-34 90.5t-50.5 43t-67.5 12q-156 0 -156 -252q0 -86 16.5 -143t49.5 -85.5t70.5 -39t90.5 -10.5h92v116h205 v-116h97v-185h-97v-241q0 -265 -88 -391.5t-280 -126.5q-94 0 -165 32.5t-113 90.5t-62.5 131t-20.5 161zM256 436q0 -252 156 -252q40 0 67.5 12.5t50.5 45.5t34 96.5t11 159.5v241h-92q-54 0 -91 -11t-70 -41.5t-49.5 -93t-16.5 -157.5z" />
<glyph unicode="'" horiz-adv-x="204" d="M51 1147v512h103v-512h-103z" />
<glyph unicode="(" horiz-adv-x="368" d="M51 819q0 227 39 428.5t125 411.5h102q-86 -209 -124.5 -410.5t-38.5 -429.5t38.5 -429t124.5 -410h-102q-86 210 -125 411t-39 428z" />
<glyph unicode=")" horiz-adv-x="368" d="M51 -20q86 210 125 411t39 428t-39 428.5t-125 411.5h103q86 -209 124.5 -410.5t38.5 -429.5t-38.5 -429t-124.5 -410h-103z" />
<glyph unicode="*" horiz-adv-x="606" d="M51 1253l170 99l-170 98l41 70l170 -99v238h82v-238l170 99l41 -70l-170 -98l170 -99l-41 -69l-170 98v-238h-82v238l-170 -98z" />
<glyph unicode="+" horiz-adv-x="942" d="M51 594v102h369v369h102v-369h369v-102h-369v-369h-102v369h-369z" />
<glyph unicode="," horiz-adv-x="337" d="M51 98q0 55 33.5 86t85.5 31q51 0 84 -38.5t33 -115.5q0 -32 -7 -63.5t-26.5 -72t-63.5 -78.5t-108 -64v82q49 25 73 57t29 78q-51 -15 -92 14.5t-41 83.5z" />
<glyph unicode="-" horiz-adv-x="942" d="M51 625v102h840v-102h-840z" />
<glyph unicode="." horiz-adv-x="337" d="M51 96q0 54 34 86.5t85 32.5q49 0 83 -32.5t34 -86.5q0 -51 -34 -83.5t-83 -32.5q-51 0 -85 32t-34 84z" />
<glyph unicode="/" horiz-adv-x="819" d="M51 -20l608 1679h109l-608 -1679h-109z" />
<glyph unicode="0" d="M51 436v766q0 243 86.5 350t268.5 107t268 -107t86 -350v-766q0 -243 -86 -349.5t-268 -106.5t-268.5 106.5t-86.5 349.5zM256 436q0 -145 31 -198.5t119 -53.5t118.5 53.5t30.5 198.5v502l-299 -473v-29zM256 700l299 476v26q0 145 -30.5 198.5t-118.5 53.5t-119 -53.5 t-31 -198.5v-502z" />
<glyph unicode="1" horiz-adv-x="770" d="M51 0v205h232v1167q-32 -59 -81.5 -85.5t-150.5 -26.5v194q179 0 252 184h184v-1433h232v-205h-668z" />
<glyph unicode="2" horiz-adv-x="831" d="M51 0v205q0 80 8.5 148t19 118t35 99t43 79t57 71t61.5 62t71 64q41 36 66.5 61t60 65.5t54 77t34 86t14.5 101.5q0 115 -32 166t-103 51q-55 0 -88.5 -23t-54.5 -93.5t-21 -196.5h-204q0 269 89 393.5t279 124.5q176 0 258 -111t82 -311q0 -41 -6 -81t-13.5 -72 t-24 -67.5t-28.5 -59.5t-36.5 -56.5t-38 -49.5t-43.5 -48t-42.5 -43t-45 -42.5t-41.5 -39.5q-91 -88 -118 -124q-66 -86 -81 -221q-6 -56 -6 -128h524v-205h-729z" />
<glyph unicode="3" horiz-adv-x="831" d="M51 498h205q0 -96 11.5 -159.5t34.5 -96.5t50.5 -45.5t67.5 -12.5q155 0 155 252q0 95 -16.5 157.5t-49.5 93t-70 41.5t-91 11h-72v185h72q53 0 90.5 10.5t70.5 39t49.5 85.5t16.5 143q0 252 -155 252q-40 0 -67.5 -12t-50.5 -43t-34.5 -90.5t-11.5 -147.5h-205 q0 251 89 374.5t280 123.5q94 0 164.5 -32.5t112.5 -90.5t62.5 -131.5t20.5 -161.5q0 -312 -188 -412q188 -103 188 -436q0 -88 -20.5 -161t-62.5 -131t-112.5 -90.5t-164.5 -32.5q-192 0 -280.5 126.5t-88.5 391.5z" />
<glyph unicode="4" horiz-adv-x="800" d="M51 342v205l350 1091h205v-1091h144v-205h-144v-342h-205v342h-350zM186 547h215v672z" />
<glyph unicode="5" horiz-adv-x="831" d="M51 498h205q0 -163 36.5 -238.5t123.5 -75.5q90 0 124.5 86.5t34.5 284.5q0 190 -33.5 264t-107.5 74q-71 0 -113.5 -55t-54.5 -136h-194l41 936h602v-204h-418l-25 -447q96 111 222 111q286 0 286 -543q0 -101 -9.5 -183t-35 -157t-65.5 -125t-104.5 -80t-149.5 -30 q-185 0 -275 125.5t-90 392.5z" />
<glyph unicode="6" horiz-adv-x="831" d="M51 559v539q2 297 83.5 429t273.5 132q91 0 157.5 -34t103 -95.5t53.5 -137t17 -169.5h-204q0 118 -28 174.5t-99 56.5q-78 0 -115 -62t-37 -221v-215q88 142 233 142q291 0 291 -557q0 -274 -86.5 -417.5t-277.5 -143.5q-99 0 -170 40.5t-113 118.5t-61.5 181t-20.5 239 zM256 559q0 -143 19.5 -227t53 -116t87.5 -32t87.5 29.5t52.5 109.5t19 218t-17.5 216.5t-48.5 107t-83 28.5q-86 0 -128 -81t-42 -253z" />
<glyph unicode="7" horiz-adv-x="831" d="M51 1434v204h729v-204q-138 -211 -216.5 -440t-106 -457.5t-27.5 -536.5h-205q0 228 16.5 409t57.5 359.5t115 342t184 323.5h-547z" />
<glyph unicode="8" d="M51 422v57q0 285 191 381q-170 97 -170 352v41q0 189 87 297.5t247 108.5t246.5 -108.5t86.5 -297.5v-41q0 -257 -170 -352q191 -96 191 -381v-57q0 -442 -354 -442q-174 0 -264.5 111t-90.5 331zM256 453q0 -106 18 -166t49 -81.5t83 -21.5t83 21.5t48.5 81.5t17.5 166 v36q0 148 -36 207.5t-113 59.5t-113.5 -59.5t-36.5 -207.5v-36zM266 1208q0 -131 33 -189t107 -58t106.5 57.5t32.5 189.5q0 130 -32.5 188t-106.5 58t-107 -58t-33 -188z" />
<glyph unicode="9" horiz-adv-x="831" d="M51 1098q0 273 87.5 417t279.5 144q80 0 141 -27t102.5 -76t68 -122t38 -160t12.5 -195v-536q-2 -299 -82.5 -431t-273.5 -132q-91 0 -157.5 34t-103.5 95.5t-54 137t-17 169.5h205q0 -118 28 -175t99 -57q78 0 114.5 62t36.5 221v215q-86 -141 -233 -141 q-291 0 -291 557zM256 1098q0 -138 18.5 -217t49.5 -107.5t82 -28.5q85 0 127 81t42 253q0 211 -38 293t-119 82q-54 0 -88 -29t-54 -109t-20 -218z" />
<glyph unicode=":" horiz-adv-x="337" d="M51 96q0 54 34 86.5t85 32.5q49 0 83 -32.5t34 -86.5q0 -51 -34 -83.5t-83 -32.5q-51 0 -85 32t-34 84zM51 752q0 54 34 86t85 32q49 0 83 -32t34 -86q0 -51 -34.5 -84t-82.5 -33q-50 0 -84.5 32.5t-34.5 84.5z" />
<glyph unicode=";" horiz-adv-x="337" d="M51 98q0 55 33.5 86t85.5 31q51 0 84 -38.5t33 -115.5q0 -32 -7 -63.5t-26.5 -72t-63.5 -78.5t-108 -64v82q49 25 73 57t29 78q-51 -15 -92 14.5t-41 83.5zM51 752q0 54 34 86t85 32q49 0 83 -32t34 -86q0 -51 -34.5 -84t-82.5 -33q-50 0 -84.5 32.5t-34.5 84.5z" />
<glyph unicode="&#x3c;" horiz-adv-x="942" d="M51 635v82l840 325v-102l-696 -264l696 -264v-103z" />
<glyph unicode="=" horiz-adv-x="942" d="M51 522v103h840v-103h-840zM51 727v102h840v-102h-840z" />
<glyph unicode="&#x3e;" horiz-adv-x="942" d="M51 309v103l697 264l-697 264v102l840 -325v-82z" />
<glyph unicode="?" d="M51 1161q0 250 90 374t281 124q170 0 254 -99t84 -260q0 -70 -17.5 -130t-45 -105.5t-61 -89t-67 -89.5t-61 -97t-45 -122.5t-17.5 -154.5h-184q0 96 16 178t42 138.5t57 105.5t62.5 89t57.5 78t42 83.5t16 95.5q0 174 -133 174q-40 0 -69 -13.5t-51.5 -46t-34 -90.5 t-11.5 -143h-205zM236 96q0 54 33.5 86.5t84.5 32.5q49 0 83 -32.5t34 -86.5q0 -51 -34 -83.5t-83 -32.5q-50 0 -84 32t-34 84z" />
<glyph unicode="@" horiz-adv-x="1165" d="M51 696q0 185 33 332.5t100 258t177 170t257 59.5q98 0 176 -29.5t131.5 -86.5t91 -130.5t58.5 -171.5t30 -199.5t9 -222.5q0 -103 -4.5 -179.5t-16 -145.5t-31.5 -112.5t-52.5 -68.5t-77.5 -25q-82 0 -120.5 56.5t-47.5 179.5q-73 -152 -205 -152q-130 0 -196 121.5 t-66 349.5t66 349.5t196 121.5q129 0 201 -145v125h102v-653q0 -100 8 -155.5t22.5 -75t39.5 -19.5q27 0 43.5 35t26.5 131t10 262q0 129 -9 230.5t-35.5 199.5t-69 163t-113.5 104.5t-167 39.5q-120 0 -210.5 -52.5t-145 -149t-81.5 -225.5t-27 -290q0 -131 15 -236.5 t50.5 -196.5t91.5 -152.5t141.5 -96t196.5 -34.5q196 0 348 61v-102q-154 -62 -348 -62q-133 0 -236 39.5t-170.5 109.5t-111 174t-62 225t-18.5 271zM399 700q0 -368 191 -368q90 0 130 86t40 282q0 195 -41 282t-129 87q-191 0 -191 -369z" />
<glyph unicode="A" horiz-adv-x="862" d="M51 0l238 1638h286l236 -1638h-205l-41 330h-268l-41 -330h-205zM324 535h217l-109 864z" />
<glyph unicode="B" horiz-adv-x="815" d="M51 0v1638h266q238 0 327 -87.5t89 -317.5v-45q0 -235 -176 -314q207 -85 207 -368v-84q0 -159 -41.5 -248.5t-137.5 -131t-268 -42.5h-266zM256 205h63q149 0 194.5 43.5t45.5 183.5v94q0 130 -54 183t-186 53h-63v-557zM256 967h63q56 0 91 7t64 27.5t41.5 61 t12.5 104.5v66q0 69 -7 106t-31.5 60t-62 29t-108.5 6h-63v-467z" />
<glyph unicode="C" d="M51 436v766q0 243 86.5 350t268.5 107t268 -107t86 -350v-229h-205v229q0 145 -30.5 198.5t-118.5 53.5t-119 -53.5t-31 -198.5v-766q0 -145 31 -198.5t119 -53.5t118.5 53.5t30.5 198.5v230h205v-230q0 -243 -86 -349.5t-268 -106.5t-268.5 106.5t-86.5 349.5z" />
<glyph unicode="D" horiz-adv-x="815" d="M51 0v1638h246q86 0 149.5 -7.5t118 -26t90 -50t61 -80.5t37 -115.5t11.5 -156.5v-766q0 -106 -17.5 -181t-51.5 -125t-92 -78.5t-130 -40t-176 -11.5h-246zM256 205h43q80 0 125.5 7.5t78.5 32.5t44.5 70t11.5 121v766q0 76 -11.5 121t-44.5 70t-78.5 33t-125.5 8h-43 v-1229z" />
<glyph unicode="E" horiz-adv-x="624" d="M51 0v1638h522v-204h-317v-512h317v-205h-317v-512h317v-205h-522z" />
<glyph unicode="F" horiz-adv-x="624" d="M51 0v1638h522v-204h-317v-594h317v-205h-317v-635h-205z" />
<glyph unicode="G" d="M51 436v766q0 237 87.5 347t267.5 110t267 -110t87 -347v-182h-205v182q0 145 -30.5 198.5t-118.5 53.5t-119 -53.5t-31 -198.5v-766q0 -145 31 -198.5t119 -53.5t118.5 53.5t30.5 198.5v195h-149v205h354v-836h-101l-28 125q-91 -145 -258 -145q-163 0 -242.5 109.5 t-79.5 346.5z" />
<glyph unicode="H" horiz-adv-x="847" d="M51 0v1638h205v-716h336v716h205v-1638h-205v717h-336v-717h-205z" />
<glyph unicode="I" horiz-adv-x="307" d="M51 0v1638h205v-1638h-205z" />
<glyph unicode="J" d="M51 436v133h205v-133q2 -145 32 -198.5t118 -53.5t118.5 53.5t30.5 198.5v1202h205v-1202q0 -243 -86 -349.5t-268 -106.5t-268.5 106.5t-86.5 349.5z" />
<glyph unicode="K" horiz-adv-x="856" d="M51 0v1638h205v-1638h-205zM256 819l334 819h215l-338 -819l338 -819h-215z" />
<glyph unicode="L" horiz-adv-x="624" d="M51 0v1638h205v-1433h317v-205h-522z" />
<glyph unicode="M" horiz-adv-x="1052" d="M51 0v1638h205l270 -1200l271 1200h204v-1638h-204v958l-203 -958h-133l-205 958v-958h-205z" />
<glyph unicode="N" horiz-adv-x="919" d="M51 0v1638h205l408 -1089v1089h204v-1638h-204l-408 1092v-1092h-205z" />
<glyph unicode="O" d="M51 436v766q0 243 86.5 350t268.5 107t268 -107t86 -350v-766q0 -243 -86 -349.5t-268 -106.5t-268.5 106.5t-86.5 349.5zM256 436q0 -145 31 -198.5t119 -53.5t118.5 53.5t30.5 198.5v766q0 145 -30.5 198.5t-118.5 53.5t-119 -53.5t-31 -198.5v-766z" />
<glyph unicode="P" horiz-adv-x="815" d="M51 0v1638h256q143 0 232.5 -25.5t139 -85.5t67.5 -142.5t18 -213.5v-124q0 -103 -11 -174.5t-40 -130t-80.5 -92.5t-130.5 -52t-193 -18h-53v-580h-205zM256 784h53q84 0 132 11.5t75 44.5t35 78.5t8 128.5v124q0 84 -8 129.5t-35 78.5t-75 44t-132 11h-53v-650z" />
<glyph unicode="Q" d="M51 436v766q0 243 86.5 350t268.5 107t268 -107t86 -350v-766q0 -212 -65 -319t-201 -131q124 -21 225 -99v-217q-99 76 -192 107t-224 39v174q-128 27 -190 133.5t-62 312.5zM256 436q0 -145 31 -198.5t119 -53.5t118.5 53.5t30.5 198.5v766q0 145 -30.5 198.5 t-118.5 53.5t-119 -53.5t-31 -198.5v-766z" />
<glyph unicode="R" horiz-adv-x="817" d="M51 0v1638h256q139 0 228.5 -25.5t140.5 -83t70.5 -136.5t19.5 -201v-74q0 -148 -41.5 -244t-140.5 -145q91 -30 135.5 -105.5t44.5 -213.5v-265q0 -117 22 -145h-204q-23 29 -23 145v295q0 44 -7.5 78.5t-19.5 57.5t-32 39.5t-38.5 25.5t-47 14t-50 6t-53.5 1h-55v-662 h-205zM256 866h53q78 0 127.5 14t77 47t37.5 77.5t10 113.5v74q0 73 -9.5 116.5t-38 73.5t-76.5 41t-128 11h-53v-568z" />
<glyph unicode="S" d="M51 559h205q0 -156 17 -237t51 -109.5t98 -28.5q73 0 103 47.5t30 174.5q0 67 -10.5 114.5t-38 90t-63 76.5t-97.5 83q-56 44 -87 70t-74.5 74.5t-66.5 93.5t-40 111.5t-17 144.5q0 188 83.5 291.5t256.5 103.5q179 0 264 -120.5t85 -377.5h-205q0 90 -9.5 149t-30 90 t-44.5 42.5t-60 11.5q-69 0 -102 -43t-33 -147t45 -170t148 -144q51 -39 83.5 -66.5t71 -67t62 -78t44.5 -88.5t30.5 -110.5t9.5 -133.5q0 -209 -81.5 -317.5t-256.5 -108.5q-137 0 -216 53t-117 179t-38 347z" />
<glyph unicode="T" horiz-adv-x="770" d="M51 1434v204h668v-204h-232v-1434h-204v1434h-232z" />
<glyph unicode="U" d="M51 436v1202h205v-1202q0 -145 31 -198.5t119 -53.5t118.5 53.5t30.5 198.5v1202h205v-1202q0 -243 -86 -349.5t-268 -106.5t-268.5 106.5t-86.5 349.5z" />
<glyph unicode="V" horiz-adv-x="862" d="M51 1638h205l176 -1398l174 1398h205l-236 -1638h-286z" />
<glyph unicode="W" horiz-adv-x="1542" d="M51 0v1638h205v-1335l344 1335h320v-1335l344 1335h227l-459 -1638h-317v1286l-346 -1286h-318z" />
<glyph unicode="X" horiz-adv-x="937" d="M51 0l283 819l-283 819h219l199 -655l201 655h217l-283 -819l283 -819h-217l-201 655l-199 -655h-219z" />
<glyph unicode="Y" horiz-adv-x="937" d="M51 1638h217l201 -802l201 802h217l-316 -1065v-573h-204v573z" />
<glyph unicode="Z" horiz-adv-x="747" d="M51 0v205l441 1229h-441v204h645v-204l-438 -1229h438v-205h-645z" />
<glyph unicode="[" horiz-adv-x="368" d="M51 -20v1679h266v-82h-163v-1516h163v-81h-266z" />
<glyph unicode="\" horiz-adv-x="819" d="M51 1659h109l608 -1679h-109z" />
<glyph unicode="]" horiz-adv-x="368" d="M51 -20v81h164v1516h-164v82h266v-1679h-266z" />
<glyph unicode="^" horiz-adv-x="749" d="M51 1024l250 614h148l249 -614h-110l-213 524l-213 -524h-111z" />
<glyph unicode="_" horiz-adv-x="1290" d="M51 -10h1188v-103h-1188v103z" />
<glyph unicode="`" horiz-adv-x="624" d="M20 1604l21 79l563 -151l-20 -78z" />
<glyph unicode="a" horiz-adv-x="851" d="M51 315q0 94 29 169.5t75 124t102 88t112 71t102 63t75 73.5t29 93q0 170 -137 170q-75 0 -112 -50.5t-37 -160.5v-51h-205v31q0 97 17.5 170.5t57.5 130t110 86t169 29.5q77 0 136.5 -19.5t98 -54t63 -85.5t34.5 -108.5t10 -128.5v-761q0 -111 21 -195h-185 q-21 28 -31 71.5t-10 78.5q-72 -170 -253 -170q-121 0 -196 85.5t-75 249.5zM256 344q0 -83 36 -131.5t111 -48.5q38 0 71 17.5t53 43t31.5 48t16.5 40.5v424q-14 -30 -53 -62.5t-82.5 -62.5t-86 -65.5t-70 -88t-27.5 -114.5z" />
<glyph unicode="b" horiz-adv-x="821" d="M41 0q10 32 14.5 64t5 56t0.5 77v1441h205v-456q14 31 33.5 58t49 54t72.5 42.5t95 15.5q139 0 196.5 -97.5t57.5 -318.5v-541q0 -220 -57.5 -317.5t-196.5 -97.5q-52 0 -95 15.5t-72.5 42.5t-49 54t-33.5 58q0 -37 -10 -83t-31 -67h-184zM266 375q0 -95 39.5 -153 t120.5 -58q74 0 106.5 50.5t32.5 150.5v602q0 100 -32.5 150t-106.5 50q-81 0 -120.5 -58t-39.5 -153v-581z" />
<glyph unicode="c" d="M51 457v417q0 248 86.5 363t272.5 115q185 0 267.5 -114.5t82.5 -363.5v-65h-205v96q0 103 -17 161.5t-47 79.5t-81 21q-79 0 -116.5 -56t-37.5 -206v-479q0 -150 37.5 -206t116.5 -56q52 0 82 21t46.5 79t16.5 162v96h205v-65q0 -249 -82.5 -363t-267.5 -114 q-186 0 -272.5 115t-86.5 362z" />
<glyph unicode="d" horiz-adv-x="821" d="M51 395v541q0 221 57.5 318.5t196.5 97.5q52 0 95 -15.5t72.5 -42.5t49 -54t33.5 -58v456h205v-1441q0 -53 0.5 -77t5 -56t14.5 -64h-184q-21 21 -31 67t-10 83q-14 -31 -33.5 -58t-49 -54t-72.5 -42.5t-95 -15.5q-139 0 -196.5 97.5t-57.5 317.5zM256 365 q0 -100 32.5 -150.5t106.5 -50.5q81 0 120.5 58t39.5 153v581q0 95 -39.5 153t-120.5 58q-74 0 -106.5 -50t-32.5 -150v-602z" />
<glyph unicode="e" d="M51 457v417q0 248 86.5 363t272.5 115q185 0 267.5 -114.5t82.5 -363.5v-239h-504v-209q0 -150 37.5 -206t116.5 -56q52 0 82 21t46.5 79t16.5 162v96h205v-65q0 -249 -82.5 -363t-267.5 -114q-186 0 -272.5 115t-86.5 362zM256 778h299v127q0 103 -17 161.5t-47 79.5 t-81 21q-79 0 -116.5 -56t-37.5 -206v-127z" />
<glyph unicode="f" horiz-adv-x="675" d="M51 1147v184h144v45q0 59 10 104.5t36.5 88.5t80.5 66.5t133 23.5q87 0 170 -21v-153q-46 10 -97 10q-75 0 -102 -32t-27 -107v-76q24 24 68 36t75 13.5t83 1.5v-184h-226v-1147h-204v1147h-144z" />
<glyph unicode="g" d="M51 395v541q0 221 57.5 318.5t196.5 97.5q52 0 95 -15.5t72.5 -42.5t49 -54t33.5 -58v149h205v-1294q0 -96 -8.5 -162t-31 -123.5t-63.5 -91t-105.5 -52t-156.5 -18.5h-293v185h263q109 0 149.5 60.5t40.5 201.5v113q-14 -31 -33.5 -58t-49 -54t-72.5 -42.5t-95 -15.5 q-139 0 -196.5 97.5t-57.5 317.5zM256 365q0 -100 32.5 -150.5t106.5 -50.5q81 0 120.5 58t39.5 153v581q0 95 -39.5 153t-120.5 58q-74 0 -106.5 -50t-32.5 -150v-602z" />
<glyph unicode="h" d="M51 0v1638h205v-456q14 31 33.5 58t49 54t72.5 42.5t95 15.5q139 0 196.5 -97.5t57.5 -318.5v-936h-205v967q0 100 -32.5 150t-106.5 50q-81 0 -120.5 -58t-39.5 -153v-956h-205z" />
<glyph unicode="i" horiz-adv-x="307" d="M41 1556q0 43 33.5 73t79.5 30t79 -30t33 -73q0 -41 -33 -71.5t-79 -30.5t-79.5 30.5t-33.5 71.5zM51 0v1331h205v-1331h-205z" />
<glyph unicode="j" horiz-adv-x="542" d="M31 -225h106q91 0 120.5 59.5t29.5 202.5v1294h205v-1294q0 -81 -4 -137.5t-16 -110.5t-33.5 -88t-56 -61t-85 -38.5t-119.5 -11.5h-147v185zM276 1554q0 44 33.5 74.5t79.5 30.5t79.5 -30.5t33.5 -74.5q0 -40 -33.5 -70t-79.5 -30t-79.5 30t-33.5 70z" />
<glyph unicode="k" horiz-adv-x="856" d="M51 0v1638h205v-1638h-205zM256 666l330 665h219l-336 -665l336 -666h-219z" />
<glyph unicode="l" horiz-adv-x="307" d="M51 0v1638h205v-1638h-205z" />
<glyph unicode="m" horiz-adv-x="1232" d="M51 0v1331h205v-149q29 73 87.5 121.5t148.5 48.5q91 0 140 -44t70 -139q35 82 98.5 132.5t153.5 50.5q132 0 180 -95t48 -321v-936h-205v967q0 101 -25.5 150.5t-87.5 49.5q-71 0 -108 -58.5t-37 -152.5v-956h-205v967q0 101 -25.5 150.5t-87.5 49.5q-71 0 -108 -58.5 t-37 -152.5v-956h-205z" />
<glyph unicode="n" d="M51 0v1331h205v-149q14 31 33.5 58t49 54t72.5 42.5t95 15.5q139 0 196.5 -97.5t57.5 -318.5v-936h-205v967q0 100 -32.5 150t-106.5 50q-81 0 -120.5 -58t-39.5 -153v-956h-205z" />
<glyph unicode="o" d="M51 457v417q0 248 85 363t270 115t269.5 -115t84.5 -363v-417q0 -248 -84.5 -362.5t-269.5 -114.5q-186 0 -270.5 114.5t-84.5 362.5zM256 426q0 -103 18 -161.5t49 -79.5t83 -21t83 21t48.5 79.5t17.5 161.5v479q0 103 -18 161.5t-49 79.5t-82 21q-52 0 -83 -21 t-49 -79.5t-18 -161.5v-479z" />
<glyph unicode="p" d="M51 -410v1741h205v-149q14 31 33.5 58t49 54t72.5 42.5t95 15.5q139 0 196.5 -97.5t57.5 -318.5v-541q0 -220 -57.5 -317.5t-196.5 -97.5q-52 0 -95 15.5t-72.5 42.5t-49 54t-33.5 58v-560h-205zM256 375q0 -95 39.5 -153t120.5 -58q74 0 106.5 50.5t32.5 150.5v602 q0 100 -32.5 150t-106.5 50q-81 0 -120.5 -58t-39.5 -153v-581z" />
<glyph unicode="q" d="M51 395v541q0 221 57.5 318.5t196.5 97.5q52 0 95 -15.5t72.5 -42.5t49 -54t33.5 -58v149h205v-1741h-205v560q-14 -31 -33.5 -58t-49 -54t-72.5 -42.5t-95 -15.5q-139 0 -196.5 97.5t-57.5 317.5zM256 365q0 -100 32.5 -150.5t106.5 -50.5q81 0 120.5 58t39.5 153v581 q0 95 -39.5 153t-120.5 58q-74 0 -106.5 -50t-32.5 -150v-602z" />
<glyph unicode="r" horiz-adv-x="790" d="M51 0v1331h205v-164q83 185 262 185q55 0 94 -17t63.5 -48t38.5 -83t19.5 -112.5t5.5 -145.5v-61h-204v92q0 97 -22.5 143.5t-88.5 46.5q-73 0 -120.5 -76t-47.5 -169v-922h-205z" />
<glyph unicode="s" d="M51 446h205q0 -163 36.5 -222.5t127.5 -59.5q135 0 135 166q0 84 -47 142t-191 167q-8 6 -35.5 26t-37 27.5t-34 28t-34.5 31.5l-30 33t-29 38.5t-22 41t-19 48.5t-10.5 53.5t-4.5 61.5q0 62 17 117t54.5 103t105.5 76t161 28q187 0 269 -111t82 -326h-205q0 102 -19 159 t-48.5 75t-78.5 18q-60 0 -96.5 -37t-36.5 -102q0 -30 7.5 -55t17 -42.5t34.5 -41t42 -37t59.5 -45t67.5 -51.5q56 -44 87.5 -70.5t70.5 -69t59 -80.5t34.5 -91t14.5 -115q0 -350 -340 -350q-206 0 -287.5 107t-81.5 359z" />
<glyph unicode="t" horiz-adv-x="675" d="M51 1147v184q86 25 131 111q43 82 43 187v9h205q0 -112 -44 -199.5t-110 -107.5h349v-184h-226v-701q0 -60 2.5 -97t10 -72t22.5 -53.5t39.5 -29t61.5 -10.5h90v-184h-127q-58 0 -103 9.5t-77 26t-54 46.5t-36 62.5t-21 83t-9.5 99.5t-2.5 119v701h-144z" />
<glyph unicode="u" d="M51 395v936h205v-966q0 -100 32.5 -150.5t106.5 -50.5q81 0 120.5 58t39.5 153v956h205v-1134q0 -53 0.5 -77t5 -56t14.5 -64h-184q-21 21 -31 67t-10 83q-14 -31 -33.5 -58t-49 -54t-72.5 -42.5t-95 -15.5q-139 0 -196.5 97.5t-57.5 317.5z" />
<glyph unicode="v" horiz-adv-x="821" d="M51 1331h205l156 -1052l153 1052h205l-223 -1331h-273z" />
<glyph unicode="w" horiz-adv-x="1542" d="M51 0v1331h205v-1085l344 1085h320v-1085l344 1085h227l-459 -1331h-317v1044l-346 -1044h-318z" />
<glyph unicode="x" horiz-adv-x="937" d="M51 0l287 666l-287 665h221l197 -518l199 518h219l-287 -665l287 -666h-219l-199 520l-197 -520h-221z" />
<glyph unicode="y" d="M51 395v936h205v-966q0 -100 32.5 -150.5t106.5 -50.5q81 0 120.5 58t39.5 153v956h205v-1294q0 -96 -8.5 -162t-31 -123.5t-63.5 -91t-105.5 -52t-156.5 -18.5h-293v185h263q109 0 149.5 60.5t40.5 201.5v113q-14 -31 -33.5 -58t-49 -54t-72.5 -42.5t-95 -15.5 q-139 0 -196.5 97.5t-57.5 317.5z" />
<glyph unicode="z" horiz-adv-x="747" d="M51 0v184l428 963h-428v184h645v-184l-428 -963h428v-184h-645z" />
<glyph unicode="{" horiz-adv-x="368" d="M51 731v176q44 0 62.5 41.5t17.5 108t-8 146.5t-7 160t13.5 146.5t60.5 108t127 41.5v-82q-47 0 -71 -36t-28.5 -95t-1 -131t9 -147.5t4.5 -140.5t-19.5 -114.5t-56.5 -66.5v-53q38 -17 56.5 -66.5t19.5 -115t-4.5 -141t-9 -147.5t1 -131t28.5 -95t71 -36v-81 q-80 0 -127 41.5t-60.5 107.5t-13.5 146t7 160.5t8 146.5t-17.5 107.5t-62.5 41.5z" />
<glyph unicode="|" horiz-adv-x="204" d="M51 -20v1679h103v-1679h-103z" />
<glyph unicode="}" horiz-adv-x="368" d="M51 -20v81q54 0 78.5 48.5t23.5 122.5t-5.5 164t-8.5 170.5t14 144t62 82.5v53q-44 19 -62 82.5t-14 143.5l8.5 170t5.5 164t-23.5 122.5t-78.5 48.5v82q80 0 127 -41.5t60.5 -108t13.5 -146.5t-7 -160t-8 -146.5t17.5 -108t62.5 -41.5v-176q-44 0 -62.5 -41.5 t-17.5 -107.5t8 -146t7 -160.5t-13.5 -146.5t-60.5 -107.5t-127 -41.5z" />
<glyph unicode="~" horiz-adv-x="942" d="M51 594q0 69 19.5 116.5t53 69.5t65 30.5t67.5 8.5q55 0 107 -19t92 -46t77 -54t77 -46t77 -19q47 0 74.5 31.5t27.5 91.5h103q0 -56 -14 -98t-34.5 -66t-49.5 -38.5t-54 -19t-53 -4.5q-67 0 -131.5 29t-107 63.5t-94.5 63.5t-97 29q-47 0 -74.5 -31.5t-27.5 -91.5h-103z " />
<glyph unicode="&#xa1;" horiz-adv-x="337" d="M51 1235q0 53 34 85t85 32q49 0 83 -32.5t34 -84.5q0 -53 -34 -86t-83 -33q-51 0 -85 33t-34 86zM68 -307l8 1126h184l12 -1126h-204z" />
<glyph unicode="&#xa2;" horiz-adv-x="872" d="M51 819q0 218 91.5 351t242.5 157v332h102v-330q153 -15 243.5 -131.5t90.5 -292.5h-102q0 144 -64.5 226t-167.5 96v-815q104 14 168 95.5t64 225.5h102q0 -176 -90.5 -292.5t-243.5 -131.5v-329h-102v331q-151 24 -242.5 157t-91.5 351zM154 819q0 -183 64 -282 t167 -121v807q-103 -22 -167 -121.5t-64 -282.5z" />
<glyph unicode="&#xa3;" horiz-adv-x="843" d="M51 0v92q62 42 98.5 98.5t48 128t9 139.5t-16.5 160h-139v103h121q-3 14 -17.5 90.5t-19 105t-13.5 88t-12.5 106.5t-3.5 93q0 123 27.5 214t76 142t107 75t129.5 24t130.5 -26.5t109.5 -83.5t78.5 -158.5t28.5 -239.5h-103q0 405 -244 405q-55 0 -96 -17t-74 -56.5 t-50 -109.5t-17 -169q0 -39 3 -83.5t6.5 -77t12.5 -85.5t13 -76.5t15.5 -84t14.5 -76.5h367v-103h-348q14 -92 16.5 -160t-9 -139.5t-48 -128t-98.5 -98.5h639v-92h-742z" />
<glyph unicode="&#xa4;" horiz-adv-x="745" d="M51 385l113 154q-70 112 -70 280q0 169 70 281l-113 153l72 72l108 -151q59 47 142 47q80 0 141 -45l109 149l71 -72l-112 -155q69 -110 69 -279q0 -170 -69 -280l112 -154l-71 -72l-109 152q-59 -47 -141 -47q-83 0 -142 47l-108 -152zM197 819q0 -85 18 -150.5 t58.5 -107t99.5 -41.5t99.5 41.5t58.5 107t18 150.5t-18 150.5t-58.5 107t-99.5 41.5t-99.5 -41.5t-58.5 -107t-18 -150.5z" />
<glyph unicode="&#xa5;" horiz-adv-x="999" d="M51 1638h113l336 -919l336 919h112l-368 -989h239v-102h-268v-82h268v-103h-268v-362h-102v362h-269v103h269v82h-269v102h240z" />
<glyph unicode="&#xa6;" horiz-adv-x="204" d="M51 -20v655h103v-655h-103zM51 1004v655h103v-655h-103z" />
<glyph unicode="&#xa7;" d="M51 739q0 90 45 132.5t125 54.5q-78 44 -113.5 102t-35.5 150q0 121 78.5 201.5t244.5 80.5q344 0 344 -405h-102q0 66 -10 116t-35 94.5t-75 68.5t-122 24q-125 0 -173 -48t-48 -132q0 -98 70.5 -153t216.5 -97q167 -48 233 -95.5t66 -132.5q0 -90 -45 -132t-125 -54 q78 -44 113.5 -102t35.5 -150q0 -121 -78.5 -201.5t-244.5 -80.5q-344 0 -344 405h102q0 -66 10 -116t35 -94.5t75 -68.5t122 -24q125 0 173 48t48 132q0 98 -70.5 153t-216.5 97q-167 48 -233 95t-66 132zM154 762q0 -58 47.5 -89t189.5 -77h2q64 -21 112.5 -26.5t76.5 2 t45.5 25t23.5 37t6 44.5q0 58 -47.5 89t-189.5 77h-2q-64 21 -112.5 26.5t-76.5 -2t-45.5 -25t-23.5 -37t-6 -44.5z" />
<glyph unicode="&#xa8;" horiz-adv-x="542" d="M20 1563q0 40 26 64t63 24q35 0 60.5 -24t25.5 -64q0 -37 -25.5 -61.5t-60.5 -24.5q-36 0 -62.5 24.5t-26.5 61.5zM348 1563q0 40 25.5 64t62.5 24q35 0 60.5 -24t25.5 -64q0 -37 -25.5 -61.5t-60.5 -24.5q-36 0 -62 24.5t-26 61.5z" />
<glyph unicode="&#xa9;" horiz-adv-x="1298" d="M51 819q0 -839 598 -839t598 839q0 840 -598 840t-598 -840zM154 819q0 131 15 238.5t50.5 202t91.5 158.5t141.5 101t196.5 37t197 -37t142 -101t91.5 -158.5t50.5 -202t15 -238.5t-15 -238.5t-50.5 -202t-91.5 -158.5t-142 -101t-197 -37t-196.5 37t-141.5 101 t-91.5 158.5t-50.5 202t-15 238.5zM305 819q0 219 93 345t261 126q100 0 177.5 -53.5t117 -140.5t39.5 -191h-102q0 131 -66.5 207t-165.5 76q-118 0 -184.5 -90t-66.5 -279t66.5 -278.5t184.5 -89.5q100 0 166 75.5t66 206.5h102q0 -104 -39.5 -191t-117 -140.5 t-177.5 -53.5q-168 0 -261 126t-93 345z" />
<glyph unicode="&#xab;" horiz-adv-x="694" d="M51 635v82l305 325v-122l-227 -244l227 -244v-123zM338 635v82l305 325v-122l-227 -244l227 -244v-123z" />
<glyph unicode="&#xac;" horiz-adv-x="942" d="M51 625v102h840v-387h-103v285h-737z" />
<glyph unicode="&#xad;" horiz-adv-x="942" d="M51 625v102h840v-102h-840z" />
<glyph unicode="&#xae;" horiz-adv-x="888" d="M51 1147q0 -50 4.5 -97t16 -99.5t30 -96.5t49.5 -85.5t71 -70.5t96.5 -46t125.5 -17q80 0 143.5 22.5t105.5 62.5t71.5 89t45 109.5t22 115t6.5 113.5t-6.5 113.5t-22 115t-45 109.5t-71.5 89t-105.5 62.5t-143.5 22.5q-69 0 -125.5 -17t-96.5 -46t-71 -70.5t-49.5 -85.5 t-30 -96.5t-16 -99.5t-4.5 -97zM154 1147q0 54 5 102.5t23.5 107t48.5 100.5t85 70.5t128 28.5t128 -28.5t85.5 -70.5t48.5 -100.5t23.5 -107t5.5 -102.5q0 -44 -4 -84.5t-14.5 -90t-31.5 -89t-51.5 -74t-79 -53.5t-110.5 -19q-73 0 -128 28.5t-85 70.5t-48.5 101 t-23.5 107.5t-5 102.5zM295 926v454h143q99 0 142 -41.5t43 -121.5q0 -100 -64 -138l62 -153h-111l-51 127h-62v-127h-102zM397 1155h41q43 0 62.5 14.5t19.5 47.5t-19.5 47t-62.5 14h-41v-123z" />
<glyph unicode="&#xaf;" horiz-adv-x="624" d="M20 1528v82h584v-82h-584z" />
<glyph unicode="&#xb0;" horiz-adv-x="602" d="M51 1352q0 -61 13.5 -114t41.5 -98t78 -70.5t117 -25.5t117 25.5t78 70.5t41.5 98t13.5 114t-13.5 114t-41.5 97.5t-78 70t-117 25.5t-117 -25.5t-78 -70t-41.5 -97.5t-13.5 -114zM154 1352q0 204 147 204q148 0 148 -204q0 -205 -148 -205q-147 0 -147 205z" />
<glyph unicode="&#xb1;" horiz-adv-x="942" d="M51 246v102h369v277h-369v102h369v369h102v-369h369v-102h-369v-277h369v-102h-840z" />
<glyph unicode="&#xb4;" horiz-adv-x="624" d="M20 1532l564 151l20 -79l-563 -150z" />
<glyph unicode="&#xb6;" horiz-adv-x="681" d="M51 1282q0 113 16 184t53 108.5t83.5 50.5t120.5 13h102v-1638h-102v926q-74 0 -120.5 13t-83.5 50.5t-53 108.5t-16 184zM528 0v1638h103v-1638h-103z" />
<glyph unicode="&#xb7;" horiz-adv-x="337" d="M51 668q0 54 34 86t85 32q49 0 83 -32t34 -86q0 -51 -34.5 -84t-82.5 -33q-50 0 -84.5 32.5t-34.5 84.5z" />
<glyph unicode="&#xb8;" horiz-adv-x="411" d="M20 -424l3 82q147 0 206.5 15.5t59.5 66.5q0 27 -13 42t-44.5 19.5t-69 2t-99.5 -10.5l31 207h103l-33 -137q227 37 227 -123q0 -34 -14 -60.5t-33.5 -43.5t-54.5 -29t-62 -18t-72 -9t-68.5 -3.5t-66.5 -0.5z" />
<glyph unicode="&#xbb;" horiz-adv-x="694" d="M51 309v123l228 244l-228 244v122l305 -325v-82zM338 309v123l227 244l-227 244v122l305 -325v-82z" />
<glyph unicode="&#xbf;" d="M51 31q0 70 17.5 130t45.5 105.5t61.5 89t67 89.5t61.5 97t45.5 122.5t17.5 154.5h184q0 -131 -30.5 -235t-73.5 -169t-86.5 -120t-74 -116t-30.5 -128q0 -174 133 -174q84 0 125 64t41 229h205q0 -250 -90 -374t-281 -124q-170 0 -254 99t-84 260zM340 1235q0 53 34 85 t85 32q49 0 82.5 -32t33.5 -85t-33.5 -86t-82.5 -33q-51 0 -85 33t-34 86z" />
<glyph unicode="&#xc0;" horiz-adv-x="862" d="M51 0l238 1638h286l236 -1638h-205l-41 330h-268l-41 -330h-205zM139 1911l21 80l563 -152l-21 -78zM324 535h217l-109 864z" />
<glyph unicode="&#xc1;" horiz-adv-x="862" d="M51 0l238 1638h286l236 -1638h-205l-41 330h-268l-41 -330h-205zM139 1839l563 152l21 -80l-563 -150zM324 535h217l-109 864z" />
<glyph unicode="&#xc2;" horiz-adv-x="862" d="M51 0l238 1638h286l236 -1638h-205l-41 330h-268l-41 -330h-205zM139 1761l223 230h144l217 -230h-133l-156 168l-162 -168h-133zM324 535h217l-109 864z" />
<glyph unicode="&#xc3;" horiz-adv-x="862" d="M51 0l238 1638h286l236 -1638h-205l-41 330h-268l-41 -330h-205zM139 1786q0 205 164 205q44 0 77.5 -15t53.5 -37t37 -44t37.5 -37t44.5 -15q68 0 68 123h102q0 -205 -164 -205q-44 0 -77.5 15t-53.5 37t-37 44t-37.5 37t-44.5 15q-67 0 -67 -123h-103zM324 535h217 l-109 864z" />
<glyph unicode="&#xc4;" horiz-adv-x="862" d="M51 0l238 1638h286l236 -1638h-205l-41 330h-268l-41 -330h-205zM180 1870q0 40 25.5 64t62.5 24q35 0 60.5 -24t25.5 -64q0 -37 -25.5 -61.5t-60.5 -24.5q-36 0 -62 24.5t-26 61.5zM324 535h217l-109 864zM508 1870q0 40 25.5 64t62.5 24q35 0 60.5 -24t25.5 -64 q0 -37 -25.5 -61.5t-60.5 -24.5q-36 0 -62 24.5t-26 61.5z" />
<glyph unicode="&#xc5;" horiz-adv-x="862" d="M51 0l238 1638h286l236 -1638h-205l-41 330h-268l-41 -330h-205zM297 1896q0 58 40 97t95 39t95 -39t40 -97q0 -57 -40 -96t-95 -39t-95 39t-40 96zM324 535h217l-109 864zM379 1896q0 -24 14.5 -38.5t38.5 -14.5t38.5 14.5t14.5 38.5t-14.5 39t-38.5 15t-38.5 -15 t-14.5 -39z" />
<glyph unicode="&#xc6;" horiz-adv-x="1187" d="M51 0l242 1638h844v-204h-318v-512h318v-205h-318v-512h318v-205h-523v330h-309l-49 -330h-205zM332 535h282v899h-151z" />
<glyph unicode="&#xc7;" d="M51 436v766q0 243 86.5 350t268.5 107t268 -107t86 -350v-229h-205v229q0 145 -30.5 198.5t-118.5 53.5t-119 -53.5t-31 -198.5v-766q0 -145 31 -198.5t119 -53.5t118.5 53.5t30.5 198.5v230h205v-230q0 -227 -75 -334.5t-232 -119.5l-29 -119q227 37 227 -123 q0 -34 -14 -60.5t-33.5 -43.5t-54 -29t-62 -18t-72 -9t-68 -3.5t-66.5 -0.5l2 82q147 0 206.5 15.5t59.5 66.5q0 52 -56.5 62t-168.5 -9l28 189q-154 14 -227.5 122t-73.5 332z" />
<glyph unicode="&#xc8;" horiz-adv-x="624" d="M20 1911l21 80l563 -152l-20 -78zM51 0v1638h522v-204h-317v-512h317v-205h-317v-512h317v-205h-522z" />
<glyph unicode="&#xc9;" horiz-adv-x="624" d="M20 1839l564 152l20 -80l-563 -150zM51 0v1638h522v-204h-317v-512h317v-205h-317v-512h317v-205h-522z" />
<glyph unicode="&#xca;" horiz-adv-x="624" d="M20 1761l224 230h143l217 -230h-133l-156 168l-161 -168h-134zM51 0v1638h522v-204h-317v-512h317v-205h-317v-512h317v-205h-522z" />
<glyph unicode="&#xcb;" horiz-adv-x="624" d="M51 0v1638h522v-204h-317v-512h317v-205h-317v-512h317v-205h-522zM61 1870q0 40 26 64t63 24q35 0 60.5 -24t25.5 -64q0 -37 -25.5 -61.5t-60.5 -24.5q-36 0 -62.5 24.5t-26.5 61.5zM389 1870q0 40 25.5 64t62.5 24q35 0 60.5 -24t25.5 -64q0 -37 -25.5 -61.5 t-60.5 -24.5q-36 0 -62 24.5t-26 61.5z" />
<glyph unicode="&#xcc;" horiz-adv-x="307" d="M-139 1911l20 80l563 -152l-20 -78zM51 0v1638h205v-1638h-205z" />
<glyph unicode="&#xcd;" horiz-adv-x="307" d="M-139 1839l563 152l20 -80l-563 -150zM51 0v1638h205v-1638h-205z" />
<glyph unicode="&#xce;" horiz-adv-x="307" d="M-139 1761l223 230h143l217 -230h-133l-155 168l-162 -168h-133zM51 0v1638h205v-1638h-205z" />
<glyph unicode="&#xcf;" horiz-adv-x="307" d="M-98 1870q0 40 25 64t61 24q37 0 62.5 -24t25.5 -64q0 -37 -26 -61.5t-62 -24.5t-61 24t-25 62zM51 0v1638h205v-1638h-205zM229 1870q0 40 25.5 64t62.5 24q35 0 60.5 -24t25.5 -64q0 -37 -25.5 -61.5t-60.5 -24.5q-36 0 -62 24.5t-26 61.5z" />
<glyph unicode="&#xd0;" horiz-adv-x="933" d="M0 778v82h170v778h246q86 0 149.5 -7.5t118 -26t90 -50t61 -80.5t37 -115.5t11.5 -156.5v-766q0 -106 -17.5 -181t-51.5 -125t-92 -78.5t-130 -40t-176 -11.5h-246v778h-170zM375 205h43q80 0 125.5 7.5t78.5 32.5t44.5 70t11.5 121v766q0 76 -11.5 121t-44.5 70 t-78.5 33t-125.5 8h-43v-574h209v-82h-209v-573z" />
<glyph unicode="&#xd1;" horiz-adv-x="919" d="M51 0v1638h205l408 -1089v1089h204v-1638h-204l-408 1092v-1092h-205zM168 1786q0 205 164 205q44 0 77.5 -15t53.5 -37t37 -44t37.5 -37t44.5 -15q67 0 67 123h103q0 -205 -164 -205q-44 0 -77.5 15t-53.5 37t-37 44t-37.5 37t-44.5 15q-68 0 -68 -123h-102z" />
<glyph unicode="&#xd2;" d="M51 436v766q0 243 86.5 350t268.5 107t268 -107t86 -350v-766q0 -243 -86 -349.5t-268 -106.5t-268.5 106.5t-86.5 349.5zM113 1911l20 80l563 -152l-20 -78zM256 436q0 -145 31 -198.5t119 -53.5t118.5 53.5t30.5 198.5v766q0 145 -30.5 198.5t-118.5 53.5t-119 -53.5 t-31 -198.5v-766z" />
<glyph unicode="&#xd3;" d="M51 436v766q0 243 86.5 350t268.5 107t268 -107t86 -350v-766q0 -243 -86 -349.5t-268 -106.5t-268.5 106.5t-86.5 349.5zM113 1839l563 152l20 -80l-563 -150zM256 436q0 -145 31 -198.5t119 -53.5t118.5 53.5t30.5 198.5v766q0 145 -30.5 198.5t-118.5 53.5t-119 -53.5 t-31 -198.5v-766z" />
<glyph unicode="&#xd4;" d="M51 436v766q0 243 86.5 350t268.5 107t268 -107t86 -350v-766q0 -243 -86 -349.5t-268 -106.5t-268.5 106.5t-86.5 349.5zM113 1761l223 230h143l217 -230h-133l-155 168l-162 -168h-133zM256 436q0 -145 31 -198.5t119 -53.5t118.5 53.5t30.5 198.5v766 q0 145 -30.5 198.5t-118.5 53.5t-119 -53.5t-31 -198.5v-766z" />
<glyph unicode="&#xd5;" d="M51 436v766q0 243 86.5 350t268.5 107t268 -107t86 -350v-766q0 -243 -86 -349.5t-268 -106.5t-268.5 106.5t-86.5 349.5zM113 1786q0 205 163 205q44 0 77.5 -15t53.5 -37t37 -44t37.5 -37t44.5 -15q68 0 68 123h102q0 -205 -164 -205q-44 0 -77.5 15t-53.5 37t-36.5 44 t-37 37t-44.5 15q-68 0 -68 -123h-102zM256 436q0 -145 31 -198.5t119 -53.5t118.5 53.5t30.5 198.5v766q0 145 -30.5 198.5t-118.5 53.5t-119 -53.5t-31 -198.5v-766z" />
<glyph unicode="&#xd6;" d="M51 436v766q0 243 86.5 350t268.5 107t268 -107t86 -350v-766q0 -243 -86 -349.5t-268 -106.5t-268.5 106.5t-86.5 349.5zM154 1870q0 40 25.5 64t62.5 24q35 0 60.5 -24t25.5 -64q0 -37 -25.5 -61.5t-60.5 -24.5q-36 0 -62 24.5t-26 61.5zM256 436q0 -145 31 -198.5 t119 -53.5t118.5 53.5t30.5 198.5v766q0 145 -30.5 198.5t-118.5 53.5t-119 -53.5t-31 -198.5v-766zM481 1870q0 40 25.5 64t62.5 24q35 0 60.5 -24t25.5 -64q0 -37 -25.5 -61.5t-60.5 -24.5q-36 0 -62 24.5t-26 61.5z" />
<glyph unicode="&#xd7;" horiz-adv-x="804" d="M70 393l262 262l-262 260l73 72l260 -260l261 260l71 -74l-258 -258l260 -262l-73 -71l-261 260l-262 -263z" />
<glyph unicode="&#xd8;" d="M47 -20l57 159q-53 106 -53 297v766q0 243 86.5 350t268.5 107q143 0 227 -66l22 66h109l-57 -160q53 -106 53 -297v-766q0 -243 -86 -349.5t-268 -106.5q-146 0 -228 65l-22 -65h-109zM256 557l287 793q-12 56 -44 80t-93 24q-88 0 -119 -53.5t-31 -198.5v-645zM268 289 q12 -56 44.5 -80.5t93.5 -24.5q88 0 118.5 53.5t30.5 198.5v645z" />
<glyph unicode="&#xd9;" d="M51 436v1202h205v-1202q0 -145 31 -198.5t119 -53.5t118.5 53.5t30.5 198.5v1202h205v-1202q0 -243 -86 -349.5t-268 -106.5t-268.5 106.5t-86.5 349.5zM113 1911l20 80l563 -152l-20 -78z" />
<glyph unicode="&#xda;" d="M51 436v1202h205v-1202q0 -145 31 -198.5t119 -53.5t118.5 53.5t30.5 198.5v1202h205v-1202q0 -243 -86 -349.5t-268 -106.5t-268.5 106.5t-86.5 349.5zM113 1839l563 152l20 -80l-563 -150z" />
<glyph unicode="&#xdb;" d="M51 436v1202h205v-1202q0 -145 31 -198.5t119 -53.5t118.5 53.5t30.5 198.5v1202h205v-1202q0 -243 -86 -349.5t-268 -106.5t-268.5 106.5t-86.5 349.5zM113 1761l223 230h143l217 -230h-133l-155 168l-162 -168h-133z" />
<glyph unicode="&#xdc;" d="M51 436v1202h205v-1202q0 -145 31 -198.5t119 -53.5t118.5 53.5t30.5 198.5v1202h205v-1202q0 -243 -86 -349.5t-268 -106.5t-268.5 106.5t-86.5 349.5zM154 1870q0 40 25.5 64t62.5 24q35 0 60.5 -24t25.5 -64q0 -37 -25.5 -61.5t-60.5 -24.5q-36 0 -62 24.5t-26 61.5z M481 1870q0 40 25.5 64t62.5 24q35 0 60.5 -24t25.5 -64q0 -37 -25.5 -61.5t-60.5 -24.5q-36 0 -62 24.5t-26 61.5z" />
<glyph unicode="&#xdd;" horiz-adv-x="937" d="M51 1638h217l201 -802l201 802h217l-316 -1065v-573h-204v573zM176 1839l563 152l21 -80l-563 -150z" />
<glyph unicode="&#xde;" horiz-adv-x="815" d="M51 0v1638h205v-307q106 0 184 -10.5t135 -35t93.5 -59t57.5 -88t29.5 -115.5t8.5 -149v-145q0 -86 -8 -147.5t-30 -114.5t-58 -87t-93 -59t-135 -36t-184 -13v-272h-205zM256 477q68 0 114 4t81 16t55 29t32.5 47t16.5 66t4 90v145q0 55 -4 91t-16.5 66t-32.5 47 t-55.5 28.5t-81 15.5t-113.5 4v-649z" />
<glyph unicode="&#xdf;" horiz-adv-x="851" d="M51 0v1151q0 261 79 384.5t280 123.5q183 0 266.5 -112t83.5 -304q0 -289 -146 -385q187 -97 187 -422q0 -239 -86 -337.5t-295 -98.5h-96v184h96q54 0 90 21t54.5 63t25 90.5t6.5 118.5q0 283 -197 283h-75v184h75q50 0 82.5 20t48 58.5t20.5 77t5 92.5q0 153 -32 218 t-113 65q-83 0 -118.5 -72.5t-35.5 -251.5v-1151h-205z" />
<glyph unicode="&#xe0;" horiz-adv-x="851" d="M51 315q0 94 29 169.5t75 124t102 88t112 71t102 63t75 73.5t29 93q0 170 -137 170q-75 0 -112 -50.5t-37 -160.5v-51h-205v31q0 97 17.5 170.5t57.5 130t110 86t169 29.5q77 0 136.5 -19.5t98 -54t63 -85.5t34.5 -108.5t10 -128.5v-761q0 -111 21 -195h-185 q-21 28 -31 71.5t-10 78.5q-72 -170 -253 -170q-121 0 -196 85.5t-75 249.5zM133 1604l21 79l563 -151l-21 -78zM256 344q0 -83 36 -131.5t111 -48.5q38 0 71 17.5t53 43t31.5 48t16.5 40.5v424q-14 -30 -53 -62.5t-82.5 -62.5t-86 -65.5t-70 -88t-27.5 -114.5z" />
<glyph unicode="&#xe1;" horiz-adv-x="851" d="M51 315q0 94 29 169.5t75 124t102 88t112 71t102 63t75 73.5t29 93q0 170 -137 170q-75 0 -112 -50.5t-37 -160.5v-51h-205v31q0 97 17.5 170.5t57.5 130t110 86t169 29.5q77 0 136.5 -19.5t98 -54t63 -85.5t34.5 -108.5t10 -128.5v-761q0 -111 21 -195h-185 q-21 28 -31 71.5t-10 78.5q-72 -170 -253 -170q-121 0 -196 85.5t-75 249.5zM133 1532l563 151l21 -79l-563 -150zM256 344q0 -83 36 -131.5t111 -48.5q38 0 71 17.5t53 43t31.5 48t16.5 40.5v424q-14 -30 -53 -62.5t-82.5 -62.5t-86 -65.5t-70 -88t-27.5 -114.5z" />
<glyph unicode="&#xe2;" horiz-adv-x="851" d="M51 315q0 94 29 169.5t75 124t102 88t112 71t102 63t75 73.5t29 93q0 170 -137 170q-75 0 -112 -50.5t-37 -160.5v-51h-205v31q0 97 17.5 170.5t57.5 130t110 86t169 29.5q77 0 136.5 -19.5t98 -54t63 -85.5t34.5 -108.5t10 -128.5v-761q0 -111 21 -195h-185 q-21 28 -31 71.5t-10 78.5q-72 -170 -253 -170q-121 0 -196 85.5t-75 249.5zM133 1454l223 229h144l217 -229h-133l-156 168l-162 -168h-133zM256 344q0 -83 36 -131.5t111 -48.5q38 0 71 17.5t53 43t31.5 48t16.5 40.5v424q-14 -30 -53 -62.5t-82.5 -62.5t-86 -65.5 t-70 -88t-27.5 -114.5z" />
<glyph unicode="&#xe3;" horiz-adv-x="851" d="M51 315q0 94 29 169.5t75 124t102 88t112 71t102 63t75 73.5t29 93q0 170 -137 170q-75 0 -112 -50.5t-37 -160.5v-51h-205v31q0 97 17.5 170.5t57.5 130t110 86t169 29.5q77 0 136.5 -19.5t98 -54t63 -85.5t34.5 -108.5t10 -128.5v-761q0 -111 21 -195h-185 q-21 28 -31 71.5t-10 78.5q-72 -170 -253 -170q-121 0 -196 85.5t-75 249.5zM133 1479q0 204 164 204q44 0 77.5 -15t53.5 -36.5t37 -43.5t37.5 -37t44.5 -15q67 0 67 123h103q0 -205 -164 -205q-44 0 -77.5 15t-53.5 37t-37 44t-37.5 37t-44.5 15q-67 0 -67 -123h-103z M256 344q0 -83 36 -131.5t111 -48.5q38 0 71 17.5t53 43t31.5 48t16.5 40.5v424q-14 -30 -53 -62.5t-82.5 -62.5t-86 -65.5t-70 -88t-27.5 -114.5z" />
<glyph unicode="&#xe4;" horiz-adv-x="851" d="M51 315q0 94 29 169.5t75 124t102 88t112 71t102 63t75 73.5t29 93q0 170 -137 170q-75 0 -112 -50.5t-37 -160.5v-51h-205v31q0 97 17.5 170.5t57.5 130t110 86t169 29.5q77 0 136.5 -19.5t98 -54t63 -85.5t34.5 -108.5t10 -128.5v-761q0 -111 21 -195h-185 q-21 28 -31 71.5t-10 78.5q-72 -170 -253 -170q-121 0 -196 85.5t-75 249.5zM174 1563q0 40 25.5 64t62.5 24q35 0 60.5 -24t25.5 -64q0 -37 -25.5 -61.5t-60.5 -24.5q-36 0 -62 24.5t-26 61.5zM256 344q0 -83 36 -131.5t111 -48.5q38 0 71 17.5t53 43t31.5 48t16.5 40.5 v424q-14 -30 -53 -62.5t-82.5 -62.5t-86 -65.5t-70 -88t-27.5 -114.5zM502 1563q0 40 25.5 64t62.5 24q35 0 60.5 -24t25.5 -64q0 -37 -25.5 -61.5t-60.5 -24.5q-36 0 -62 24.5t-26 61.5z" />
<glyph unicode="&#xe5;" horiz-adv-x="851" d="M51 315q0 94 29 169.5t75 124t102 88t112 71t102 63t75 73.5t29 93q0 170 -137 170q-75 0 -112 -50.5t-37 -160.5v-51h-205v31q0 97 17.5 170.5t57.5 130t110 86t169 29.5q77 0 136.5 -19.5t98 -54t63 -85.5t34.5 -108.5t10 -128.5v-761q0 -111 21 -195h-185 q-21 28 -31 71.5t-10 78.5q-72 -170 -253 -170q-121 0 -196 85.5t-75 249.5zM256 344q0 -83 36 -131.5t111 -48.5q38 0 71 17.5t53 43t31.5 48t16.5 40.5v424q-14 -30 -53 -62.5t-82.5 -62.5t-86 -65.5t-70 -88t-27.5 -114.5zM291 1589q0 57 40 96t95 39t95 -39t40 -96 t-40 -96t-95 -39t-95 39t-40 96zM373 1589q0 -24 14.5 -38.5t38.5 -14.5t38.5 14.5t14.5 38.5t-14.5 38.5t-38.5 14.5t-38.5 -14.5t-14.5 -38.5z" />
<glyph unicode="&#xe6;" horiz-adv-x="1294" d="M51 291q0 93 26.5 169t69.5 126.5t94.5 93t103 77t94.5 68.5t69.5 78t26.5 96q0 168 -115 168q-131 0 -131 -211v-51h-205v31q0 416 313 416q147 0 226 -113q85 113 270 113t267.5 -114.5t82.5 -363.5v-239h-504v-209q0 -150 37.5 -206t116.5 -56q52 0 82 21t46.5 79 t16.5 162v96h205v-65q0 -249 -82.5 -363t-267.5 -114q-225 0 -305 170q-45 -90 -108 -130t-156 -40q-117 0 -195 79.5t-78 231.5zM256 344q0 -82 34 -131t101 -49q88 0 158 108q-14 74 -14 185v274q-14 -30 -49 -61.5t-72.5 -60.5t-74 -64t-60 -87t-23.5 -114zM739 778h299 v127q0 103 -17 161.5t-47 79.5t-81 21q-79 0 -116.5 -56t-37.5 -206v-127z" />
<glyph unicode="&#xe7;" d="M51 457v417q0 248 86.5 363t272.5 115q185 0 267.5 -114.5t82.5 -363.5v-65h-205v96q0 103 -17 161.5t-47 79.5t-81 21q-79 0 -116.5 -56t-37.5 -206v-479q0 -150 37.5 -206t116.5 -56q52 0 82 21t46.5 79t16.5 162v96h205v-65q0 -234 -73 -348.5t-234 -126.5l-29 -119 q227 37 227 -123q0 -34 -14 -60.5t-33.5 -43.5t-54 -29t-62 -18t-72 -9t-68 -3.5t-66.5 -0.5l2 82q147 0 206.5 15.5t59.5 66.5q0 52 -56.5 62t-168.5 -9l28 189q-155 17 -228 132.5t-73 342.5z" />
<glyph unicode="&#xe8;" d="M51 457v417q0 248 86.5 363t272.5 115q185 0 267.5 -114.5t82.5 -363.5v-239h-504v-209q0 -150 37.5 -206t116.5 -56q52 0 82 21t46.5 79t16.5 162v96h205v-65q0 -249 -82.5 -363t-267.5 -114q-186 0 -272.5 115t-86.5 362zM113 1604l20 79l563 -151l-20 -78zM256 778 h299v127q0 103 -17 161.5t-47 79.5t-81 21q-79 0 -116.5 -56t-37.5 -206v-127z" />
<glyph unicode="&#xe9;" d="M51 457v417q0 248 86.5 363t272.5 115q185 0 267.5 -114.5t82.5 -363.5v-239h-504v-209q0 -150 37.5 -206t116.5 -56q52 0 82 21t46.5 79t16.5 162v96h205v-65q0 -249 -82.5 -363t-267.5 -114q-186 0 -272.5 115t-86.5 362zM113 1532l563 151l20 -79l-563 -150zM256 778 h299v127q0 103 -17 161.5t-47 79.5t-81 21q-79 0 -116.5 -56t-37.5 -206v-127z" />
<glyph unicode="&#xea;" d="M51 457v417q0 248 86.5 363t272.5 115q185 0 267.5 -114.5t82.5 -363.5v-239h-504v-209q0 -150 37.5 -206t116.5 -56q52 0 82 21t46.5 79t16.5 162v96h205v-65q0 -249 -82.5 -363t-267.5 -114q-186 0 -272.5 115t-86.5 362zM113 1454l223 229h143l217 -229h-133l-155 168 l-162 -168h-133zM256 778h299v127q0 103 -17 161.5t-47 79.5t-81 21q-79 0 -116.5 -56t-37.5 -206v-127z" />
<glyph unicode="&#xeb;" d="M51 457v417q0 248 86.5 363t272.5 115q185 0 267.5 -114.5t82.5 -363.5v-239h-504v-209q0 -150 37.5 -206t116.5 -56q52 0 82 21t46.5 79t16.5 162v96h205v-65q0 -249 -82.5 -363t-267.5 -114q-186 0 -272.5 115t-86.5 362zM154 1563q0 40 25.5 64t62.5 24q35 0 60.5 -24 t25.5 -64q0 -37 -25.5 -61.5t-60.5 -24.5q-36 0 -62 24.5t-26 61.5zM256 778h299v127q0 103 -17 161.5t-47 79.5t-81 21q-79 0 -116.5 -56t-37.5 -206v-127zM481 1563q0 40 25.5 64t62.5 24q35 0 60.5 -24t25.5 -64q0 -37 -25.5 -61.5t-60.5 -24.5q-36 0 -62 24.5t-26 61.5z " />
<glyph unicode="&#xec;" horiz-adv-x="307" d="M-139 1604l20 79l563 -151l-20 -78zM51 0v1331h205v-1331h-205z" />
<glyph unicode="&#xed;" horiz-adv-x="307" d="M-139 1532l563 151l20 -79l-563 -150zM51 0v1331h205v-1331h-205z" />
<glyph unicode="&#xee;" horiz-adv-x="307" d="M-139 1454l223 229h143l217 -229h-133l-155 168l-162 -168h-133zM51 0v1331h205v-1331h-205z" />
<glyph unicode="&#xef;" horiz-adv-x="307" d="M-98 1563q0 40 25 64t61 24q37 0 62.5 -24t25.5 -64q0 -37 -26 -61.5t-62 -24.5t-61 24t-25 62zM51 0v1331h205v-1331h-205zM229 1563q0 40 25.5 64t62.5 24q35 0 60.5 -24t25.5 -64q0 -37 -25.5 -61.5t-60.5 -24.5q-36 0 -62 24.5t-26 61.5z" />
<glyph unicode="&#xf0;" horiz-adv-x="950" d="M51 514q0 94 22.5 179.5t67 157.5t120.5 114.5t175 42.5q159 0 248 -138q-52 242 -213 400l-334 -207v115l256 157q-85 68 -215 125l82 178q179 -72 311 -192l273 168v-115l-203 -125q258 -293 258 -794q0 -280 -112 -440t-322 -160q-197 0 -305.5 142.5t-108.5 391.5z M256 506q0 -169 55 -250.5t166 -81.5q119 0 168 85.5t49 254.5q-7 164 -64.5 231.5t-152.5 67.5q-103 0 -162 -81t-59 -226z" />
<glyph unicode="&#xf1;" d="M51 0v1331h205v-149q14 31 33.5 58t49 54t72.5 42.5t95 15.5q139 0 196.5 -97.5t57.5 -318.5v-936h-205v967q0 100 -32.5 150t-106.5 50q-81 0 -120.5 -58t-39.5 -153v-956h-205zM113 1479q0 204 163 204q44 0 77.5 -15t53.5 -36.5t37 -43.5t37.5 -37t44.5 -15 q68 0 68 123h102q0 -205 -164 -205q-44 0 -77.5 15t-53.5 37t-36.5 44t-37 37t-44.5 15q-68 0 -68 -123h-102z" />
<glyph unicode="&#xf2;" d="M51 457v417q0 248 85 363t270 115t269.5 -115t84.5 -363v-417q0 -248 -84.5 -362.5t-269.5 -114.5q-186 0 -270.5 114.5t-84.5 362.5zM113 1604l20 79l563 -151l-20 -78zM256 426q0 -103 18 -161.5t49 -79.5t83 -21t83 21t48.5 79.5t17.5 161.5v479q0 103 -18 161.5 t-49 79.5t-82 21q-52 0 -83 -21t-49 -79.5t-18 -161.5v-479z" />
<glyph unicode="&#xf3;" d="M51 457v417q0 248 85 363t270 115t269.5 -115t84.5 -363v-417q0 -248 -84.5 -362.5t-269.5 -114.5q-186 0 -270.5 114.5t-84.5 362.5zM113 1532l563 151l20 -79l-563 -150zM256 426q0 -103 18 -161.5t49 -79.5t83 -21t83 21t48.5 79.5t17.5 161.5v479q0 103 -18 161.5 t-49 79.5t-82 21q-52 0 -83 -21t-49 -79.5t-18 -161.5v-479z" />
<glyph unicode="&#xf4;" d="M51 457v417q0 248 85 363t270 115t269.5 -115t84.5 -363v-417q0 -248 -84.5 -362.5t-269.5 -114.5q-186 0 -270.5 114.5t-84.5 362.5zM113 1454l223 229h143l217 -229h-133l-155 168l-162 -168h-133zM256 426q0 -103 18 -161.5t49 -79.5t83 -21t83 21t48.5 79.5 t17.5 161.5v479q0 103 -18 161.5t-49 79.5t-82 21q-52 0 -83 -21t-49 -79.5t-18 -161.5v-479z" />
<glyph unicode="&#xf5;" d="M51 457v417q0 248 85 363t270 115t269.5 -115t84.5 -363v-417q0 -248 -84.5 -362.5t-269.5 -114.5q-186 0 -270.5 114.5t-84.5 362.5zM113 1479q0 204 163 204q44 0 77.5 -15t53.5 -36.5t37 -43.5t37.5 -37t44.5 -15q68 0 68 123h102q0 -205 -164 -205q-44 0 -77.5 15 t-53.5 37t-36.5 44t-37 37t-44.5 15q-68 0 -68 -123h-102zM256 426q0 -103 18 -161.5t49 -79.5t83 -21t83 21t48.5 79.5t17.5 161.5v479q0 103 -18 161.5t-49 79.5t-82 21q-52 0 -83 -21t-49 -79.5t-18 -161.5v-479z" />
<glyph unicode="&#xf6;" d="M51 457v417q0 248 85 363t270 115t269.5 -115t84.5 -363v-417q0 -248 -84.5 -362.5t-269.5 -114.5q-186 0 -270.5 114.5t-84.5 362.5zM154 1563q0 40 25.5 64t62.5 24q35 0 60.5 -24t25.5 -64q0 -37 -25.5 -61.5t-60.5 -24.5q-36 0 -62 24.5t-26 61.5zM256 426 q0 -103 18 -161.5t49 -79.5t83 -21t83 21t48.5 79.5t17.5 161.5v479q0 103 -18 161.5t-49 79.5t-82 21q-52 0 -83 -21t-49 -79.5t-18 -161.5v-479zM481 1563q0 40 25.5 64t62.5 24q35 0 60.5 -24t25.5 -64q0 -37 -25.5 -61.5t-60.5 -24.5q-36 0 -62 24.5t-26 61.5z" />
<glyph unicode="&#xf7;" horiz-adv-x="942" d="M51 625v102h840v-102h-840zM410 440q0 25 17.5 43.5t43.5 18.5q25 0 43 -18.5t18 -43.5q0 -26 -18 -43.5t-43 -17.5q-26 0 -43.5 17.5t-17.5 43.5zM410 911q0 25 17.5 43.5t43.5 18.5q25 0 43 -18.5t18 -43.5q0 -26 -18 -43.5t-43 -17.5q-26 0 -43.5 17.5t-17.5 43.5z " />
<glyph unicode="&#xf8;" d="M47 -174l94 260q-90 115 -90 371v417q0 248 85 363t270 115q109 0 180 -39l69 192h109l-94 -260q90 -115 90 -371v-417q0 -248 -84.5 -362.5t-269.5 -114.5q-112 0 -181 38l-69 -192h-109zM256 403l258 715q-33 49 -108 49q-52 0 -83 -21t-49 -79.5t-18 -161.5v-479v-23z M295 213q36 -49 111 -49q52 0 83 21t48.5 79.5t17.5 161.5v479v23z" />
<glyph unicode="&#xf9;" d="M51 395v936h205v-966q0 -100 32.5 -150.5t106.5 -50.5q81 0 120.5 58t39.5 153v956h205v-1134q0 -53 0.5 -77t5 -56t14.5 -64h-184q-21 21 -31 67t-10 83q-14 -31 -33.5 -58t-49 -54t-72.5 -42.5t-95 -15.5q-139 0 -196.5 97.5t-57.5 317.5zM113 1604l20 79l563 -151 l-20 -78z" />
<glyph unicode="&#xfa;" d="M51 395v936h205v-966q0 -100 32.5 -150.5t106.5 -50.5q81 0 120.5 58t39.5 153v956h205v-1134q0 -53 0.5 -77t5 -56t14.5 -64h-184q-21 21 -31 67t-10 83q-14 -31 -33.5 -58t-49 -54t-72.5 -42.5t-95 -15.5q-139 0 -196.5 97.5t-57.5 317.5zM113 1532l563 151l20 -79 l-563 -150z" />
<glyph unicode="&#xfb;" d="M51 395v936h205v-966q0 -100 32.5 -150.5t106.5 -50.5q81 0 120.5 58t39.5 153v956h205v-1134q0 -53 0.5 -77t5 -56t14.5 -64h-184q-21 21 -31 67t-10 83q-14 -31 -33.5 -58t-49 -54t-72.5 -42.5t-95 -15.5q-139 0 -196.5 97.5t-57.5 317.5zM113 1454l223 229h143 l217 -229h-133l-155 168l-162 -168h-133z" />
<glyph unicode="&#xfc;" d="M51 395v936h205v-966q0 -100 32.5 -150.5t106.5 -50.5q81 0 120.5 58t39.5 153v956h205v-1134q0 -53 0.5 -77t5 -56t14.5 -64h-184q-21 21 -31 67t-10 83q-14 -31 -33.5 -58t-49 -54t-72.5 -42.5t-95 -15.5q-139 0 -196.5 97.5t-57.5 317.5zM154 1563q0 40 25.5 64 t62.5 24q35 0 60.5 -24t25.5 -64q0 -37 -25.5 -61.5t-60.5 -24.5q-36 0 -62 24.5t-26 61.5zM481 1563q0 40 25.5 64t62.5 24q35 0 60.5 -24t25.5 -64q0 -37 -25.5 -61.5t-60.5 -24.5q-36 0 -62 24.5t-26 61.5z" />
<glyph unicode="&#xfd;" d="M51 395v936h205v-966q0 -100 32.5 -150.5t106.5 -50.5q81 0 120.5 58t39.5 153v956h205v-1294q0 -96 -8.5 -162t-31 -123.5t-63.5 -91t-105.5 -52t-156.5 -18.5h-293v185h263q109 0 149.5 60.5t40.5 201.5v113q-14 -31 -33.5 -58t-49 -54t-72.5 -42.5t-95 -15.5 q-139 0 -196.5 97.5t-57.5 317.5zM113 1532l563 151l20 -79l-563 -150z" />
<glyph unicode="&#xfe;" d="M51 -410v2048h205v-456q14 31 33.5 58t49 54t72.5 42.5t95 15.5q139 0 196.5 -97.5t57.5 -318.5v-541q0 -220 -57.5 -317.5t-196.5 -97.5q-52 0 -95 15.5t-72.5 42.5t-49 54t-33.5 58v-560h-205zM256 375q0 -95 39.5 -153t120.5 -58q74 0 106.5 50.5t32.5 150.5v602 q0 100 -32.5 150t-106.5 50q-81 0 -120.5 -58t-39.5 -153v-581z" />
<glyph unicode="&#xff;" d="M51 395v936h205v-966q0 -100 32.5 -150.5t106.5 -50.5q81 0 120.5 58t39.5 153v956h205v-1294q0 -96 -8.5 -162t-31 -123.5t-63.5 -91t-105.5 -52t-156.5 -18.5h-293v185h263q109 0 149.5 60.5t40.5 201.5v113q-14 -31 -33.5 -58t-49 -54t-72.5 -42.5t-95 -15.5 q-139 0 -196.5 97.5t-57.5 317.5zM154 1563q0 40 25.5 64t62.5 24q35 0 60.5 -24t25.5 -64q0 -37 -25.5 -61.5t-60.5 -24.5q-36 0 -62 24.5t-26 61.5zM481 1563q0 40 25.5 64t62.5 24q35 0 60.5 -24t25.5 -64q0 -37 -25.5 -61.5t-60.5 -24.5q-36 0 -62 24.5t-26 61.5z" />
<glyph unicode="&#x152;" horiz-adv-x="1187" d="M51 436v766q0 240 80 348.5t234 108.5q176 0 249 -156v135h523v-204h-318v-512h318v-205h-318v-512h318v-205h-523v135q-73 -155 -249 -155q-154 0 -234 108t-80 348zM256 436q0 -145 30 -198.5t115 -53.5q84 0 114 54t30 198v766q0 144 -30 198t-114 54 q-85 0 -115 -53.5t-30 -198.5v-766z" />
<glyph unicode="&#x153;" horiz-adv-x="1273" d="M51 457v417q0 478 303 478q163 0 232 -135q87 135 286 135q185 0 268 -114.5t83 -363.5v-239h-504v-209q0 -150 37 -206t116 -56q78 0 112 55t34 207v96h205v-65q0 -249 -83 -363t-268 -114q-199 0 -286 135q-69 -135 -232 -135q-303 0 -303 477zM256 426 q0 -154 29.5 -208t105.5 -54q70 0 96.5 63t26.5 199v479q0 135 -27 198.5t-96 63.5q-76 0 -105.5 -54t-29.5 -208v-479zM719 778h299v127q0 151 -34.5 206.5t-111.5 55.5q-79 0 -116 -56t-37 -206v-127z" />
<glyph unicode="&#x178;" horiz-adv-x="937" d="M51 1638h217l201 -802l201 802h217l-316 -1065v-573h-204v573zM217 1870q0 40 25.5 64t62.5 24q35 0 60.5 -24t25.5 -64q0 -37 -25.5 -61.5t-60.5 -24.5q-36 0 -62 24.5t-26 61.5zM545 1870q0 40 25.5 64t62.5 24q35 0 60.5 -24t25.5 -64q0 -37 -25.5 -61.5t-60.5 -24.5 q-36 0 -62 24.5t-26 61.5z" />
<glyph unicode="&#x2c6;" horiz-adv-x="624" d="M20 1454l224 229h143l217 -229h-133l-156 168l-161 -168h-134z" />
<glyph unicode="&#x2dc;" horiz-adv-x="624" d="M20 1479q0 204 164 204q44 0 77.5 -15t53.5 -36.5t37 -43.5t37.5 -37t44.5 -15q68 0 68 123h102q0 -205 -164 -205q-44 0 -77.5 15t-53.5 37t-37 44t-37.5 37t-44.5 15q-67 0 -67 -123h-103z" />
<glyph unicode="&#x2000;" horiz-adv-x="1016" />
<glyph unicode="&#x2001;" horiz-adv-x="2032" />
<glyph unicode="&#x2002;" horiz-adv-x="1016" />
<glyph unicode="&#x2003;" horiz-adv-x="2032" />
<glyph unicode="&#x2004;" horiz-adv-x="677" />
<glyph unicode="&#x2005;" horiz-adv-x="508" />
<glyph unicode="&#x2006;" horiz-adv-x="338" />
<glyph unicode="&#x2007;" horiz-adv-x="338" />
<glyph unicode="&#x2008;" horiz-adv-x="254" />
<glyph unicode="&#x2009;" horiz-adv-x="406" />
<glyph unicode="&#x200a;" horiz-adv-x="112" />
<glyph unicode="&#x2010;" horiz-adv-x="942" d="M51 625v102h840v-102h-840z" />
<glyph unicode="&#x2011;" horiz-adv-x="942" d="M51 625v102h840v-102h-840z" />
<glyph unicode="&#x2012;" horiz-adv-x="942" d="M51 625v102h840v-102h-840z" />
<glyph unicode="&#x2013;" horiz-adv-x="1290" d="M51 625v102h1188v-102h-1188z" />
<glyph unicode="&#x2014;" horiz-adv-x="2150" d="M51 625v102h2048v-102h-2048z" />
<glyph unicode="&#x2018;" horiz-adv-x="266" d="M51 1147l82 512h82l-61 -512h-103z" />
<glyph unicode="&#x2019;" horiz-adv-x="266" d="M51 1147l62 512h102l-82 -512h-82z" />
<glyph unicode="&#x201a;" horiz-adv-x="256" d="M51 -244l62 512h102l-82 -512h-82z" />
<glyph unicode="&#x201c;" horiz-adv-x="430" d="M51 1147l82 512h82l-61 -512h-103zM215 1147l82 512h82l-62 -512h-102z" />
<glyph unicode="&#x201d;" horiz-adv-x="430" d="M51 1147l62 512h102l-82 -512h-82zM215 1147l61 512h103l-82 -512h-82z" />
<glyph unicode="&#x201e;" horiz-adv-x="430" d="M51 -244l62 512h102l-82 -512h-82zM215 -244l61 512h103l-82 -512h-82z" />
<glyph unicode="&#x2022;" horiz-adv-x="505" d="M51 666q0 91 58.5 147.5t144.5 56.5q84 0 142.5 -56.5t58.5 -147.5q0 -89 -58.5 -144t-142.5 -55q-85 0 -144 55t-59 144z" />
<glyph unicode="&#x2026;" horiz-adv-x="993" d="M51 96q0 54 34 86.5t85 32.5q49 0 83 -32.5t34 -86.5q0 -51 -34 -83.5t-83 -32.5q-51 0 -85 32t-34 84zM379 96q0 54 34 86.5t85 32.5q49 0 82.5 -32.5t33.5 -86.5q0 -51 -33.5 -83.5t-82.5 -32.5q-51 0 -85 32t-34 84zM707 96q0 54 33.5 86.5t84.5 32.5q49 0 83 -32.5 t34 -86.5q0 -51 -34 -83.5t-83 -32.5q-50 0 -84 32t-34 84z" />
<glyph unicode="&#x202f;" horiz-adv-x="406" />
<glyph unicode="&#x2039;" horiz-adv-x="407" d="M51 635v82l305 325v-122l-227 -244l227 -244v-123z" />
<glyph unicode="&#x203a;" horiz-adv-x="407" d="M51 309v123l228 244l-228 244v122l305 -325v-82z" />
<glyph unicode="&#x205f;" horiz-adv-x="508" />
<glyph unicode="&#x20ac;" horiz-adv-x="884" d="M51 627v102h103v82h-103v102h105q9 384 101 565t282 181q119 0 200 -79.5t95 -248.5h-103q-29 225 -192 225q-145 0 -210 -153t-73 -490h434v-102h-434v-82h434v-102h-430q14 -284 79 -414.5t200 -130.5q163 0 192 225h103q-14 -168 -94.5 -247.5t-200.5 -79.5 q-176 0 -268.5 157.5t-112.5 489.5h-107z" />
<glyph unicode="&#x2122;" horiz-adv-x="999" d="M51 1536v102h336v-102h-117v-901h-102v901h-117zM428 635v1003h102l158 -804l158 804h102v-1003h-102v510l-107 -510h-102l-107 510v-510h-102z" />
<glyph unicode="&#x25fc;" horiz-adv-x="1331" d="M0 0v1331h1331v-1331h-1331z" />
</font>
</defs>
</svg>
