<?xml version="1.0" standalone="no"?>
<!DOCTYPE svg PUBLIC "-//W3C//DTD SVG 1.1//EN" "http://www.w3.org/Graphics/SVG/1.1/DTD/svg11.dtd" >
<svg xmlns="http://www.w3.org/2000/svg" xmlns:xlink="http://www.w3.org/1999/xlink" version="1.1">
<metadata></metadata>
<defs>
<font id="pp_formula_condensedbold" horiz-adv-x="811" >
<font-face units-per-em="2048" ascent="1638" descent="-410" />
<missing-glyph horiz-adv-x="307" />
<glyph horiz-adv-x="0" />
<glyph horiz-adv-x="682" />
<glyph unicode=" "  horiz-adv-x="307" />
<glyph unicode="&#x09;" horiz-adv-x="307" />
<glyph unicode="&#xa0;" horiz-adv-x="307" />
<glyph unicode="!" horiz-adv-x="358" d="M31 127q0 67 43 108t106 41q62 0 105 -41t43 -108q0 -66 -43 -106.5t-105 -40.5q-63 0 -106 40.5t-43 106.5zM43 1638h272l-16 -1126h-240z" />
<glyph unicode="&#x22;" horiz-adv-x="327" d="M31 1147v512h102v-512h-102zM195 1147v512h102v-512h-102z" />
<glyph unicode="#" horiz-adv-x="1497" d="M31 502v102h358l158 430h-359v103h396l188 522h109l-189 -522h342l189 522h108l-188 -522h323v-103h-360l-158 -430h361v-102h-398l-188 -522h-109l189 522h-342l-189 -522h-108l188 522h-321zM498 604h342l157 430h-342z" />
<glyph unicode="$" d="M31 621h102q0 -183 52.5 -268t168.5 -103v551q-147 54 -225 140t-78 230q0 136 77 223t226 99v166h103v-166q84 -10 145 -46.5t94.5 -93.5t48.5 -121.5t15 -141.5h-103q0 267 -200 299v-521q60 -25 99 -44.5t86 -53.5t74 -71.5t45.5 -94.5t18.5 -127q0 -152 -79.5 -238.5 t-243.5 -95.5v-163h-103v167q-159 18 -241 131.5t-82 342.5zM154 1171q0 -100 53.5 -160t146.5 -102v482q-105 -10 -152.5 -65.5t-47.5 -154.5zM457 246q123 7 172 65.5t49 165.5q0 58 -17.5 104.5t-51.5 79.5t-69 54.5t-83 42.5v-512z" />
<glyph unicode="%" horiz-adv-x="1024" d="M31 1352q0 -61 13.5 -114t41.5 -98t78 -70.5t117 -25.5t117 25.5t78 70.5t41 97.5t13 114.5t-13 114.5t-41 97t-78 70t-117 25.5t-117 -25.5t-78 -70t-41.5 -97.5t-13.5 -114zM133 1352q0 204 148 204q147 0 147 -204q0 -205 -147 -205q-148 0 -148 205zM154 -20 l608 1679h108l-608 -1679h-108zM494 287q0 -62 13 -114.5t41 -97t78 -70t117 -25.5t117 25.5t78 70t41.5 97.5t13.5 114t-13.5 114t-41.5 97.5t-78 70t-117 25.5t-117 -25.5t-78 -70t-41 -97t-13 -114.5zM596 287q0 205 147 205q148 0 148 -205t-148 -205q-147 0 -147 205z " />
<glyph unicode="&#x26;" horiz-adv-x="927" d="M31 401q0 326 200 430q-200 98 -200 406q0 197 96.5 309.5t284.5 112.5q389 0 389 -504h-273q0 129 -31 180t-85 51q-109 0 -109 -190q0 -139 43 -192.5t143 -53.5h39v105h273v-105h96v-237h-96v-209q0 -269 -96.5 -396.5t-292.5 -127.5q-188 0 -284.5 112.5t-96.5 308.5 zM303 442q0 -190 109 -190q26 0 45 10.5t36 37t26 78t9 126.5v209h-39q-101 0 -143.5 -57.5t-42.5 -213.5z" />
<glyph unicode="'" horiz-adv-x="163" d="M31 1147v512h102v-512h-102z" />
<glyph unicode="(" horiz-adv-x="327" d="M31 819q0 227 39 428.5t125 411.5h102q-86 -210 -125 -411.5t-39 -428.5t39 -428t125 -411h-102q-86 210 -125 411t-39 428z" />
<glyph unicode=")" horiz-adv-x="327" d="M31 -20q86 210 125 411t39 428t-39 428.5t-125 411.5h102q86 -210 125 -411.5t39 -428.5t-39 -428t-125 -411h-102z" />
<glyph unicode="*" horiz-adv-x="565" d="M31 1253l170 99l-170 98l41 70l170 -99v238h82v-238l170 99l41 -70l-170 -98l170 -99l-41 -69l-170 98v-238h-82v238l-170 -98z" />
<glyph unicode="+" horiz-adv-x="901" d="M31 614v103h368v368h103v-368h368v-103h-368v-368h-103v368h-368z" />
<glyph unicode="," horiz-adv-x="358" d="M31 127q0 68 42.5 108.5t106.5 40.5t106 -47.5t42 -140.5q0 -27 -4.5 -55.5t-21 -69.5t-43.5 -76.5t-76.5 -71.5t-114.5 -59v94q117 52 131 150q-64 -15 -116 23t-52 104z" />
<glyph unicode="-" horiz-adv-x="901" d="M31 625v102h839v-102h-839z" />
<glyph unicode="." horiz-adv-x="358" d="M31 127q0 67 43 108t106 41q62 0 105 -41t43 -108q0 -66 -43 -106.5t-105 -40.5q-63 0 -106 40.5t-43 106.5z" />
<glyph unicode="/" horiz-adv-x="778" d="M31 -20l608 1679h109l-609 -1679h-108z" />
<glyph unicode="0" d="M31 442v754q0 242 93.5 352.5t281.5 110.5q187 0 280.5 -110.5t93.5 -352.5v-754q0 -242 -93 -352t-281 -110t-281.5 110t-93.5 352zM303 457q0 -119 20.5 -162t82.5 -43t82 42.5t20 162.5v391l-205 -332v-59zM303 793l205 331v58q0 120 -20 162t-82 42t-82.5 -42.5 t-20.5 -161.5v-389z" />
<glyph unicode="1" horiz-adv-x="770" d="M31 0v272h217v1033q-28 -47 -71.5 -70t-145.5 -23v256q184 0 252 170h239v-1366h217v-272h-708z" />
<glyph unicode="2" horiz-adv-x="831" d="M31 0v272q0 75 8 139t19.5 111t35.5 92t42.5 73t56.5 64.5t61.5 56.5t71.5 58q50 40 80.5 69.5t61.5 71t45.5 90.5t14.5 109q0 96 -23.5 138t-70.5 42q-36 0 -58.5 -19.5t-37 -80t-14.5 -166.5h-273q0 282 94 410.5t289 128.5q367 0 367 -453q0 -82 -19.5 -155.5 t-47 -125.5t-73 -105.5t-81.5 -86.5t-87 -77q-6 -5 -10 -8.5t-8 -6.5q-73 -64 -106 -106t-49.5 -102.5t-16.5 -160.5h498v-272h-770z" />
<glyph unicode="3" horiz-adv-x="831" d="M31 504h272q0 -75 9 -126.5t26 -78t36.5 -37t45.5 -10.5q108 0 108 190q0 156 -42.5 213.5t-143.5 57.5h-80v237h80q100 0 143 53.5t43 192.5q0 190 -108 190q-117 0 -117 -231h-272q0 504 389 504q188 0 284.5 -112.5t96.5 -309.5q0 -308 -201 -406q201 -105 201 -430 q0 -196 -96.5 -308.5t-284.5 -112.5q-196 0 -292.5 127.5t-96.5 396.5z" />
<glyph unicode="4" horiz-adv-x="780" d="M31 307v275l325 1056h273v-1056h121v-275h-121v-307h-273v307h-325zM184 582h172v561z" />
<glyph unicode="5" horiz-adv-x="831" d="M31 504h272q0 -136 29.5 -194t85.5 -58q58 0 84 64t26 229q0 161 -26 220.5t-80 59.5q-92 0 -115 -129h-256l41 942h643v-272h-403l-21 -354q93 86 197 86q293 0 293 -553q0 -285 -92.5 -425t-290.5 -140q-193 0 -290 127t-97 397z" />
<glyph unicode="6" horiz-adv-x="831" d="M31 545v540q2 309 87 441.5t283 132.5q181 0 270 -116.5t89 -325.5h-273q0 88 -20 128.5t-66 40.5q-52 0 -75 -48t-23 -173v-184q83 117 209 117q289 0 289 -559q0 -286 -95 -422.5t-290 -136.5q-197 0 -290 138t-95 427zM303 545q0 -115 15 -181.5t38 -89t60 -22.5 t60 22t37.5 87.5t14.5 177.5q0 114 -14 178.5t-36 86t-58 21.5q-58 0 -87.5 -62t-29.5 -218z" />
<glyph unicode="7" horiz-adv-x="790" d="M31 1366v272h729v-272q-79 -129 -135.5 -267t-88.5 -262t-50.5 -274t-23.5 -274t-5 -289h-273q0 203 12.5 361.5t47.5 334.5t105.5 343t178.5 327h-497z" />
<glyph unicode="8" d="M31 432v43q0 158 59.5 251t151.5 132q-191 90 -191 354v41q0 195 93.5 300.5t261.5 105.5t261 -105.5t93 -300.5v-41q0 -264 -191 -354q92 -39 151.5 -132t59.5 -251v-43q0 -452 -374 -452q-375 0 -375 452zM303 469q0 -127 22 -172t81 -45t80.5 44.5t21.5 172.5v37 q0 125 -21.5 170t-80.5 45t-81 -45t-22 -170v-37zM307 1190q0 -109 21 -152t78 -43t77.5 42.5t20.5 152.5q0 111 -20.5 153.5t-77.5 42.5q-58 0 -78.5 -42.5t-20.5 -153.5z" />
<glyph unicode="9" horiz-adv-x="831" d="M31 1100q0 285 96 422t289 137q197 0 290 -138t95 -427v-541q-2 -309 -87 -441t-284 -132q-181 0 -269.5 116.5t-88.5 325.5h272q0 -88 20 -129t66 -41q52 0 75 48t23 173v184q-85 -116 -209 -116q-288 0 -288 559zM303 1100q0 -166 27 -226.5t82 -60.5q58 0 87 62.5 t29 218.5q0 115 -14 181t-37 88.5t-61 22.5q-37 0 -60 -22t-38 -87t-15 -177z" />
<glyph unicode=":" horiz-adv-x="358" d="M31 127q0 67 43 108t106 41q62 0 105 -41t43 -108q0 -66 -43 -106.5t-105 -40.5q-63 0 -106 40.5t-43 106.5zM31 795q0 69 43 110t106 41q62 0 105 -41.5t43 -109.5q0 -64 -43 -105t-105 -41q-63 0 -106 40.5t-43 105.5z" />
<glyph unicode=";" horiz-adv-x="358" d="M31 127q0 68 42.5 108.5t106.5 40.5t106 -47.5t42 -140.5q0 -27 -4.5 -55.5t-21 -69.5t-43.5 -76.5t-76.5 -71.5t-114.5 -59v94q117 52 131 150q-64 -15 -116 23t-52 104zM31 795q0 69 43 110t106 41q62 0 105 -41.5t43 -109.5q0 -64 -43 -105t-105 -41q-63 0 -106 40.5 t-43 105.5z" />
<glyph unicode="&#x3c;" horiz-adv-x="901" d="M31 635v82l839 325v-102l-696 -264l696 -264v-103z" />
<glyph unicode="=" horiz-adv-x="901" d="M31 522v103h839v-103h-839zM31 727v102h839v-102h-839z" />
<glyph unicode="&#x3e;" horiz-adv-x="901" d="M31 309v103l696 264l-696 264v102l839 -325v-82z" />
<glyph unicode="?" d="M31 1155q0 256 95.5 380t289.5 124q182 0 273 -102.5t91 -274.5q0 -77 -22.5 -144t-56 -113t-73 -100.5t-73 -106t-56 -131.5t-22.5 -175h-239q0 134 28 239.5t67.5 168t79 113.5t67.5 104.5t28 111.5q0 137 -92 137q-54 0 -83.5 -51.5t-29.5 -179.5h-272zM209 127 q0 67 42 108t105 41t106.5 -41t43.5 -108q0 -66 -43.5 -106.5t-106.5 -40.5t-105 40.5t-42 106.5z" />
<glyph unicode="@" horiz-adv-x="1124" d="M31 696q0 185 33 332.5t100 258t177 170t257 59.5q98 0 176 -29.5t131.5 -86.5t91 -130.5t58.5 -171.5t30 -199.5t9 -222.5q0 -130 -7.5 -220.5t-27 -164.5t-56 -110t-92.5 -36q-82 0 -120.5 56.5t-47.5 179.5q-73 -152 -204 -152q-130 0 -196.5 122t-66.5 349t66.5 349 t196.5 122q127 0 200 -145v125h103v-653q0 -100 8 -155t22 -75t39 -20q27 0 43.5 35t26.5 131t10 262q0 106 -6.5 193t-22.5 174t-45 151.5t-71 115t-105 77t-143 26.5q-120 0 -210.5 -52.5t-145.5 -149t-82 -225.5t-27 -290q0 -131 15 -236.5t50.5 -196.5t92 -152.5 t142 -96t196.5 -34.5q196 0 348 61v-102q-154 -62 -348 -62q-133 0 -236 39.5t-170.5 109.5t-111 174t-62 225t-18.5 271zM379 700q0 -368 190 -368q90 0 130 86t40 282q0 195 -41 282t-129 87q-190 0 -190 -369z" />
<glyph unicode="A" horiz-adv-x="862" d="M31 0l213 1638h374l213 -1638h-272l-29 295h-198l-29 -295h-272zM358 569h148l-74 772z" />
<glyph unicode="B" horiz-adv-x="815" d="M31 0v1638h293q129 0 211.5 -21.5t133.5 -74.5t71 -132.5t20 -203.5v-24q0 -237 -168 -316q192 -89 192 -358v-84q0 -233 -101 -328t-359 -96h-293zM303 272h23q111 0 148.5 33t37.5 137v101q0 101 -40.5 136.5t-145.5 35.5h-23v-443zM303 987h23q97 0 129 30t32 130v59 q0 103 -29 131.5t-132 28.5h-23v-379z" />
<glyph unicode="C" d="M31 442v754q0 242 93.5 352.5t281.5 110.5q187 0 280.5 -110.5t93.5 -352.5v-223h-272v209q0 120 -20 162t-82 42t-82.5 -42.5t-20.5 -161.5v-725q0 -119 20.5 -162t82.5 -43t82 42.5t20 162.5v209h272v-224q0 -242 -93 -352t-281 -110t-281.5 110t-93.5 352z" />
<glyph unicode="D" horiz-adv-x="815" d="M31 0v1638h286q132 0 218.5 -21.5t143.5 -73t81 -135.5t24 -212v-754q0 -249 -103.5 -345.5t-363.5 -96.5h-286zM303 272h16q112 0 152.5 32.5t40.5 137.5v754q0 105 -40.5 137.5t-152.5 32.5h-16v-1094z" />
<glyph unicode="E" horiz-adv-x="624" d="M31 0v1638h563v-272h-291v-410h291v-274h-291v-410h291v-272h-563z" />
<glyph unicode="F" horiz-adv-x="624" d="M31 0v1638h563v-272h-291v-492h291v-274h-291v-600h-272z" />
<glyph unicode="G" d="M31 442v754q0 240 94 351.5t281 111.5t280.5 -111.5t93.5 -351.5v-207h-272v193q0 120 -20 162t-82 42t-82.5 -42.5t-20.5 -161.5v-725q0 -119 20.5 -162t82.5 -43t82 42.5t20 162.5v114h-102v275h374v-846h-114l-43 119q-103 -139 -261 -139q-167 0 -249 110.5 t-82 351.5z" />
<glyph unicode="H" horiz-adv-x="847" d="M31 0v1638h272v-682h242v682h272v-1638h-272v682h-242v-682h-272z" />
<glyph unicode="I" horiz-adv-x="333" d="M31 0v1638h272v-1638h-272z" />
<glyph unicode="J" d="M31 442v127h272v-112q2 -120 22 -162.5t81 -42.5q62 0 82 42.5t20 162.5v1181h272v-1196q0 -242 -93 -352t-281 -110t-281.5 110t-93.5 352z" />
<glyph unicode="K" horiz-adv-x="856" d="M31 0v1638h272v-1638h-272zM303 819l240 819h282l-247 -819l247 -819h-282z" />
<glyph unicode="L" horiz-adv-x="624" d="M31 0v1638h272v-1366h291v-272h-563z" />
<glyph unicode="M" horiz-adv-x="1052" d="M31 0v1638h272l223 -1030l224 1030h272v-1638h-272v788l-154 -788h-139l-154 788v-788h-272z" />
<glyph unicode="N" horiz-adv-x="919" d="M31 0v1638h272l313 -903v903h273v-1638h-273l-313 903v-903h-272z" />
<glyph unicode="O" d="M31 442v754q0 242 93.5 352.5t281.5 110.5q187 0 280.5 -110.5t93.5 -352.5v-754q0 -242 -93 -352t-281 -110t-281.5 110t-93.5 352zM303 457q0 -119 20.5 -162t82.5 -43t82 42.5t20 162.5v725q0 120 -20 162t-82 42t-82.5 -42.5t-20.5 -161.5v-725z" />
<glyph unicode="P" horiz-adv-x="815" d="M31 0v1638h291q136 0 224 -23.5t141.5 -79.5t75 -138.5t21.5 -210.5v-180q0 -126 -21.5 -209t-74.5 -139t-141 -80.5t-223 -24.5h-21v-553h-272zM303 825h21q113 0 150.5 35.5t37.5 145.5v180q0 110 -37.5 145t-150.5 35h-21v-541z" />
<glyph unicode="Q" d="M31 442v754q0 242 93.5 352.5t281.5 110.5q187 0 280.5 -110.5t93.5 -352.5v-754q0 -207 -68 -316t-204 -136q126 -17 246 -96v-277q-117 74 -208.5 102.5t-242.5 40.5v230q-136 27 -204 136t-68 316zM303 457q0 -119 20.5 -162t82.5 -43t82 42.5t20 162.5v725 q0 120 -20 162t-82 42t-82.5 -42.5t-20.5 -161.5v-725z" />
<glyph unicode="R" horiz-adv-x="817" d="M31 0v1638h291q179 0 279 -45t141.5 -139.5t41.5 -261.5v-121q0 -273 -161 -375q83 -31 122 -100.5t39 -192.5v-258q0 -116 23 -145h-272q-23 29 -23 145v310q0 54 -12 88t-38 50.5t-56.5 22t-79.5 5.5h-23v-621h-272zM303 893h21q110 0 149 37.5t39 140.5v121 q0 105 -38.5 139.5t-149.5 34.5h-21v-473z" />
<glyph unicode="S" d="M31 565h272q0 -130 12.5 -199t35.5 -91.5t65 -22.5q53 0 72.5 37t19.5 131q0 102 -34 161t-140 146q-111 88 -146 123q-120 120 -145 284q-8 52 -8 109q0 416 360 416q188 0 278.5 -122t90.5 -382h-275q0 133 -23 182t-71 49q-46 0 -67 -34t-21 -109q0 -47 10 -83.5 t35 -69t53 -57.5t78 -64q61 -46 98 -78.5t79.5 -82.5t65.5 -101t38.5 -124.5t15.5 -162.5q0 -218 -87 -329t-277 -111q-83 0 -142.5 16.5t-107.5 56t-76.5 106.5t-43.5 167t-15 239z" />
<glyph unicode="T" horiz-adv-x="770" d="M31 1366v272h708v-272h-217v-1366h-274v1366h-217z" />
<glyph unicode="U" d="M31 442v1196h272v-1181q0 -119 20.5 -162t82.5 -43t82 42.5t20 162.5v1181h272v-1196q0 -242 -93 -352t-281 -110t-281.5 110t-93.5 352z" />
<glyph unicode="V" horiz-adv-x="862" d="M31 1638h272l129 -1341l127 1341h272l-213 -1638h-374z" />
<glyph unicode="W" horiz-adv-x="1542" d="M31 0v1638h272v-1308l219 1308h463v-1308l219 1308h307l-342 -1638h-456v1227l-224 -1227h-458z" />
<glyph unicode="X" horiz-adv-x="937" d="M31 0l256 819l-256 819h291l147 -614l147 614h291l-256 -819l256 -819h-291l-147 614l-147 -614h-291z" />
<glyph unicode="Y" horiz-adv-x="937" d="M31 1638h291l147 -735l147 735h291l-301 -1065v-573h-274v573z" />
<glyph unicode="Z" horiz-adv-x="747" d="M31 0v272l413 1094h-413v272h686v-272l-412 -1094h412v-272h-686z" />
<glyph unicode="[" horiz-adv-x="327" d="M31 -20v1679h266v-82h-164v-1516h164v-81h-266z" />
<glyph unicode="\" horiz-adv-x="778" d="M31 1659h108l609 -1679h-109z" />
<glyph unicode="]" horiz-adv-x="327" d="M31 -20v81h164v1516h-164v82h266v-1679h-266z" />
<glyph unicode="^" horiz-adv-x="708" d="M31 1024l250 614h147l250 -614h-111l-213 524l-213 -524h-110z" />
<glyph unicode="_" horiz-adv-x="1249" d="M31 -10h1188v-103h-1188v103z" />
<glyph unicode="`" horiz-adv-x="624" d="M20 1604l21 79l563 -151l-20 -78z" />
<glyph unicode="a" horiz-adv-x="851" d="M31 322q0 95 27.5 171t71 124.5t96.5 87t106 67.5t96.5 57.5t71.5 66t28 83.5q0 66 -22.5 93.5t-73.5 27.5q-55 0 -79.5 -38.5t-24.5 -125.5v-45h-273v39q0 211 89.5 316.5t287.5 105.5q194 0 281.5 -104.5t87.5 -311.5v-739q0 -51 0.5 -74.5t5 -56t14.5 -66.5h-239 q-29 23 -41.5 67.5t-12.5 82.5q-37 -89 -92 -129.5t-143 -40.5q-114 0 -188 86.5t-74 255.5zM303 369q0 -66 28 -102t79 -36q66 0 118 84v357q-19 -31 -60.5 -67t-75.5 -63t-61.5 -73t-27.5 -100z" />
<glyph unicode="b" horiz-adv-x="815" d="M14 0q14 46 17.5 85t3.5 112v1441h272v-456q14 31 33 58.5t48.5 54t71.5 42t91 15.5q136 0 184.5 -97t48.5 -325v-529q0 -227 -48.5 -324t-184.5 -97q-49 0 -91 15.5t-71.5 42t-48.5 54t-33 58.5q0 -39 -12.5 -84.5t-42.5 -65.5h-238zM307 381q0 -78 25.5 -114t79.5 -36 q53 0 75.5 33.5t22.5 114.5v573q0 81 -22.5 114.5t-75.5 33.5q-54 0 -79.5 -36t-25.5 -114v-569z" />
<glyph unicode="c" d="M31 451v430q0 244 94 357.5t283 113.5q188 0 280 -113t92 -358v-72h-272v82q0 122 -21 165.5t-79 43.5q-59 0 -82 -44t-23 -165v-451q0 -121 23 -165t82 -44t79.5 43t20.5 166v82h272v-71q0 -245 -92 -358t-280 -113q-189 0 -283 113.5t-94 357.5z" />
<glyph unicode="d" horiz-adv-x="815" d="M31 401v529q0 228 48.5 325t184.5 97q49 0 91 -15.5t71.5 -42t48.5 -54t33 -58.5v456h272v-1441q0 -73 3.5 -112t17.5 -85h-238q-30 20 -42.5 65.5t-12.5 84.5q-14 -31 -33 -58.5t-48.5 -54t-71.5 -42t-91 -15.5q-136 0 -184.5 97t-48.5 324zM305 379q0 -81 22.5 -114.5 t75.5 -33.5q54 0 79.5 36t25.5 114v569q0 78 -25.5 114t-79.5 36q-53 0 -75.5 -33.5t-22.5 -114.5v-573z" />
<glyph unicode="e" d="M31 451v430q0 244 94 357.5t283 113.5q188 0 280 -113t92 -358v-267h-477v-174q0 -121 23 -165t82 -44t79.5 43t20.5 166v82h272v-71q0 -245 -92 -358t-280 -113q-189 0 -283 113.5t-94 357.5zM303 799h205v92q0 122 -21 165.5t-79 43.5q-59 0 -82 -44t-23 -165v-92z" />
<glyph unicode="f" horiz-adv-x="675" d="M31 1079v252h129v31q0 64 12.5 113t44 93t93.5 67.5t153 23.5t182 -21v-200q-27 2 -76 2q-76 0 -105.5 -25t-29.5 -90v-65q18 26 42 41.5t57 21.5t53 7t59 1v-252h-211v-1079h-274v1079h-129z" />
<glyph unicode="g" d="M31 401v529q0 228 48.5 325t184.5 97q49 0 91 -15.5t71.5 -42t48.5 -54t33 -58.5v149h272v-1294q0 -102 -8 -170t-30 -124.5t-61.5 -88t-100.5 -48t-150 -16.5h-342v252h277q79 0 111 41t32 154v113q-14 -31 -33 -58.5t-48.5 -54t-71.5 -42t-91 -15.5q-136 0 -184.5 97 t-48.5 324zM303 379q0 -81 23 -114.5t75 -33.5q54 0 80.5 36.5t26.5 113.5v569q0 77 -26.5 113.5t-80.5 36.5q-52 0 -75 -33.5t-23 -114.5v-573z" />
<glyph unicode="h" d="M31 0v1638h272v-456q14 31 33 58.5t48.5 54t71.5 42t91 15.5q136 0 184.5 -97t48.5 -325v-930h-272v952q0 81 -23 114.5t-75 33.5q-54 0 -80.5 -36.5t-26.5 -113.5v-950h-272z" />
<glyph unicode="i" horiz-adv-x="333" d="M27 1534q0 52 41 88.5t100 36.5q57 0 98 -36.5t41 -88.5q0 -50 -41 -85.5t-98 -35.5q-58 0 -99.5 35.5t-41.5 85.5zM31 0v1331h272v-1331h-272z" />
<glyph unicode="j" horiz-adv-x="536" d="M10 -158h92q73 0 101 41t28 154v1294h275v-1294q0 -102 -7.5 -169.5t-28 -124.5t-58 -88.5t-96 -48t-144.5 -16.5h-162v252zM229 1534q0 52 41.5 88.5t98.5 36.5t98 -36.5t41 -88.5q0 -50 -41 -85.5t-98 -35.5t-98.5 36t-41.5 85z" />
<glyph unicode="k" horiz-adv-x="856" d="M31 0v1638h272v-1638h-272zM303 666l238 665h284l-247 -665l247 -666h-284z" />
<glyph unicode="l" horiz-adv-x="333" d="M31 0v1638h272v-1638h-272z" />
<glyph unicode="m" horiz-adv-x="1232" d="M31 0v1331h272v-149q30 70 87.5 120t144.5 50t134 -44t68 -137q30 76 95.5 128.5t152.5 52.5q128 0 172.5 -96.5t44.5 -325.5v-930h-272v952q0 80 -20 114t-64 34q-92 0 -92 -150v-950h-275v952q0 80 -20 114t-62 34q-94 0 -94 -150v-950h-272z" />
<glyph unicode="n" d="M31 0v1331h272v-149q14 31 33 58.5t48.5 54t71.5 42t91 15.5q136 0 184.5 -97t48.5 -325v-930h-272v952q0 81 -23 114.5t-75 33.5q-54 0 -80.5 -36.5t-26.5 -113.5v-950h-272z" />
<glyph unicode="o" d="M31 451v430q0 244 93 357.5t282 113.5t281.5 -113.5t92.5 -357.5v-430q0 -244 -92.5 -357.5t-281.5 -113.5t-282 113.5t-93 357.5zM303 440q0 -122 22 -165.5t81 -43.5t80.5 43.5t21.5 165.5v451q0 121 -22 165t-80 44q-59 0 -81 -43.5t-22 -165.5v-451z" />
<glyph unicode="p" d="M31 -410v1741h272v-149q14 31 33 58.5t48.5 54t71.5 42t91 15.5q136 0 184.5 -97t48.5 -325v-529q0 -227 -48.5 -324t-184.5 -97q-49 0 -91 15.5t-71.5 42t-48.5 54t-33 58.5v-560h-272zM303 381q0 -77 26.5 -113.5t80.5 -36.5q52 0 75 33.5t23 114.5v573q0 81 -23 114.5 t-75 33.5q-54 0 -80.5 -36.5t-26.5 -113.5v-569z" />
<glyph unicode="q" d="M31 401v529q0 228 48.5 325t184.5 97q49 0 91 -15.5t71.5 -42t48.5 -54t33 -58.5v149h272v-1741h-272v560q-14 -31 -33 -58.5t-48.5 -54t-71.5 -42t-91 -15.5q-136 0 -184.5 97t-48.5 324zM303 379q0 -81 23 -114.5t75 -33.5q54 0 80.5 36.5t26.5 113.5v569 q0 77 -26.5 113.5t-80.5 36.5q-52 0 -75 -33.5t-23 -114.5v-573z" />
<glyph unicode="r" horiz-adv-x="804" d="M31 0v1331h272v-153q33 72 94.5 123t157.5 51q54 0 92.5 -17t63 -48.5t38.5 -85t19.5 -116.5t5.5 -153v-74h-274v98q0 77 -19.5 110.5t-68.5 33.5q-51 0 -80 -43.5t-29 -118.5v-938h-272z" />
<glyph unicode="s" d="M31 461h272q0 -131 26 -180.5t87 -49.5q51 0 71.5 31t20.5 90q0 62 -41 112.5t-176 147.5q-106 75 -145 114q-111 110 -111 275q0 73 20 134.5t61.5 111t112 77.5t164.5 28q371 0 371 -443h-275q0 107 -23.5 149t-72.5 42q-41 0 -63.5 -28.5t-22.5 -70.5q0 -19 3 -34 t13 -30.5t18 -26t30.5 -29t37 -29.5t51.5 -37.5t60 -44.5q69 -52 108.5 -87t78.5 -85.5t56 -110t17 -135.5q0 -82 -19 -147t-60.5 -117t-113.5 -80t-171 -28q-207 0 -296 108t-89 373z" />
<glyph unicode="t" horiz-adv-x="675" d="M31 1079v252q44 13 75 44t48 74t24 90q6 41 6 86v13h273q0 -115 -37.5 -201.5t-108.5 -105.5h334v-252h-211v-633q0 -114 26.5 -154t96.5 -40h88v-252h-153q-86 0 -144 16.5t-95.5 47.5t-57.5 88t-27.5 124t-7.5 170v633h-129z" />
<glyph unicode="u" d="M31 401v930h272v-952q0 -81 23 -114.5t75 -33.5q54 0 80.5 36.5t26.5 113.5v950h272v-1134q0 -73 3.5 -112t17.5 -85h-240q-28 21 -40.5 66t-12.5 84q-14 -31 -33 -58.5t-48.5 -54t-71.5 -42t-91 -15.5q-136 0 -184.5 97t-48.5 324z" />
<glyph unicode="v" horiz-adv-x="821" d="M31 1331h272l109 -981l106 981h273l-195 -1331h-371z" />
<glyph unicode="w" horiz-adv-x="1542" d="M31 0v1331h272v-1065l219 1065h463v-1065l219 1065h307l-342 -1331h-456v997l-224 -997h-458z" />
<glyph unicode="x" horiz-adv-x="937" d="M31 0l258 666l-258 665h293l145 -487l147 487h291l-258 -665l258 -666h-291l-147 489l-145 -489h-293z" />
<glyph unicode="y" d="M31 401v930h272v-952q0 -81 23 -114.5t75 -33.5q54 0 80.5 36.5t26.5 113.5v950h272v-1294q0 -102 -8 -170t-30 -124.5t-61.5 -88t-100.5 -48t-150 -16.5h-342v252h277q79 0 111 41t32 154v113q-14 -31 -33 -58.5t-48.5 -54t-71.5 -42t-91 -15.5q-136 0 -184.5 97 t-48.5 324z" />
<glyph unicode="z" horiz-adv-x="747" d="M31 0v252l393 827h-393v252h686v-252l-393 -827h393v-252h-686z" />
<glyph unicode="{" horiz-adv-x="327" d="M31 731v176q44 0 62.5 41.5t17.5 108t-8 146.5t-7 160t13.5 146.5t60.5 108t127 41.5v-82q-54 0 -78.5 -48.5t-23.5 -122.5t5.5 -164l8.5 -170t-14 -143.5t-62 -82.5v-53q44 -19 62 -82.5t14 -144t-8.5 -170.5t-5.5 -164t23.5 -122.5t78.5 -48.5v-81q-80 0 -127 41.5 t-60.5 107.5t-13.5 146t7 160.5t8 146.5t-17.5 107.5t-62.5 41.5z" />
<glyph unicode="|" horiz-adv-x="163" d="M31 -20v1679h102v-1679h-102z" />
<glyph unicode="}" horiz-adv-x="327" d="M31 -20v81q54 0 78.5 48.5t23.5 122.5t-5.5 164t-8.5 170.5t14 144t62 82.5v53q-44 19 -62 82.5t-14 143.5l8.5 170t5.5 164t-23.5 122.5t-78.5 48.5v82q80 0 127 -41.5t60.5 -108t13.5 -146.5t-7 -160t-8 -146.5t17.5 -108t62.5 -41.5v-176q-44 0 -62.5 -41.5 t-17.5 -107.5t8 -146t7 -160.5t-13.5 -146.5t-60.5 -107.5t-127 -41.5z" />
<glyph unicode="~" horiz-adv-x="901" d="M31 594q0 69 19.5 116.5t53 69.5t65 30.5t67.5 8.5q55 0 107 -19t92 -46t77 -54t77 -46t77 -19q47 0 74.5 31.5t27.5 91.5h102q0 -56 -13.5 -98t-34 -66t-49.5 -38.5t-54 -19t-53 -4.5q-67 0 -131.5 29t-107 63.5t-94.5 63.5t-97 29q-47 0 -75 -31.5t-28 -91.5h-102z" />
<glyph unicode="&#xa1;" horiz-adv-x="358" d="M31 1204q0 66 43 107t106 41q62 0 105 -41t43 -107q0 -67 -43 -108t-105 -41q-63 0 -106 41t-43 108zM43 -307l16 1126h240l16 -1126h-272z" />
<glyph unicode="&#xa2;" horiz-adv-x="831" d="M31 819q0 218 91.5 351t242.5 157v332h102v-330q153 -15 243.5 -131.5t90.5 -292.5h-103q0 144 -64 226t-167 96v-815q104 14 167.5 95.5t63.5 225.5h103q0 -176 -90.5 -292.5t-243.5 -131.5v-329h-102v331q-151 24 -242.5 157t-91.5 351zM133 819q0 -183 64.5 -282 t167.5 -121v807q-103 -22 -167.5 -121.5t-64.5 -282.5z" />
<glyph unicode="&#xa3;" horiz-adv-x="802" d="M31 0v86q63 42 99.5 99t47.5 129t8 141t-18 163h-137v103h119q-2 13 -12 65.5t-13.5 72t-11.5 65.5t-11.5 73t-8 66t-6 73t-1.5 68q0 123 27.5 214t76 142t107 75t129.5 24t130.5 -26.5t109.5 -83.5t78 -158.5t28 -239.5h-102q0 405 -244 405q-55 0 -96.5 -17 t-74.5 -56.5t-50 -109.5t-17 -169q0 -34 1.5 -68t6 -73t8 -66t11.5 -73t11.5 -65.5t13.5 -72t12 -65.5h369v-103h-351q15 -94 18 -163t-8 -141t-47.5 -129t-99.5 -99h639v-86h-741z" />
<glyph unicode="&#xa4;" horiz-adv-x="704" d="M31 385l112 154q-69 110 -69 280q0 171 69 281l-112 153l71 72l109 -151q59 47 141 47q81 0 142 -45l108 149l72 -72l-113 -155q70 -112 70 -279q0 -168 -70 -280l113 -154l-72 -72l-108 152q-59 -47 -142 -47q-82 0 -141 47l-109 -152zM176 819q0 -85 18 -150.5 t58.5 -107t99.5 -41.5t99.5 41.5t58.5 107t18 150.5t-18 150.5t-58.5 107t-99.5 41.5t-99.5 -41.5t-58.5 -107t-18 -150.5z" />
<glyph unicode="&#xa5;" horiz-adv-x="958" d="M31 1638h112l336 -919l336 919h113l-369 -989h240v-102h-269v-82h269v-103h-269v-362h-102v362h-268v103h268v82h-268v102h239z" />
<glyph unicode="&#xa6;" horiz-adv-x="163" d="M31 -20v655h102v-655h-102zM31 1004v655h102v-655h-102z" />
<glyph unicode="&#xa7;" horiz-adv-x="770" d="M31 739q0 90 45 132.5t125 54.5q-78 44 -114 102t-36 150q0 121 79 201.5t245 80.5q344 0 344 -405h-103q0 66 -10 116t-35 94.5t-74.5 68.5t-121.5 24q-125 0 -173 -48t-48 -132q0 -98 70 -153t216 -97q167 -48 233 -95.5t66 -132.5q0 -90 -45 -132t-125 -54 q78 -44 114 -102t36 -150q0 -121 -79 -201.5t-245 -80.5q-344 0 -344 405h103q0 -66 10 -116t35 -94.5t74.5 -68.5t121.5 -24q125 0 173 48t48 132q0 98 -70 153t-216 97q-167 48 -233 95t-66 132zM133 762q0 -58 48 -89t190 -77h2q64 -21 112.5 -26.5t76.5 2t45.5 25 t23.5 37t6 44.5q0 58 -48 89t-190 77h-2q-64 21 -112.5 26.5t-76.5 -2t-45.5 -25t-23.5 -37t-6 -44.5z" />
<glyph unicode="&#xa8;" horiz-adv-x="542" d="M20 1552q0 44 29 71.5t70 27.5q39 0 67.5 -27.5t28.5 -71.5q0 -41 -29 -68.5t-67 -27.5q-41 0 -70 27t-29 69zM328 1552q0 44 28.5 71.5t69.5 27.5q39 0 67.5 -27.5t28.5 -71.5q0 -41 -29 -68.5t-67 -27.5q-41 0 -69.5 27t-28.5 69z" />
<glyph unicode="&#xa9;" horiz-adv-x="1257" d="M31 819q0 -839 598 -839t598 839q0 840 -598 840t-598 -840zM133 819q0 131 15 238.5t50.5 202t91.5 158.5t142 101t197 37t196.5 -37t141.5 -101t91.5 -158.5t50.5 -202t15 -238.5t-15 -238.5t-50.5 -202t-91.5 -158.5t-141.5 -101t-196.5 -37t-197 37t-142 101 t-91.5 158.5t-50.5 202t-15 238.5zM285 819q0 219 93 345t261 126q100 0 177.5 -53.5t117 -140.5t39.5 -191h-103q0 131 -66 207t-165 76q-118 0 -185 -90t-67 -279t67 -278.5t185 -89.5q100 0 165.5 75.5t65.5 206.5h103q0 -104 -39.5 -191t-117 -140.5t-177.5 -53.5 q-168 0 -261 126t-93 345z" />
<glyph unicode="&#xab;" horiz-adv-x="653" d="M31 635v82l305 325v-122l-227 -244l227 -244v-123zM317 635v82l306 325v-122l-228 -244l228 -244v-123z" />
<glyph unicode="&#xac;" horiz-adv-x="901" d="M31 625v102h839v-387h-102v285h-737z" />
<glyph unicode="&#xad;" horiz-adv-x="901" d="M31 625v102h839v-102h-839z" />
<glyph unicode="&#xae;" horiz-adv-x="847" d="M31 1147q0 -50 4.5 -97t16 -99.5t30 -96.5t49.5 -85.5t71 -70.5t96.5 -46t125.5 -17t125.5 17t96.5 46t71 70.5t49.5 85.5t30 96.5t16 99.5t4.5 97t-4.5 97t-16 99.5t-30 96.5t-49.5 85.5t-71 70.5t-96.5 46t-125.5 17t-125.5 -17t-96.5 -46t-71 -70.5t-49.5 -85.5 t-30 -96.5t-16 -99.5t-4.5 -97zM133 1147q0 54 5.5 102.5t23.5 107t48.5 100.5t85.5 70.5t128 28.5t128 -28.5t85.5 -70.5t48.5 -100.5t23.5 -107t5.5 -102.5q0 -44 -4 -84.5t-14.5 -90t-31.5 -89t-51.5 -74t-79 -53.5t-110.5 -19t-110.5 19t-79 53.5t-51.5 74t-31.5 89 t-14.5 90t-4 84.5zM274 926v454h144q99 0 141.5 -41.5t42.5 -121.5q0 -100 -63 -138l61 -153h-111l-51 127h-61v-127h-103zM377 1155h41q43 0 62.5 14.5t19.5 47.5t-19.5 47t-62.5 14h-41v-123z" />
<glyph unicode="&#xaf;" horiz-adv-x="624" d="M20 1528v82h584v-82h-584z" />
<glyph unicode="&#xb0;" horiz-adv-x="561" d="M31 1352q0 -61 13.5 -114t41.5 -98t78 -70.5t117 -25.5t117 25.5t78 70.5t41 97.5t13 114.5t-13 114.5t-41 97t-78 70t-117 25.5t-117 -25.5t-78 -70t-41.5 -97.5t-13.5 -114zM133 1352q0 204 148 204q147 0 147 -204q0 -205 -147 -205q-148 0 -148 205z" />
<glyph unicode="&#xb1;" horiz-adv-x="901" d="M31 246v102h368v277h-368v102h368v369h103v-369h368v-102h-368v-277h368v-102h-839z" />
<glyph unicode="&#xb4;" horiz-adv-x="624" d="M20 1532l564 151l20 -79l-563 -150z" />
<glyph unicode="&#xb6;" horiz-adv-x="641" d="M31 1282q0 113 16 184t52.5 108.5t83 50.5t120.5 13h103v-1638h-103v926q-74 0 -120.5 13t-83 50.5t-52.5 108.5t-16 184zM508 0v1638h102v-1638h-102z" />
<glyph unicode="&#xb7;" horiz-adv-x="358" d="M31 670q0 69 43 110t106 41q62 0 105 -41.5t43 -109.5q0 -64 -43 -105t-105 -41q-63 0 -106 40.5t-43 105.5z" />
<glyph unicode="&#xb8;" horiz-adv-x="411" d="M20 -424l3 82q147 0 206.5 15.5t59.5 66.5q0 27 -13 42t-44.5 19.5t-69 2t-99.5 -10.5l31 207h103l-33 -137q227 37 227 -123q0 -34 -14 -60.5t-33.5 -43.5t-54.5 -29t-62 -18t-72 -9t-68.5 -3.5t-66.5 -0.5z" />
<glyph unicode="&#xbb;" horiz-adv-x="653" d="M31 309v123l227 244l-227 244v122l305 -325v-82zM317 309v123l228 244l-228 244v122l306 -325v-82z" />
<glyph unicode="&#xbf;" d="M31 49q0 67 17 125t43.5 102.5t59.5 86.5t65.5 87.5t59 95.5t43.5 120.5t17 152.5h237q0 -134 -28 -239.5t-67.5 -168t-79 -113.5t-67.5 -104.5t-28 -111.5q0 -137 92 -137q54 0 83.5 51.5t29.5 179.5h272q0 -256 -95.5 -380t-289.5 -124q-182 0 -273 102.5t-91 274.5z M305 1204q0 66 43.5 107t106.5 41t105 -41t42 -107q0 -67 -42 -108t-105 -41t-106.5 41t-43.5 108z" />
<glyph unicode="&#xc0;" horiz-adv-x="862" d="M31 0l213 1638h374l213 -1638h-272l-29 295h-198l-29 -295h-272zM139 1911l21 80l563 -152l-21 -78zM358 569h148l-74 772z" />
<glyph unicode="&#xc1;" horiz-adv-x="862" d="M31 0l213 1638h374l213 -1638h-272l-29 295h-198l-29 -295h-272zM139 1839l563 152l21 -80l-563 -150zM358 569h148l-74 772z" />
<glyph unicode="&#xc2;" horiz-adv-x="862" d="M31 0l213 1638h374l213 -1638h-272l-29 295h-198l-29 -295h-272zM139 1761l223 230h144l217 -230h-133l-156 168l-162 -168h-133zM358 569h148l-74 772z" />
<glyph unicode="&#xc3;" horiz-adv-x="862" d="M31 0l213 1638h374l213 -1638h-272l-29 295h-198l-29 -295h-272zM139 1786q0 205 164 205q44 0 77.5 -15t53.5 -37t37 -44t37.5 -37t44.5 -15q68 0 68 123h102q0 -205 -164 -205q-44 0 -77.5 15t-53.5 37t-37 44t-37.5 37t-44.5 15q-67 0 -67 -123h-103zM358 569h148 l-74 772z" />
<glyph unicode="&#xc4;" horiz-adv-x="862" d="M31 0l213 1638h374l213 -1638h-272l-29 295h-198l-29 -295h-272zM180 1860q0 44 29 71t70 27q39 0 67.5 -27t28.5 -71q0 -41 -29 -69t-67 -28q-41 0 -70 27.5t-29 69.5zM358 569h148l-74 772zM487 1860q0 44 29 71t70 27q39 0 67.5 -27t28.5 -71q0 -41 -29 -69t-67 -28 q-41 0 -70 27.5t-29 69.5z" />
<glyph unicode="&#xc5;" horiz-adv-x="862" d="M31 0l213 1638h374l213 -1638h-272l-29 295h-198l-29 -295h-272zM297 1896q0 58 40 97t95 39t95 -39t40 -97q0 -57 -40 -96t-95 -39t-95 39t-40 96zM358 569h148l-74 772zM379 1896q0 -24 14.5 -38.5t38.5 -14.5t38.5 14.5t14.5 38.5t-14.5 39t-38.5 15t-38.5 -15 t-14.5 -39z" />
<glyph unicode="&#xc6;" horiz-adv-x="1187" d="M31 0l215 1638h911v-272h-291v-410h291v-274h-291v-410h291v-272h-563v295h-254l-37 -295h-272zM373 569h221v797h-121z" />
<glyph unicode="&#xc7;" d="M31 442v754q0 242 93.5 352.5t281.5 110.5q187 0 280.5 -110.5t93.5 -352.5v-223h-272v209q0 120 -20 162t-82 42t-82.5 -42.5t-20.5 -161.5v-725q0 -119 20.5 -162t82.5 -43t82 42.5t20 162.5v209h272v-224q0 -226 -82 -337t-245 -123l-29 -119q227 37 227 -123 q0 -34 -14 -60.5t-33.5 -43.5t-54 -29t-62 -18t-72 -9t-68 -3.5t-66.5 -0.5l2 82q147 0 206.5 15.5t59.5 66.5q0 52 -56.5 62t-168.5 -9l28 189q-160 14 -240.5 125t-80.5 335z" />
<glyph unicode="&#xc8;" horiz-adv-x="624" d="M20 1911l21 80l563 -152l-20 -78zM31 0v1638h563v-272h-291v-410h291v-274h-291v-410h291v-272h-563z" />
<glyph unicode="&#xc9;" horiz-adv-x="624" d="M20 1839l564 152l20 -80l-563 -150zM31 0v1638h563v-272h-291v-410h291v-274h-291v-410h291v-272h-563z" />
<glyph unicode="&#xca;" horiz-adv-x="624" d="M20 1761l224 230h143l217 -230h-133l-156 168l-161 -168h-134zM31 0v1638h563v-272h-291v-410h291v-274h-291v-410h291v-272h-563z" />
<glyph unicode="&#xcb;" horiz-adv-x="624" d="M31 0v1638h563v-272h-291v-410h291v-274h-291v-410h291v-272h-563zM61 1860q0 44 29 71t70 27q39 0 67.5 -27t28.5 -71q0 -41 -29 -69t-67 -28q-41 0 -70 27.5t-29 69.5zM369 1860q0 44 28.5 71t69.5 27q39 0 67.5 -27t28.5 -71q0 -41 -29 -69t-67 -28q-41 0 -69.5 27.5 t-28.5 69.5z" />
<glyph unicode="&#xcc;" horiz-adv-x="333" d="M-125 1911l21 80l563 -152l-21 -78zM31 0v1638h272v-1638h-272z" />
<glyph unicode="&#xcd;" horiz-adv-x="333" d="M-125 1839l563 152l21 -80l-563 -150zM31 0v1638h272v-1638h-272z" />
<glyph unicode="&#xce;" horiz-adv-x="333" d="M-125 1761l223 230h144l217 -230h-133l-156 168l-162 -168h-133zM31 0v1638h272v-1638h-272z" />
<glyph unicode="&#xcf;" horiz-adv-x="333" d="M-84 1860q0 44 28.5 71t69.5 27q39 0 68 -27t29 -71q0 -41 -29.5 -69t-67.5 -28q-41 0 -69.5 27.5t-28.5 69.5zM31 0v1638h272v-1638h-272zM223 1860q0 44 29 71t70 27q39 0 67.5 -27t28.5 -71q0 -41 -29 -69t-67 -28q-41 0 -70 27.5t-29 69.5z" />
<glyph unicode="&#xd0;" horiz-adv-x="933" d="M0 778v82h150v778h286q132 0 218.5 -21.5t143.5 -73t81 -135.5t24 -212v-754q0 -249 -103.5 -345.5t-363.5 -96.5h-286v778h-150zM422 272h16q112 0 152.5 32.5t40.5 137.5v754q0 105 -40.5 137.5t-152.5 32.5h-16v-506h162v-82h-162v-506z" />
<glyph unicode="&#xd1;" horiz-adv-x="919" d="M31 0v1638h272l313 -903v903h273v-1638h-273l-313 903v-903h-272zM168 1786q0 205 164 205q44 0 77.5 -15t53.5 -37t37 -44t37.5 -37t44.5 -15q67 0 67 123h103q0 -205 -164 -205q-44 0 -77.5 15t-53.5 37t-37 44t-37.5 37t-44.5 15q-68 0 -68 -123h-102z" />
<glyph unicode="&#xd2;" d="M31 442v754q0 242 93.5 352.5t281.5 110.5q187 0 280.5 -110.5t93.5 -352.5v-754q0 -242 -93 -352t-281 -110t-281.5 110t-93.5 352zM113 1911l20 80l563 -152l-20 -78zM303 457q0 -119 20.5 -162t82.5 -43t82 42.5t20 162.5v725q0 120 -20 162t-82 42t-82.5 -42.5 t-20.5 -161.5v-725z" />
<glyph unicode="&#xd3;" d="M31 442v754q0 242 93.5 352.5t281.5 110.5q187 0 280.5 -110.5t93.5 -352.5v-754q0 -242 -93 -352t-281 -110t-281.5 110t-93.5 352zM113 1839l563 152l20 -80l-563 -150zM303 457q0 -119 20.5 -162t82.5 -43t82 42.5t20 162.5v725q0 120 -20 162t-82 42t-82.5 -42.5 t-20.5 -161.5v-725z" />
<glyph unicode="&#xd4;" d="M31 442v754q0 242 93.5 352.5t281.5 110.5q187 0 280.5 -110.5t93.5 -352.5v-754q0 -242 -93 -352t-281 -110t-281.5 110t-93.5 352zM113 1761l223 230h143l217 -230h-133l-155 168l-162 -168h-133zM303 457q0 -119 20.5 -162t82.5 -43t82 42.5t20 162.5v725 q0 120 -20 162t-82 42t-82.5 -42.5t-20.5 -161.5v-725z" />
<glyph unicode="&#xd5;" d="M31 442v754q0 242 93.5 352.5t281.5 110.5q187 0 280.5 -110.5t93.5 -352.5v-754q0 -242 -93 -352t-281 -110t-281.5 110t-93.5 352zM113 1786q0 205 163 205q44 0 77.5 -15t53.5 -37t37 -44t37.5 -37t44.5 -15q68 0 68 123h102q0 -205 -164 -205q-44 0 -77.5 15 t-53.5 37t-36.5 44t-37 37t-44.5 15q-68 0 -68 -123h-102zM303 457q0 -119 20.5 -162t82.5 -43t82 42.5t20 162.5v725q0 120 -20 162t-82 42t-82.5 -42.5t-20.5 -161.5v-725z" />
<glyph unicode="&#xd6;" d="M31 442v754q0 242 93.5 352.5t281.5 110.5q187 0 280.5 -110.5t93.5 -352.5v-754q0 -242 -93 -352t-281 -110t-281.5 110t-93.5 352zM154 1860q0 44 28.5 71t69.5 27q39 0 67.5 -27t28.5 -71q0 -41 -29 -69t-67 -28q-41 0 -69.5 27.5t-28.5 69.5zM303 457 q0 -119 20.5 -162t82.5 -43t82 42.5t20 162.5v725q0 120 -20 162t-82 42t-82.5 -42.5t-20.5 -161.5v-725zM461 1860q0 44 28.5 71t69.5 27q39 0 67.5 -27t28.5 -71q0 -41 -29 -69t-67 -28q-41 0 -69.5 27.5t-28.5 69.5z" />
<glyph unicode="&#xd7;" horiz-adv-x="729" d="M33 408l262 262l-262 260l71 71l263 -260l260 260l71 -73l-260 -260l260 -258l-71 -74l-260 260l-263 -262z" />
<glyph unicode="&#xd8;" d="M31 442v754q0 242 93.5 352.5t281.5 110.5q142 0 227 -62l22 62h109l-53 -146q69 -109 69 -317v-754q0 -242 -93 -352t-281 -110q-144 0 -228 61l-22 -61h-109l53 145q-69 109 -69 317zM303 686l203 561q-5 79 -26 109t-74 30q-62 0 -82.5 -42.5t-20.5 -161.5v-496z M305 391q5 -79 26 -109t75 -30q62 0 82 42.5t20 162.5v495z" />
<glyph unicode="&#xd9;" d="M31 442v1196h272v-1181q0 -119 20.5 -162t82.5 -43t82 42.5t20 162.5v1181h272v-1196q0 -242 -93 -352t-281 -110t-281.5 110t-93.5 352zM113 1911l20 80l563 -152l-20 -78z" />
<glyph unicode="&#xda;" d="M31 442v1196h272v-1181q0 -119 20.5 -162t82.5 -43t82 42.5t20 162.5v1181h272v-1196q0 -242 -93 -352t-281 -110t-281.5 110t-93.5 352zM113 1839l563 152l20 -80l-563 -150z" />
<glyph unicode="&#xdb;" d="M31 442v1196h272v-1181q0 -119 20.5 -162t82.5 -43t82 42.5t20 162.5v1181h272v-1196q0 -242 -93 -352t-281 -110t-281.5 110t-93.5 352zM113 1761l223 230h143l217 -230h-133l-155 168l-162 -168h-133z" />
<glyph unicode="&#xdc;" d="M31 442v1196h272v-1181q0 -119 20.5 -162t82.5 -43t82 42.5t20 162.5v1181h272v-1196q0 -242 -93 -352t-281 -110t-281.5 110t-93.5 352zM154 1860q0 44 28.5 71t69.5 27q39 0 67.5 -27t28.5 -71q0 -41 -29 -69t-67 -28q-41 0 -69.5 27.5t-28.5 69.5zM461 1860 q0 44 28.5 71t69.5 27q39 0 67.5 -27t28.5 -71q0 -41 -29 -69t-67 -28q-41 0 -69.5 27.5t-28.5 69.5z" />
<glyph unicode="&#xdd;" horiz-adv-x="937" d="M31 1638h291l147 -735l147 735h291l-301 -1065v-573h-274v573zM176 1839l563 152l21 -80l-563 -150z" />
<glyph unicode="&#xde;" horiz-adv-x="815" d="M31 0v1638h272v-307q142 0 233.5 -23t147.5 -78.5t78 -138t22 -210.5v-187q0 -126 -22 -207.5t-78 -136t-147.5 -78.5t-233.5 -26v-246h-272zM303 518q127 0 168 33.5t41 142.5v187q0 111 -40.5 144.5t-168.5 33.5v-541z" />
<glyph unicode="&#xdf;" horiz-adv-x="851" d="M31 0v1151q0 264 87 386t292 122q187 0 278.5 -110t91.5 -306q0 -283 -137 -383q178 -101 178 -409q0 -250 -90 -350.5t-311 -100.5h-62v252h62q70 0 99.5 56t29.5 184q0 120 -32.5 176.5t-102.5 56.5h-56v254h56q54 0 74 53t20 154q0 117 -22 169t-76 52 q-56 0 -81.5 -59t-25.5 -197v-1151h-272z" />
<glyph unicode="&#xe0;" horiz-adv-x="851" d="M31 322q0 95 27.5 171t71 124.5t96.5 87t106 67.5t96.5 57.5t71.5 66t28 83.5q0 66 -22.5 93.5t-73.5 27.5q-55 0 -79.5 -38.5t-24.5 -125.5v-45h-273v39q0 211 89.5 316.5t287.5 105.5q194 0 281.5 -104.5t87.5 -311.5v-739q0 -51 0.5 -74.5t5 -56t14.5 -66.5h-239 q-29 23 -41.5 67.5t-12.5 82.5q-37 -89 -92 -129.5t-143 -40.5q-114 0 -188 86.5t-74 255.5zM133 1604l21 79l563 -151l-21 -78zM303 369q0 -66 28 -102t79 -36q66 0 118 84v357q-19 -31 -60.5 -67t-75.5 -63t-61.5 -73t-27.5 -100z" />
<glyph unicode="&#xe1;" horiz-adv-x="851" d="M31 322q0 95 27.5 171t71 124.5t96.5 87t106 67.5t96.5 57.5t71.5 66t28 83.5q0 66 -22.5 93.5t-73.5 27.5q-55 0 -79.5 -38.5t-24.5 -125.5v-45h-273v39q0 211 89.5 316.5t287.5 105.5q194 0 281.5 -104.5t87.5 -311.5v-739q0 -51 0.5 -74.5t5 -56t14.5 -66.5h-239 q-29 23 -41.5 67.5t-12.5 82.5q-37 -89 -92 -129.5t-143 -40.5q-114 0 -188 86.5t-74 255.5zM133 1532l563 151l21 -79l-563 -150zM303 369q0 -66 28 -102t79 -36q66 0 118 84v357q-19 -31 -60.5 -67t-75.5 -63t-61.5 -73t-27.5 -100z" />
<glyph unicode="&#xe2;" horiz-adv-x="851" d="M31 322q0 95 27.5 171t71 124.5t96.5 87t106 67.5t96.5 57.5t71.5 66t28 83.5q0 66 -22.5 93.5t-73.5 27.5q-55 0 -79.5 -38.5t-24.5 -125.5v-45h-273v39q0 211 89.5 316.5t287.5 105.5q194 0 281.5 -104.5t87.5 -311.5v-739q0 -51 0.5 -74.5t5 -56t14.5 -66.5h-239 q-29 23 -41.5 67.5t-12.5 82.5q-37 -89 -92 -129.5t-143 -40.5q-114 0 -188 86.5t-74 255.5zM133 1454l223 229h144l217 -229h-133l-156 168l-162 -168h-133zM303 369q0 -66 28 -102t79 -36q66 0 118 84v357q-19 -31 -60.5 -67t-75.5 -63t-61.5 -73t-27.5 -100z" />
<glyph unicode="&#xe3;" horiz-adv-x="851" d="M31 322q0 95 27.5 171t71 124.5t96.5 87t106 67.5t96.5 57.5t71.5 66t28 83.5q0 66 -22.5 93.5t-73.5 27.5q-55 0 -79.5 -38.5t-24.5 -125.5v-45h-273v39q0 211 89.5 316.5t287.5 105.5q194 0 281.5 -104.5t87.5 -311.5v-739q0 -51 0.5 -74.5t5 -56t14.5 -66.5h-239 q-29 23 -41.5 67.5t-12.5 82.5q-37 -89 -92 -129.5t-143 -40.5q-114 0 -188 86.5t-74 255.5zM133 1479q0 204 164 204q44 0 77.5 -15t53.5 -36.5t37 -43.5t37.5 -37t44.5 -15q67 0 67 123h103q0 -205 -164 -205q-44 0 -77.5 15t-53.5 37t-37 44t-37.5 37t-44.5 15 q-67 0 -67 -123h-103zM303 369q0 -66 28 -102t79 -36q66 0 118 84v357q-19 -31 -60.5 -67t-75.5 -63t-61.5 -73t-27.5 -100z" />
<glyph unicode="&#xe4;" horiz-adv-x="851" d="M31 322q0 95 27.5 171t71 124.5t96.5 87t106 67.5t96.5 57.5t71.5 66t28 83.5q0 66 -22.5 93.5t-73.5 27.5q-55 0 -79.5 -38.5t-24.5 -125.5v-45h-273v39q0 211 89.5 316.5t287.5 105.5q194 0 281.5 -104.5t87.5 -311.5v-739q0 -51 0.5 -74.5t5 -56t14.5 -66.5h-239 q-29 23 -41.5 67.5t-12.5 82.5q-37 -89 -92 -129.5t-143 -40.5q-114 0 -188 86.5t-74 255.5zM174 1552q0 44 28.5 71.5t69.5 27.5q39 0 68 -27.5t29 -71.5q0 -41 -29.5 -68.5t-67.5 -27.5q-41 0 -69.5 27t-28.5 69zM303 369q0 -66 28 -102t79 -36q66 0 118 84v357 q-19 -31 -60.5 -67t-75.5 -63t-61.5 -73t-27.5 -100zM481 1552q0 44 29 71.5t70 27.5q39 0 67.5 -27.5t28.5 -71.5q0 -41 -29 -68.5t-67 -27.5q-41 0 -70 27t-29 69z" />
<glyph unicode="&#xe5;" horiz-adv-x="851" d="M31 322q0 95 27.5 171t71 124.5t96.5 87t106 67.5t96.5 57.5t71.5 66t28 83.5q0 66 -22.5 93.5t-73.5 27.5q-55 0 -79.5 -38.5t-24.5 -125.5v-45h-273v39q0 211 89.5 316.5t287.5 105.5q194 0 281.5 -104.5t87.5 -311.5v-739q0 -51 0.5 -74.5t5 -56t14.5 -66.5h-239 q-29 23 -41.5 67.5t-12.5 82.5q-37 -89 -92 -129.5t-143 -40.5q-114 0 -188 86.5t-74 255.5zM291 1589q0 57 40 96t95 39t95 -39t40 -96t-40 -96t-95 -39t-95 39t-40 96zM303 369q0 -66 28 -102t79 -36q66 0 118 84v357q-19 -31 -60.5 -67t-75.5 -63t-61.5 -73t-27.5 -100z M373 1589q0 -24 14.5 -38.5t38.5 -14.5t38.5 14.5t14.5 38.5t-14.5 38.5t-38.5 14.5t-38.5 -14.5t-14.5 -38.5z" />
<glyph unicode="&#xe6;" horiz-adv-x="1294" d="M31 281q0 93 26.5 170.5t69 129t94 94.5t103 77.5t94 67t69.5 73t27 86.5q0 66 -20.5 93.5t-67.5 27.5q-51 0 -74.5 -39t-23.5 -125v-45h-273v39q0 422 334 422q140 0 227 -103q93 103 275 103q189 0 281 -113.5t92 -357.5v-267h-478v-174q0 -121 23 -165t82 -44t79.5 43 t20.5 166v82h273v-71q0 -244 -92 -357.5t-281 -113.5q-231 0 -320 170q-53 -91 -112 -130.5t-154 -39.5q-116 0 -195 75.5t-79 225.5zM303 369q0 -65 27.5 -101.5t75.5 -36.5q24 0 47.5 11.5t35.5 22.5t35 34q-10 75 -10 152v219q-15 -26 -44 -53t-56 -50.5t-53 -51t-42 -65 t-16 -81.5zM786 799h205v92q0 122 -21 165.5t-79 43.5q-59 0 -82 -44t-23 -165v-92z" />
<glyph unicode="&#xe7;" d="M31 451v430q0 244 94 357.5t283 113.5q188 0 280 -113t92 -358v-72h-272v82q0 122 -21 165.5t-79 43.5q-59 0 -82 -44t-23 -165v-451q0 -121 23 -165t82 -44t79.5 43t20.5 166v82h272v-71q0 -229 -81 -343t-246 -126l-29 -119q227 37 227 -123q0 -34 -14 -60.5 t-33.5 -43.5t-54 -29t-62 -18t-72 -9t-68 -3.5t-66.5 -0.5l2 82q147 0 206.5 15.5t59.5 66.5q0 52 -56.5 62t-168.5 -9l28 189q-160 15 -240.5 129.5t-80.5 339.5z" />
<glyph unicode="&#xe8;" d="M31 451v430q0 244 94 357.5t283 113.5q188 0 280 -113t92 -358v-267h-477v-174q0 -121 23 -165t82 -44t79.5 43t20.5 166v82h272v-71q0 -245 -92 -358t-280 -113q-189 0 -283 113.5t-94 357.5zM113 1604l20 79l563 -151l-20 -78zM303 799h205v92q0 122 -21 165.5 t-79 43.5q-59 0 -82 -44t-23 -165v-92z" />
<glyph unicode="&#xe9;" d="M31 451v430q0 244 94 357.5t283 113.5q188 0 280 -113t92 -358v-267h-477v-174q0 -121 23 -165t82 -44t79.5 43t20.5 166v82h272v-71q0 -245 -92 -358t-280 -113q-189 0 -283 113.5t-94 357.5zM113 1532l563 151l20 -79l-563 -150zM303 799h205v92q0 122 -21 165.5 t-79 43.5q-59 0 -82 -44t-23 -165v-92z" />
<glyph unicode="&#xea;" d="M31 451v430q0 244 94 357.5t283 113.5q188 0 280 -113t92 -358v-267h-477v-174q0 -121 23 -165t82 -44t79.5 43t20.5 166v82h272v-71q0 -245 -92 -358t-280 -113q-189 0 -283 113.5t-94 357.5zM113 1454l223 229h143l217 -229h-133l-155 168l-162 -168h-133zM303 799h205 v92q0 122 -21 165.5t-79 43.5q-59 0 -82 -44t-23 -165v-92z" />
<glyph unicode="&#xeb;" d="M31 451v430q0 244 94 357.5t283 113.5q188 0 280 -113t92 -358v-267h-477v-174q0 -121 23 -165t82 -44t79.5 43t20.5 166v82h272v-71q0 -245 -92 -358t-280 -113q-189 0 -283 113.5t-94 357.5zM154 1552q0 44 28.5 71.5t69.5 27.5q39 0 67.5 -27.5t28.5 -71.5 q0 -41 -29 -68.5t-67 -27.5q-41 0 -69.5 27t-28.5 69zM303 799h205v92q0 122 -21 165.5t-79 43.5q-59 0 -82 -44t-23 -165v-92zM461 1552q0 44 28.5 71.5t69.5 27.5q39 0 67.5 -27.5t28.5 -71.5q0 -41 -29 -68.5t-67 -27.5q-41 0 -69.5 27t-28.5 69z" />
<glyph unicode="&#xec;" horiz-adv-x="333" d="M-125 1604l21 79l563 -151l-21 -78zM31 0v1331h272v-1331h-272z" />
<glyph unicode="&#xed;" horiz-adv-x="333" d="M-125 1532l563 151l21 -79l-563 -150zM31 0v1331h272v-1331h-272z" />
<glyph unicode="&#xee;" horiz-adv-x="333" d="M-125 1454l223 229h144l217 -229h-133l-156 168l-162 -168h-133zM31 0v1331h272v-1331h-272z" />
<glyph unicode="&#xef;" horiz-adv-x="333" d="M-84 1552q0 44 28.5 71.5t69.5 27.5q39 0 68 -27.5t29 -71.5q0 -41 -29.5 -68.5t-67.5 -27.5q-41 0 -69.5 27t-28.5 69zM31 0v1331h272v-1331h-272zM223 1552q0 44 29 71.5t70 27.5q39 0 67.5 -27.5t28.5 -71.5q0 -41 -29 -68.5t-67 -27.5q-41 0 -70 27t-29 69z" />
<glyph unicode="&#xf0;" horiz-adv-x="950" d="M31 520q0 99 22 185.5t66.5 157t119 111t171.5 40.5q145 0 233 -129q-52 208 -215 358l-291 -180v115l209 129q-77 58 -194 110l108 236q184 -72 324 -201l260 162v-115l-191 -119q267 -300 267 -759q0 -297 -122 -469t-339 -172q-203 0 -315.5 143.5t-112.5 396.5z M303 508q0 -148 42 -210t132 -62q92 0 131 66.5t39 207.5q-3 135 -46.5 191.5t-123.5 56.5q-174 0 -174 -250z" />
<glyph unicode="&#xf1;" d="M31 0v1331h272v-149q14 31 33 58.5t48.5 54t71.5 42t91 15.5q136 0 184.5 -97t48.5 -325v-930h-272v952q0 81 -23 114.5t-75 33.5q-54 0 -80.5 -36.5t-26.5 -113.5v-950h-272zM113 1479q0 204 163 204q44 0 77.5 -15t53.5 -36.5t37 -43.5t37.5 -37t44.5 -15q68 0 68 123 h102q0 -205 -164 -205q-44 0 -77.5 15t-53.5 37t-36.5 44t-37 37t-44.5 15q-68 0 -68 -123h-102z" />
<glyph unicode="&#xf2;" d="M31 451v430q0 244 93 357.5t282 113.5t281.5 -113.5t92.5 -357.5v-430q0 -244 -92.5 -357.5t-281.5 -113.5t-282 113.5t-93 357.5zM113 1604l20 79l563 -151l-20 -78zM303 440q0 -122 22 -165.5t81 -43.5t80.5 43.5t21.5 165.5v451q0 121 -22 165t-80 44q-59 0 -81 -43.5 t-22 -165.5v-451z" />
<glyph unicode="&#xf3;" d="M31 451v430q0 244 93 357.5t282 113.5t281.5 -113.5t92.5 -357.5v-430q0 -244 -92.5 -357.5t-281.5 -113.5t-282 113.5t-93 357.5zM113 1532l563 151l20 -79l-563 -150zM303 440q0 -122 22 -165.5t81 -43.5t80.5 43.5t21.5 165.5v451q0 121 -22 165t-80 44 q-59 0 -81 -43.5t-22 -165.5v-451z" />
<glyph unicode="&#xf4;" d="M31 451v430q0 244 93 357.5t282 113.5t281.5 -113.5t92.5 -357.5v-430q0 -244 -92.5 -357.5t-281.5 -113.5t-282 113.5t-93 357.5zM113 1454l223 229h143l217 -229h-133l-155 168l-162 -168h-133zM303 440q0 -122 22 -165.5t81 -43.5t80.5 43.5t21.5 165.5v451 q0 121 -22 165t-80 44q-59 0 -81 -43.5t-22 -165.5v-451z" />
<glyph unicode="&#xf5;" d="M31 451v430q0 244 93 357.5t282 113.5t281.5 -113.5t92.5 -357.5v-430q0 -244 -92.5 -357.5t-281.5 -113.5t-282 113.5t-93 357.5zM113 1479q0 204 163 204q44 0 77.5 -15t53.5 -36.5t37 -43.5t37.5 -37t44.5 -15q68 0 68 123h102q0 -205 -164 -205q-44 0 -77.5 15 t-53.5 37t-36.5 44t-37 37t-44.5 15q-68 0 -68 -123h-102zM303 440q0 -122 22 -165.5t81 -43.5t80.5 43.5t21.5 165.5v451q0 121 -22 165t-80 44q-59 0 -81 -43.5t-22 -165.5v-451z" />
<glyph unicode="&#xf6;" d="M31 451v430q0 244 93 357.5t282 113.5t281.5 -113.5t92.5 -357.5v-430q0 -244 -92.5 -357.5t-281.5 -113.5t-282 113.5t-93 357.5zM154 1552q0 44 28.5 71.5t69.5 27.5q39 0 67.5 -27.5t28.5 -71.5q0 -41 -29 -68.5t-67 -27.5q-41 0 -69.5 27t-28.5 69zM303 440 q0 -122 22 -165.5t81 -43.5t80.5 43.5t21.5 165.5v451q0 121 -22 165t-80 44q-59 0 -81 -43.5t-22 -165.5v-451zM461 1552q0 44 28.5 71.5t69.5 27.5q39 0 67.5 -27.5t28.5 -71.5q0 -41 -29 -68.5t-67 -27.5q-41 0 -69.5 27t-28.5 69z" />
<glyph unicode="&#xf7;" horiz-adv-x="901" d="M31 625v102h839v-102h-839zM389 440q0 25 18 43.5t44 18.5q25 0 43 -18.5t18 -43.5q0 -26 -18 -43.5t-43 -17.5q-26 0 -44 17.5t-18 43.5zM389 911q0 25 18 43.5t44 18.5q25 0 43 -18.5t18 -43.5q0 -26 -18 -43.5t-43 -17.5q-26 0 -44 17.5t-18 43.5z" />
<glyph unicode="&#xf8;" d="M31 451v430q0 244 93 357.5t282 113.5q104 0 182 -35l67 188h109l-90 -252q106 -115 106 -372v-430q0 -244 -92.5 -357.5t-281.5 -113.5q-108 0 -183 34l-67 -188h-109l90 252q-106 115 -106 373zM303 532l186 515q-22 53 -83 53q-59 0 -81 -43.5t-22 -165.5v-359z M322 283q19 -52 84 -52q59 0 80.5 43.5t21.5 165.5v359z" />
<glyph unicode="&#xf9;" d="M31 401v930h272v-952q0 -81 23 -114.5t75 -33.5q54 0 80.5 36.5t26.5 113.5v950h272v-1134q0 -73 3.5 -112t17.5 -85h-240q-28 21 -40.5 66t-12.5 84q-14 -31 -33 -58.5t-48.5 -54t-71.5 -42t-91 -15.5q-136 0 -184.5 97t-48.5 324zM113 1604l20 79l563 -151l-20 -78z " />
<glyph unicode="&#xfa;" d="M31 401v930h272v-952q0 -81 23 -114.5t75 -33.5q54 0 80.5 36.5t26.5 113.5v950h272v-1134q0 -73 3.5 -112t17.5 -85h-240q-28 21 -40.5 66t-12.5 84q-14 -31 -33 -58.5t-48.5 -54t-71.5 -42t-91 -15.5q-136 0 -184.5 97t-48.5 324zM113 1532l563 151l20 -79l-563 -150z " />
<glyph unicode="&#xfb;" d="M31 401v930h272v-952q0 -81 23 -114.5t75 -33.5q54 0 80.5 36.5t26.5 113.5v950h272v-1134q0 -73 3.5 -112t17.5 -85h-240q-28 21 -40.5 66t-12.5 84q-14 -31 -33 -58.5t-48.5 -54t-71.5 -42t-91 -15.5q-136 0 -184.5 97t-48.5 324zM113 1454l223 229h143l217 -229h-133 l-155 168l-162 -168h-133z" />
<glyph unicode="&#xfc;" d="M31 401v930h272v-952q0 -81 23 -114.5t75 -33.5q54 0 80.5 36.5t26.5 113.5v950h272v-1134q0 -73 3.5 -112t17.5 -85h-240q-28 21 -40.5 66t-12.5 84q-14 -31 -33 -58.5t-48.5 -54t-71.5 -42t-91 -15.5q-136 0 -184.5 97t-48.5 324zM154 1552q0 44 28.5 71.5t69.5 27.5 q39 0 67.5 -27.5t28.5 -71.5q0 -41 -29 -68.5t-67 -27.5q-41 0 -69.5 27t-28.5 69zM461 1552q0 44 28.5 71.5t69.5 27.5q39 0 67.5 -27.5t28.5 -71.5q0 -41 -29 -68.5t-67 -27.5q-41 0 -69.5 27t-28.5 69z" />
<glyph unicode="&#xfd;" d="M31 401v930h272v-952q0 -81 23 -114.5t75 -33.5q54 0 80.5 36.5t26.5 113.5v950h272v-1294q0 -102 -8 -170t-30 -124.5t-61.5 -88t-100.5 -48t-150 -16.5h-342v252h277q79 0 111 41t32 154v113q-14 -31 -33 -58.5t-48.5 -54t-71.5 -42t-91 -15.5q-136 0 -184.5 97 t-48.5 324zM113 1532l563 151l20 -79l-563 -150z" />
<glyph unicode="&#xfe;" d="M31 -410v2048h272v-456q14 31 33 58.5t48.5 54t71.5 42t91 15.5q136 0 184.5 -97t48.5 -325v-529q0 -227 -48.5 -324t-184.5 -97q-49 0 -91 15.5t-71.5 42t-48.5 54t-33 58.5v-560h-272zM303 381q0 -77 26.5 -113.5t80.5 -36.5q52 0 75 33.5t23 114.5v573q0 81 -23 114.5 t-75 33.5q-54 0 -80.5 -36.5t-26.5 -113.5v-569z" />
<glyph unicode="&#xff;" d="M31 401v930h272v-952q0 -81 23 -114.5t75 -33.5q54 0 80.5 36.5t26.5 113.5v950h272v-1294q0 -102 -8 -170t-30 -124.5t-61.5 -88t-100.5 -48t-150 -16.5h-342v252h277q79 0 111 41t32 154v113q-14 -31 -33 -58.5t-48.5 -54t-71.5 -42t-91 -15.5q-136 0 -184.5 97 t-48.5 324zM154 1552q0 44 28.5 71.5t69.5 27.5q39 0 67.5 -27.5t28.5 -71.5q0 -41 -29 -68.5t-67 -27.5q-41 0 -69.5 27t-28.5 69zM461 1552q0 44 28.5 71.5t69.5 27.5q39 0 67.5 -27.5t28.5 -71.5q0 -41 -29 -68.5t-67 -27.5q-41 0 -69.5 27t-28.5 69z" />
<glyph unicode="&#x152;" horiz-adv-x="1214" d="M31 442v754q0 237 85 350t234 113q195 0 271 -182v161h563v-272h-291v-410h291v-274h-291v-410h291v-272h-563v162q-76 -182 -271 -182q-149 0 -234 112.5t-85 349.5zM303 457q0 -120 20 -162.5t80 -42.5q62 0 81.5 42.5t19.5 162.5v725q0 120 -19.5 162t-81.5 42 q-60 0 -80 -42.5t-20 -161.5v-725z" />
<glyph unicode="&#x153;" horiz-adv-x="1273" d="M31 451v430q0 239 84 355t233 116q153 0 234 -121q93 121 288 121q189 0 281 -113.5t92 -357.5v-267h-477v-174q0 -122 22.5 -165.5t81.5 -43.5t80 43.5t21 165.5v82h272v-71q0 -244 -92 -357.5t-281 -113.5q-196 0 -288 120q-80 -120 -234 -120q-149 0 -233 116t-84 355 zM303 440q0 -123 20 -166t78 -43q56 0 74.5 45.5t18.5 163.5v451q0 117 -19 163t-74 46q-58 0 -78 -43t-20 -166v-451zM766 799h205v92q0 122 -21.5 165.5t-79.5 43.5q-59 0 -81.5 -43.5t-22.5 -165.5v-92z" />
<glyph unicode="&#x178;" horiz-adv-x="937" d="M31 1638h291l147 -735l147 735h291l-301 -1065v-573h-274v573zM217 1860q0 44 28.5 71t69.5 27q39 0 68 -27t29 -71q0 -41 -29.5 -69t-67.5 -28q-41 0 -69.5 27.5t-28.5 69.5zM524 1860q0 44 29 71t70 27q39 0 67.5 -27t28.5 -71q0 -41 -29 -69t-67 -28q-41 0 -70 27.5 t-29 69.5z" />
<glyph unicode="&#x2c6;" horiz-adv-x="624" d="M20 1454l224 229h143l217 -229h-133l-156 168l-161 -168h-134z" />
<glyph unicode="&#x2dc;" horiz-adv-x="624" d="M20 1479q0 204 164 204q44 0 77.5 -15t53.5 -36.5t37 -43.5t37.5 -37t44.5 -15q68 0 68 123h102q0 -205 -164 -205q-44 0 -77.5 15t-53.5 37t-37 44t-37.5 37t-44.5 15q-67 0 -67 -123h-103z" />
<glyph unicode="&#x2000;" horiz-adv-x="1016" />
<glyph unicode="&#x2001;" horiz-adv-x="2032" />
<glyph unicode="&#x2002;" horiz-adv-x="1016" />
<glyph unicode="&#x2003;" horiz-adv-x="2032" />
<glyph unicode="&#x2004;" horiz-adv-x="677" />
<glyph unicode="&#x2005;" horiz-adv-x="508" />
<glyph unicode="&#x2006;" horiz-adv-x="338" />
<glyph unicode="&#x2007;" horiz-adv-x="338" />
<glyph unicode="&#x2008;" horiz-adv-x="254" />
<glyph unicode="&#x2009;" horiz-adv-x="406" />
<glyph unicode="&#x200a;" horiz-adv-x="112" />
<glyph unicode="&#x2010;" horiz-adv-x="901" d="M31 625v102h839v-102h-839z" />
<glyph unicode="&#x2011;" horiz-adv-x="901" d="M31 625v102h839v-102h-839z" />
<glyph unicode="&#x2012;" horiz-adv-x="901" d="M31 625v102h839v-102h-839z" />
<glyph unicode="&#x2013;" horiz-adv-x="1249" d="M31 625v102h1188v-102h-1188z" />
<glyph unicode="&#x2014;" horiz-adv-x="2109" d="M31 625v102h2048v-102h-2048z" />
<glyph unicode="&#x2018;" horiz-adv-x="225" d="M31 1147l82 512h82l-62 -512h-102z" />
<glyph unicode="&#x2019;" horiz-adv-x="225" d="M31 1147l61 512h103l-82 -512h-82z" />
<glyph unicode="&#x201a;" horiz-adv-x="221" d="M31 -244l61 512h103l-82 -512h-82z" />
<glyph unicode="&#x201c;" horiz-adv-x="389" d="M31 1147l82 512h82l-62 -512h-102zM195 1147l81 512h82l-61 -512h-102z" />
<glyph unicode="&#x201d;" horiz-adv-x="389" d="M31 1147l61 512h103l-82 -512h-82zM195 1147l61 512h102l-82 -512h-81z" />
<glyph unicode="&#x201e;" horiz-adv-x="389" d="M31 -244l61 512h103l-82 -512h-82zM195 -244l61 512h102l-82 -512h-81z" />
<glyph unicode="&#x2022;" horiz-adv-x="569" d="M31 670q0 115 73.5 185.5t180.5 70.5t180.5 -70.5t73.5 -185.5q0 -111 -73.5 -180.5t-180.5 -69.5t-180.5 69.5t-73.5 180.5z" />
<glyph unicode="&#x2026;" horiz-adv-x="1069" d="M31 127q0 67 43 108t106 41q62 0 105 -41t43 -108q0 -66 -43 -106.5t-105 -40.5q-63 0 -106 40.5t-43 106.5zM385 127q0 67 43.5 108t106.5 41t105 -41t42 -108q0 -66 -42 -106.5t-105 -40.5t-106.5 40.5t-43.5 106.5zM741 127q0 67 42.5 108t105.5 41t106 -41t43 -108 q0 -66 -43 -106.5t-106 -40.5t-105.5 40.5t-42.5 106.5z" />
<glyph unicode="&#x202f;" horiz-adv-x="406" />
<glyph unicode="&#x2039;" horiz-adv-x="366" d="M31 635v82l305 325v-122l-227 -244l227 -244v-123z" />
<glyph unicode="&#x203a;" horiz-adv-x="366" d="M31 309v123l227 244l-227 244v122l305 -325v-82z" />
<glyph unicode="&#x205f;" horiz-adv-x="508" />
<glyph unicode="&#x20ac;" horiz-adv-x="843" d="M31 627v102h102v82h-102v102h104q9 384 101 565t282 181q119 0 200 -79.5t95 -248.5h-102q-29 225 -193 225q-145 0 -209.5 -152.5t-72.5 -490.5h434v-102h-434v-82h434v-102h-430q14 -284 78.5 -414.5t199.5 -130.5q164 0 193 225h102q-14 -168 -94.5 -247.5 t-200.5 -79.5q-176 0 -268.5 157.5t-112.5 489.5h-106z" />
<glyph unicode="&#x2122;" horiz-adv-x="958" d="M31 1536v102h336v-102h-117v-901h-103v901h-116zM408 635v1003h102l158 -804l157 804h103v-1003h-103v510l-106 -510h-103l-106 510v-510h-102z" />
<glyph unicode="&#x25fc;" horiz-adv-x="1331" d="M0 0v1331h1331v-1331h-1331z" />
</font>
</defs>
</svg>
